<mxfile host="Electron" modified="2023-12-17T20:21:57.724Z" agent="Mozilla/5.0 (X11; Linux x86_64) AppleWebKit/537.36 (KHTML, like Gecko) draw.io/22.1.2 Chrome/114.0.5735.289 Electron/25.9.4 Safari/537.36" etag="S9FbFj9h5vsftypYAWvy" version="22.1.2" type="device">
  <diagram name="StrÃ¡nka-1" id="Cby52rAQP4Q6zGGtcV5l">
    <mxGraphModel dx="530" dy="459" grid="1" gridSize="10" guides="1" tooltips="1" connect="1" arrows="1" fold="1" page="1" pageScale="1" pageWidth="827" pageHeight="1169" math="0" shadow="0">
      <root>
        <mxCell id="0" />
        <mxCell id="1" parent="0" />
        <mxCell id="UEyNzQiGv4uuygEFeglz-1" value="" style="shape=image;aspect=fixed;image=data:image/png,iVBORw0KGgoAAAANSUhEUgAAAakAAAGmCAYAAADGenuOAAAACXBIWXMAAA7EAAAOxAGVKw4bAAAgAElEQVR4XuydeZyUxbX3f8/W6+wMDMvIsInsIFtYRcA9wSUqcUHiFUWJRokxcL1Gk7gFFBFBRRSCCzEoLqiggoqgRIRhGRSEKDsIDAzDLL0963n/qKnqnqZRcq/3vQPUdz796enu53m6lqfr1Dl16hyFiAgSiUQikTRA1PQ3JBKJRCJpKEghJZFIJJIGixRSEolEImmwSCElkUgkkgaLFFISiUQiabBIISWRSCSSBosUUhKJRCJpsEghJZFIJJIGixRSEolEImmwSCElkUgkkgaLFFISiUQiabBIISWRSCSSBosUUhKJRCJpsEghJZFIJJIGixRSEolEImmwSCElkUgkkgaLFFISiUQiabBIISWRSCSSBosUUhKJRCJpsEghJZFIJJIGixRSEolEImmwSCEl+T/Dtm2YpgnP8wAAiUQCAEBEOHr0KBzHEZ/btg3P80BEqZc45eH1JSJ4nifaKhO2bQNgx1qWBc/zYFmWuIZlWeK5qqoKAOA4DjtZImmgSCEl+T/BcRyoqgoiwr333otOnTqhZ8+eyMnJwV133YVwOAzHceD3+6GqKgzDEMefToKKiGDbNogIqqpCUZT0QwAAruvCMAy4rgvP8+Dz+aCqKkpLSzFs2DC0a9cOXbp0wcCBA/H+++8jLy8PrutC0zQhvCSShohCp9MvXtJgcF0XL730Ev7yl78gNzcXgwYNgmVZ8Pl82LhxI3bs2IH7778fN910kxhwUwWUqp4e8yvP80TdXdeFoijQNC39MKFpqaoKz/Nw+PBh3Hnnnfj000/Rr18/FBcXQ9d17Nq1C1u3bkVJSQlmzJiBtm3bQtf106Y9JScfUkhJ/s8oLCzEDTfcgD/96U/IycmBqqqIRqNQFAVz587F5MmTsWrVKrRo0UIM0rquCw3gdMB1XaFFWZYFVVXh8/nSDwOQNA26rotRo0ahrKwMH3zwAVq1aiVMf8FgEN9++y1GjBiBjh07YuHChUgkEggEAmlXk0gaBlJISf5PmDdvHpYtW4Y5c+bAtm34fD64ris0Acdx8Lvf/Q7btm3D+++/D13XhaZwOgkpvg6nqips2z6u1mPbNgzDQCKRwIYNGzBgwAAsW7YMPXv2RDAYPKZ9d+zYgSuvvBLvvvuu0LIkkobIsXe7RPL/gcrKSgwaNAhEBJ/PByKCpmnCnBWJRHD++edj+fLlOHz4sDiPH3e64HkeNE3Dhg0bMGXKFMyaNSv9EACAYRhwHAc+nw9lZWXo1asXhgwZgqysLOi6jng8Lta0VFVF27Zt0alTJ7z++usZhZ5E0lCQd6fkhHBdFwAbNLmmw9dBHMeB53mIx+Ni4Z4r6Pwzbq4DANM0cejQISiKAsdx4LoubNsW17RtG3l5ecjNzYVt2+I8IoKiKPC843u4nazwdjtw4AD++te/olOnTmjdujWmTZuGxYsX47LLLsMnn3yCJ554AiUlJdi0aZMwBfI25gLIdV3U1taKzxzHQTAYFG3J2zo3N7ee959E0hCRQkpyQmiaBtM0YZomAEBRFMRiMRARdF0X6x2apiGRSIg1ED5Q8gGUiOD3+9GkSRNEo1H4fD4kEgkkEgkhyPjMfsOGDWjevDkaN24svpOb/E41NE2Dbdv44IMPcP/992P8+PF45ZVXMGvWLIwdOxYPPPAAPv74Y5SVlSEcDuPdd9+FpmnwPE+Y6rjAz8/Px44dO/D9999D0zSheaqqKs7x+XxYt24d+vTpk1oMiaTBcer92iU/OVxb8vl8YoHd8zyEQiGxN4cLDj5rd11XeOXxz4iYdx4RYfjw4Zg5cyZKS0vh9/uRlZUFRVGg6zoURcGuXbvw97//Hb/5zW/g8/nqCadTcebPNaENGzZgzJgxGDVqFPr06YPf/va3OHz4MIYPHw7bthEKhXD55Zdj1apV9faV8UmAoigYPnw4SkpKMG3aNKF12rYNRVGEu/kTTzwBTdMwfPjwU1LoS04d5N0p+VFUVRWOC7ZtQ1XZviXLshAIBFBRUQGfz4cNGzbgm2++QWVlJXw+n9jfo2ma0JD4QNqpUyd07NgRgwcPxqxZs+C6zL3a8zzMnj0b7dq1Q35+Pu677z4h2HhZTkVUVUVtbS3Ky8tRUFCAUCgkhDcX0IlEArZtIz8/H7ZtIxAIgIht3DVNE4ZhwDRNNG7cGK+++irmz5+PG2+8EatXrxZa1O7du3HDDTfgnnvuwc033yy0V4mkoSJdeiQ/iusybzoigmEYWLduHebMmYOdO3eiQ4cO+OMf/4jbb78d8+fPRzAYhGVZeOCBB3DHHXeIGbyiKPWEDQBMmzYNvXr1wowZM/Dss8/i0KFDyM7OhqqqeOihh3DDDTfANE2hkfFynIoQEbKzs1FTU4Ps7GwATLtKxTAMGIYB27aFBsvNp47jiH1mnuehe/fuePXVV/HEE09g9OjR8DxPmFV79+6N9957DxdffHE986pE0hCRQuo0gM/E+UAVDAahKMnIBaZpwu/3A0ia5DyPeZVxTSj1GldffTWCwSCuv/56vP322zj33HORk5ODrVu3oqCgAH/6058wadIk3HbbbfXWQwC2rsRp3Lgx7r33Xtx7772IxWLYv38/CgoKUFBQIMrATVkAW7dJvQYvK782N5kd7/MTgWt0qspcvlPrDvz3NDl+PneOMAwj/RAoiiK0z9Q2UxTm7ajrunB+4AIKSK4V+v1+xONxKIoiBNngwYNx7rnnwnEc7Nu3D47joF27dgCS5j+uGR8Px3Hquf/z13zCwAXj8YjFYsIszCNipJ6X2r/8/x+7puT0Qu6TOg3gAz4ffImSzgx80CRKOi3wgZ4P8J7nwXVZ2J0vv/wSw4YNw9KlSzFw4EDs3bsXAwYMwPXXX4/JkyfDtlk8vu7du2Pt2rXIzs7OuAeHD0iu64r1q9QBEGADcOoglgqvU+ogDWQWVJnOzwTf1Oo4LJ4dbyuACRHeJvyzEyXVnPZDdXJdFxdeeCHWrVuHnJwcIUQOHDiAVq1awbIsGIaB6upq9O3bF4sWLQIR0265ECBi3pE+nw8VFRXYunUrOnXqhPz8fCEkeRuvXbsWXbp0QTgczlgfXtdUIZ3aN47DQlvxeyYdfl5tbS1UVcWWLVtQXFyM/Pz8egLq6NGjWLNmDfr3749gMAjDMETfSiTHjh6SUw5FYbNxIoJpmlAUNmtPPyZ9oLJttnmUD4QAcOTIESQSCbRr1w7V1dVo2bIlPM9DSUkJgKRJioiwfv16DB8+PPWS9eCzas9jbu3pGgRQX/NKhZ/jOCy+X6pZMJXjnZ+JQCAgBnEOL+N/RzgByfNTX6cKUY5lWYjH47jlllswbNgwsbfJtm0xcMdiMei6jiZNmkBV2TohEdMWDcNAPB5HIBCAqqrYvXs3Lr30UmzZsgWNGjXCxIkTMXbsWIRCIQCsb2+66SbMnTsX/fr1q1cWDhcyfEJgmqbQwqPRKMLhMGybrTtmmoioKouSEQgEcNFFF+Hrr79GIpHAHXfcgT/+8Y/w+XzQdR3r1q3DyJEj8d5772HIkCFC4EokgBRSpwWO4whhwL3nLMuCpjH3ZG5e4QMqNyfxGS2/huM4OHz4MBSFaWBZWVlwHAehUAiOw9yfOa7rIjs7+5hBmrNnzx7s2rULQFKQ2LYtNCLHYXt/AoEABgwYwE8TaJqG5cuXY9KkSbjvvvswcODAehoKFyrAvyeoXJdpk9wRgSjpWJB6nRO9Jm9fLngzTQYACAF7xRVXCK0yVVvhAoO3PYcoGTKJO1IcOnQIF154Ifr374/HH38cZWVleOaZZ7B9+3ZMnjxZBO2NxWIwDLYJOJOQ4XWMRCIAgLy8PNTU1OCDDz7A/v374fP5cMkll6BVq1YpZyXhGunIkSPRqFEjzJo1C0eOHMEzzzyDjRs34u233xZCmH8HN0Py+kokIMkpj+u6FI/HyfM8IiLxzP9///33adCgQXTeeefRsmXLiIjItm0iIorH40RE5DgOERHNmjWL8vLyaOfOnZRIJIiI6IwzzqDp06cTEbue67rUpk0b2rx5Mx2P6dOnk6qq5PP5CADpuk7BYJAAiIemaVRYWJh+KhER7d+/nyoqKujcc8+loqIieuaZZygSiZDrukTEypFazxPBdV2yLIuIkvWPRCLiPdd1yTRNcfyJUFtbS0TserwN+fVSSX0vGo3Spk2biIh9JxHRvHnzaMCAATRs2DDas2cPeZ5HsViMXNclz/PE+YlEgt59910qLCwUfXfkyBEiImrdujX9/ve/J9M0yTRNatWqFa1fv55+iEceeYQKCgqouLiYXn75ZXrooYcIAHXu3JkAUO/evdNPqcfatWsJAH311Vd06NAhikQiRETUr18/eu6558hxHPr0008JAH3yySdUU1OTdgXJ6c6x0yfJKYeqMvfjw4cP4+6778aXX34JXdfRu3dv3HjjjRg/fjy6du0K27YxbNgwvPbaa/jlL38J12UBXalOK+EaVk1NDW688UahlcViMcyaNQvvvfceiJhLdEVFBY4cOXLcWfptt92GDRs2YPHixZg6dSpatGhRz6xGKWasTDRp0gSKomDJkiWYPn06pkyZglWrVuGxxx5Ds2bNANTf/MtNSFyz4+/z50OHDuGjjz6CoigYNmwYwuEwpk2bhjVr1iAYDOLqq6/GVVddBcdxRJmoTovheJ6HDz/8EN9//z1uueUWEBH27t2LyZMno7S0FP3798ftt9+Orl27iuNVlZnTuMa1Y8cOjBs3Dnv37sWSJUvQpk0bzJw5E5MnT8agQYMQj8fRq1cvvPrqqzjvvPNAxEy4uq7DcdhetqNHj6JZs2ZCSyooKIDrupg3bx4uv/xyFBUV4Q9/+INoa67pcY2X12vRokV48MEHcc899yAnJweTJk0CEWH+/PkYMWIEduzYgeuuuw5vvvkmrrzyStEOqfDN33l5ecjLy4NhsK0LL7zwAq688ko0adIEhYWF0DQNqqoiGAzC8+qvK0pOc5iskpzKeJ5HpmnSggULCAAtXLiQiIhGjBhBXbt2pSeffJLKy8spHo/THXfcQZdeeikRMe2Jz/75DHjx4sXUu3dvOuecc2jQoEF0zjnnUN++falHjx40ePBgGjJkCA0fPpz69OlDhw8fFtpWJiorK6lXr140bdo0isViP3hsOq7rUiKRIMuyhMZ08cUXU+/evenAgQP1rhWLxcQxXBNyHIei0aio4+DBgykcDhMAysnJocmTJxMAuuGGG+hnP/sZARBaZrqW5jgOua5Lc+bMIQA0dOhQOnr0KFVXV1PLli2pS5cu9NBDD9FFF11EhYWF9K9//YuIktoT15YSiQTNmDGDunXrRrt27SLbtunIkSPUoUMHuueee8Q5o0aNouuvv158N1FSO04kErR69WoCQMuXLyeipDacSCRo1apVlJ2dTfPnz6dWrVrRnj17KB6Pk2maQivj15o+fTp17dqVIpEIeZ5HN954Iw0ePLhe3a+77jrq37+/eJ2K67p08OBBaty4Mb388stExMpAxMr98ssvk6qqNH78eNJ1nZYtW3ZMP0kkUkidJsRiMXrqqaeoV69eZJom2bZNb7/9NqmqSkuWLCHHcci2bdq4cSO1adOGiNiA6HmeGIRt2xaDGf/Mtm3xSCQS4thEIkGJREIMwOnw91euXEkPPPAAEdU3Q54I8XicHMchy7IoGo1SbW0tDRgwgAoKCqhdu3Z0xhlnUPPmzenMM8+klStXElHSpMe/33VdWrx4MXXu3JlWrlxJmzZtogkTJlBhYSG9/vrr5DgO7du3j4qLi+mxxx4joqQpMLVtiIh69+5Nzz33nBDoL7/8MimKQkuWLCHTNOngwYNUWFhIzz77LBGxgZq3IRcQ55xzDr344otk2zbF43FatGgRAaD33ntPmAw3bNhA3bt3J9d1xcNxnHp9M2HCBGrbti3dddddor5cAD3zzDMUDocpOzubPv/8c1EHXh5er3vvvZcGDRokrvnXv/6Vzj//fLJtWxxz22230TnnnEOZ4PWaO3cudejQga688kqqrKwkInY/VlRU0O9+9ztq3bo1AaDPPvtMtC1/lkiOtcNITkl8Ph927tyJ/Px8AICu68jNzYWu68jKyhKmnpqamnqOAnbdQrbrusI9W1WZ23FtbS0++ugjfPLJJ/A8D126dMGoUaPEsSNHjsSLL76IwsJCUQ6OqqqIx+MiW2xtba3YxHoiuHVmO17uQCCAP/3pTygrK8PkyZPRq1cvsdAPAJ06dQLA6mQYyQ2xfr8f//znP9G/f3/06NED4XAYDz74IBYvXoyrr74ajuOgsLAQJSUl+P7778U1gGSEcgCIx+OwLAtjxoyBruuoqqpCeXk5+vbti3PPPRc+nw9NmjTBkCFDsHXrVmEGJWKecbw8lZWVaNeuHYgIgUAAW7duRXZ2Nvr06SNMYDy/Fjc1Og7bTsAdLgzDwOTJkzFixAhMmTJFmNh43W+++WZcffXVGD16NHJzc+G6bAuAV2dmI2LOIjU1NaKumqYJ5w5dZ/um+HvHg98/N954Izp27IgFCxYIhxifz4dgMIipU6di2LBhePzxx6EoLCyWJfdJSVKQQuo0wKnzFIvFYmL9IhKJiHUQy7Jg22wTqd/vF95j/HO/3w9N0xCPx+H3+xGLxfDoo49i3rx5sG0b3bp1QywWw9KlSzFz5kz86le/QiQSQSKREC7P6dh1Xl1+vx+u6yIcDos1knQyrU1oGvN8q66uxsqVK/HAAw/AsiwsXboUPXv2hGEYUBS2JqUoSY86/h2qykI7maaJbdu2IS8vD8FgUAz4lmXBdVmUce7lyAUeH6C5gOLCJZFIQNd1mKaJ3NxcLF26FG3atKkn1Hh9ubAHWP0URUEoFELTpk2xY8cO9O/fH5ZlobS0FN27d0dubq5YQ3v33XcRDAYBJPd2eZ6HSCSCrKwsmKYJTdPQt29fvPbaa0JwESWj1hcWFmLhwoVCSBLV94z0+djG4uzsbOzduxeGYaCyshKWZWHfvn2i7BUVFXAc5sWXDn/fNE307t0b3bt3F4KUmBUHqqriwgsvxJAhQxAMBhGPx8W6FP8OyemNFFKnAdxxwfNYxAkiEoMckNzbZNUtoPPBwbZZQFPPY5t5g8EgYrEYnn32WcyaNQsPP/wwbr31VgBMk/D5fHjjjTdwzTXXoKCgAAcOHBADeTqfffYZVq9eLQZIn88nBGc6//Vf/5X+FjyPRVmfOHEiZs2ahaFDh+LVV19FUVGRGGz5jNy2WVQFrhWmagJ+vx/79u1DXl4eiJgDQywWg6oyRwJNY1HdFUVBMMgC56a2p+exzdBNmjQRwt3n80FRFKxbtw6vvfYaNC25gXfjxo24+eab62XC5VqV53k477zzMGnSJJx77rkoLy/H8uXL8cgjj8AwWELDo0eP4r777sM111wDy2Ju57bNUnBwAVVaWoovv/wSsVhMCOhQKISqqirk5uYiHo/D81g0jwceeEAIOg4XEJ7n4f3330e7du2EwNY0DR06dEA0GgUA+P1+9OrVS5ybiq7r2LFjB15//XUEg0ER9srn88E0Tagqc53n2w6uuOIKdOjQQWpSknpIIXUawAdTXddRWlqKxo0bQ9eZN1goFMKIESPEIElEyM/PF1oBwAZRbiLbvn07pk6dikcffRSjR48GETMN8dn8Oeecg1atWolB9Xia1O7duzFz5kz4/X4xSFoWi6jAZ+CqqqJp06bHFVLr16/Hhx9+iJdeegnXXXed0JKApCei67JIGfzZslgUcFVlXnW2zTYsb9++HS+++KIQmBUVFfjb3/4mZvw8P5PnJT3PUgW6YRjo1asXfv7zn+Pyyy/H22+/jebNm+O8886DbduIRqOYMWMGvvnmG3Tp0kWUE2CDOW/Hq666Ch9//DEGDBgAXdcxYsQIXH/99VAUBdOmTcO8efNw5plnYuzYsUK4ca3UtpkH4+7duzFjxgwhaBQlGTdRUdjGbt6nV111Fc4880xxHL9PTNPEyJEj0a1bN2Fa5QI6kUjAMAyoKgv11Lx583r14biui/LycsyZMweKwrxAuabOr8cFn+M4GDJkiPgsta05nscmAbzNXZdtjCZiGlmqJpj6WnKSQ5JTHsuyyHEc2rt3L61fv57Kyspo/fr1tHbtWlq1ahWVlpbS2rVrad26dbRu3Tr6+uuvxaK3W+cUwL2tZs+eTe3btxdODlaKd51t2/T8889T+/bt6fzzz6clS5b8oDOE4zDPNP4d/Nj050w4jkN79uwhInYc349kmiYdOnRIHMevnfod3MGDM3ToUALY3ixd18X/AMQ+LgA0btw4cY1MlJaWUrt27cjn81Fubi699957VFNTQ5WVlXTWWWeRoig0ceJEUZZM8HLt37+fiJhXpV3nqHDnnXfSzJkzhWMGESuLW+f0QMScSfj17TTnA7fOecKpc7Lgfep5zPuT/59av6NHjxIRUVVVFRGxa1ppXonRaJQdnAHPS+7hSi1P6ne4riu+h3/Gz0vdp8bvY8dhzjL8NRGrNz+PezNKTg1k7L7TBKqbqbt1s2GvbsbMZ89UN8smIuzbtw8lJSViBu3UrWl5noenn34aM2fOxObNm8UsmF9DVVVs3rwZBw8exDvvvIOmTZtiwoQJQiNLxXWTcQKJ2N6q1GgTXNPj10+HiMUfNAwD0WgUBw4cwPLly1FZWQld15Gfn49u3bqhZ8+eAOprg4bB1ph4udeuXSu0A65p8fpykxoAFBUVoX379qKu6biuC9M0sXfvXgQCAbRo0QKqyhxMXnjhBfTp0weDBw/OeC43cTkOW6tSFOaswr+LtxOQjP+nqsyEyfvTrIthyI/lx/G+Beo7fahqMrIGvx+8Om2Ff7+u6zh48CA+/PBDbNy4EbW1tWjTpg2Ki4vx85//HNnZ2TAMtv6XTnpdeJumliu1Lbj2y8/h/cMhSjqZcI2bn6+qTKsDfjg+ouTkQwqp04BMgyqPvZbO2rVrccstt+CTTz5BVlaWWBvgg+gLL7yAhx9+GN9++y38fr8YJBWFpYJXFGZOGjp0KH7961/juuuuy7i+cPjwYezatQuuy8xwqWY+22Zed47jIBwOo2PHjmlnM/hANH36dNx1110AgB49eqCyshKHDx9GPB7Hgw8+iD/84Q/CnOjzsfBPjsNi/nGByK+VSCTg87FswbquQ9d1qCrL5aRpGgwj8+ZigHlG5uTkAEiG98kkoI83gBIR/vGPf6BZs2Y455xzoGnJ9blU78dJkyZh586dePLJJxEIsFh9HNd1UVlZid27d8O2mTMMLzcXoorCPAFN00Tfvn2FsOAChENEOHr0KK644gqsXLkS4XAYZ5xxBmKxGHbt2oW+ffvi5ZdfRvPmzY/rmRmPx1FWVgbDMOpNPDyPrXMCTMB4nocePXrA50sGnuXl5wILYG2cnZ2NSCSC7OxsJBIJ+P1+ELFJC8DMp6nnSE5ySHJakEgkhNmIm124uSb1efXq1dSiRQsiYqYn0zTF/hnTNOmrr76iFi1a0OzZsymRSIjreXVmpEQiQW+++Sb17NmTampqjmvaeuGFF6ikpITatGlDLVu2pOLiYsrNzaWWLVtSSUkJtW7dmlq1akV9+/ZNP5WIWFlN06TZs2dT48aNafr06VRWVka2bVMkEqF169bRrFmzqGPHjvTcc8+RaZqiDXidXJft/7Ftm/7+979T586dqU2bNtSvXz969dVXhcmJH+d5Xr3QS+m4rktvvPGG2Aflui6VlpbSzTffTB07dqSbbrqJ1q9ff4wZjihpFhs2bBj99a9/FeasOXPmUDgcFuY/0zRp0qRJNHToUFGX1LZ3XZfmzZtHrVu3ppYtW1Lr1q2pefPmlJubS4WFhdSmTRtq1aoVNW/enFq3bk0bN26sdz94HjMfuq5Le/bsoU6dOtEFF1xAZWVl4hjHceizzz6jK664gnr37i1MhZn4/PPPRV82bdqU2rRpQ3l5eZSfn0+tWrWi4uJiUUa+l82pM+fx8ti2TRMmTKAlS5YQETMb7t27l+bPny/61HVdev311+n1118X50lODaSQOg1w0tZ++LNXZ8NPfaxbt45KSkqIKBkdgP9fU1NDlmXRlClTqKioiGbMmCGO4esAf/vb3wiA2Phq1a0npJP6nUQsxtuwYcPEZ6nPmaisrKSamhpq2bIlTZ8+/bjrEDNnzqSWLVtSdXW1GIz5JmAuqOLxODVq1IiuvfZaeu2112jChAlUUFBAhw8fzliG9Pbj8IgT/fr1IyK2ntOhQwfq2LEjPf7443TppZcSANq1a5fok/S6Dhs2jO6//34iYoPxCy+8QLqu0/79+4VAfeSRR+i8886rd14mePkcx6EOHTrQnDlz0g+pR2pfOY5D06dPp9atW9P+/ftF23Fh6HkeRaNRGjBgAE2aNEmc92O4rkuDBg2ip5566pj2Sye1bdq1a0dPPfUUEbFrrF+/nkpKSur1xVNPPSWuKzl1ONY4Ljnl0LRkZPNYLAYgaY5Kf6gqS2wHJKOgm3Xuwny/1G9/+1uMHz8e06ZNQ7t27dC2bVt06dIFjRs3xsyZMzF16lTccsstYt3pf4O8vDxUVVXh4MGDaNu2rfAuTOfMM8/E999/jy1btghzE19jUhS2djN37lz06dMH8+bNw9VXX40///nPGDx4MCZOnAjKYA1PNSM5Dtuc6nkeZs2ahcmTJ2PFihWwLAuLFy/Gt99+i6lTp+Luu+/GrFmz0KZNG7zzzjvC5MXL4LrM001VVVEXbmokYmt2vF+curUYy7JEnTOV89/BS1sr8jwPpaWluPrqq9GoUSNhkiNKZgL2+XwYPXo0Xn311fTLSSQ/GccazCWnJG7d2g8fHI8nPPh+Jy6c+IZbvp7DB8i7774bEydOxLJly/DFF19A13WcffbZGD58uFhfSl3f+KlRFAVVVVWwLAsFBQVwHJYqJH3NiK/F8FE+YiIAACAASURBVAFe05jrs6KwxXxFUXDgwAGxF8gwDPh8PgwbNgwff/xxxnUNqlszURQWwQFga3aJRAITJkwQbbVr1y506NAB5513HlRVRU5ODnr16oV//etfAJiw4W3Kr2Pbycy7lsU2Wbuui1AoJPa28TqkOizwMv134f2q68msu0eOHEH37t2FsIxEImLDM5B0ned7piSS/w2kkDoN8DyWl+nJJ5/E+++/D6JkSvh0TNOEbbPNr3xG79YtcCfq9jPF65LrRSIRDBs2DEOGDBEaAcAGzLKyMjRt2hRNmzbN6DzwP8XzkhEgEokEVDUZxTsdPvPnglNVmVccd6JYu3YtWrRoAcNg3n1cCMRiMbhucvMuhwt4Luwty8Lhw4dh27ZIl55IJPDxxx+jU6dO0HWWwJAv8CsKczLhgzwRW/TXdR0+n084CxAxbzZNS0YG4f3iusxTU1WZJ9zxJh0nimGwiBQAq5dhGOjYsSPWrFkDRWEROHj+MF1n+6gAtt/tePukJJKfgv/ZnS05KVBV5p7rOA4SiQRc10VtbS2i0egxD9d1cc4556CmpkbMmPkMOxBgSfUMw8D48ePRo0cPjBw5EqZpwrIs6Drzhnv66acxbNgwITz+N7BtG5FIBDk5OcLDjWs3qY9EIoGsrCwASbdyLgC4xhKNRmEYbPOxz+eDZbGQSNzMmQ4XLFxz8fl8KCoqEhqPbdsIBAL49ttvMW7cONTW1iIYDELTNKxZswZt2rQR2gnABISus02ydp1no+exEEpcW+JClYhw4MABhEIhofWkThD+uygK0yyBpOmwR48e+Oijj/DFF18I7dq2bVRVVcHv9+PIkSOYP38+/uM//iP1UhLJT8pPP8WVNEhisRjuuusujB8/HoqSDA3EB1tVTa45cFMSn6lzU1AsFoNt27joootw6NAhDB06FFu2bEHnzp2xbNkylJeXY/Lkyfj0009x6623ZgwsyyktLcXq1avF6507d6K8vBwzZ86EbdvwvOS+nTvvvDPlTIaqqsjKyoJhGCLyBS+rrjMXZNtm7vGpJkxVZWs8Ph8LXcTXer777jvMnz9fmOA2bNiAgwcP4qWXXhKD9llnnSUyAPPr8DbSdR3dunXDL37xC1x55ZVYsGABcnNzMXToUBARqqqqMGPGDOzZswfdunWrJ1QUhWlWgUAAOTk5ePbZZ/H8889D11mMxZycHFx88cVCw/X7/Wjbtq1oB4AJFs9j60plZWVYvXq1cDf3PA/V1dVYunSpyIALMI1p1KhRyM/Ph6ZpQrPjWtUvfvELzJ8/H7feeisefvhh9O3bV2jfCxcuxOzZs9G9e3eMHj1aXDMVx3Gwd+9efPjhh8JV3HVd7NmzB5999pnoD86VV16JFi1aCMELsLbh9fryyy8RCoWgqioOHjwI0zQxb948eB7T9v/5z3+iX79+AP7n5k9JA4IkpzxenbeTk7I7n+PUebilwo/jrsXcZZuI6IsvviBVVemDDz4gIqLq6mrq1KkT/e53v6NwOEydO3cW2V65e3QmHn/8cVJVlQCWgdfn85GiKKRpGgEs0oOiKNSsWbP0UwWJRIIikQjFYjEiYt5wPPpBvC5HEqe2tlZ4k8Xj8Xqei7179xZl4eXhrxVFEe/fdtttx/UiJGJt07NnT1IUhQzDoLfffpuIiA4ePEjFxcWkaRpNnDjxuG0SiUREuWKxmPBAPHz4MNk2S93B+8GyLKquribPYy7jpmmKc5577jlRZlVVRV1CoVC9OgUCAVqxYsUx/c/h7Tp27FhxTuo1xo4dSxUVFWln1WfFihWiHKFQiAKBQL0yGIZBACgcDgsXcyJ2D/IHEVHLli1JVVXKzs6uVw7+8Pv9pGkazZo1S1xDcmogN/OeBtg226F/++23Y8GCBfD7/cI0x7UPr8685DgOWrRogU8++USYoAIBFsRU13V8+OGHuOqqq/DNN9+gpKQElmXhoosuwubNm3HTTTfhlltuQZs2bYRGw5/TqaqqQjweB8CcOvhtaBgsMjlf+8rJyUFBQUHqqQCYFkDEvN54XShFm3ActrHYtm189913yM3NxRlnnCHeV+pMZKqqoqKiQkReON4s3rZt5OTkIBwOQ1Uzr3/xGf13332Hpk2bIi8vD57HHFCef/559OzZEwMHDszYHrz+tm3DcRwRCZyIrUvxcruuC9u28a9//QudO3cGkFxz03WW5gIA9uzZg1AoJNqE14PXm5s3S0pKjttHXp2m43keli9fju3btyMSiaBx48Zo27YtevfuDVVlpmSf79gN27Ztg4hQUVEBRVFQU1MjNpCntrGqsjXCoqIiGAbzKOX3Jb8fKisr4brJCBy8PrxufH0xFArB5/MJE6/kFKBOWElOcVzXpb/85S8EgM4++2x69913623idOv2C9m2LeKo8Vk9jxXnuiyBHQDav3+/iCs3ePBgGjBgABHV19Jqa2szblzl8Ovzc2KxmNg0a9Xt2fkhzYWzdOlSGj16NI0bN45sm20sJmLXe/HFFykYDIqsuql1JmKa4NixY2ndunXi/USCbYrlGgoR01z4Z8fjvvvuIyJWb8dhG6D5a9dlSSO5ZvBDHDlyhH7/+9/TJZdcQp9//rnYl0REVFNTQ1dccQUNHz6ciOrHwzty5AgRJduMtyUnvb/Nug3OqRpnKrzf+XX4taqqqsT9ciIkEmzDLRFrb47nHRtHkYiVzzRZbEHHYfuyiFg7ErE9ckRMUzdNlsAzVYMmSmqBkpOfY1eFJaccfPb5n//5n/jqq69w++2346WXXsL555+PMWPG4LXXXkNFRYVYM+CzUD6D527SfHYLsBlwKBQSn3ft2lWsZdl1a0pZWVn11hxScV0XEydORDgcRs+ePVFUVIRXXnkFhsFcsQ2DedplmqEDbL3DcRxMmTIFY8aMwe7du7FixQqMHTsWiqJg/fr1uO6663Dffffhl7/8Jdq1awfPY04TlmWBiBCPxxEOh9GsWTNcc8016NWrFx5++GFs3LixntMEn9Hzdjweq1evRuvWrXHPPfdg/vz5KC8vR21tLUKhkNAWiZLhe1LxPJbnaeXKlejWrRs+/vhjRKNRXHPNNZg/fz5c18Urr7yCIUOG4Ouvv8bll19eb83Jspgrvucxjfijjz5Cnz590LVrVxQXF+P888/HN998IzQyXhe+FpUJv9+PzZs3izBMALBmzRqMGjUKZ5xxBvr27Ytnn302Y30Apkm5roudO3figgsuQLNmzdCtWzcMGzYMq1atEloi13h5nyoKC62laWzflq7riEaj2LRpE5588knMnz8fO3fuxHfffYdRo0ahffv26NGjBx566CGhRaemopGc5NQTWZJTEq41cPgs0zRNevfdd6lXr16kKApdcskltH379nraSOo6CBELZ+T3+2nXrl3iur1796bbbrtNHENUP/V8Jr7++mtq1KgRvfHGGxSJRGjkyJFUXFxMiUSi3iz4hzSxgwcPkt/vp6eeeoocx6FYLEZnnXUWxWIxatGiBamqWi+UDtdkYrGYKLvneSJ80/Tp0+mMM84gRVFo0KBBtHDhwnrrIvz5eGWybZuqqqrosssuIwDUuHFj+vWvf03l5eVElFzj+yHuuOMOateundC8HnvsMercuTM9/fTTZBiG0Fh5GbjGyZ9t26bDhw9T+/btafjw4VRZWUlffvklKYpCo0ePJqJkCCZen/T7g7Njxw4CQG3btqVNmzYREdHFF19MjRo1omXLltHTTz9Nbdu2pW3btqWdyeBlGjp0KP3sZz+jbdu20bZt26hp06Z0/vnnC42Ol4eItRF/z3VdisViot3y8/PprLPOory8POrZsyddfvnl1LVrV3rjjTfo/vvvp7y8PNqwYcMParuSkw8ppE4DUgfX1AHBsliYnVgsRqWlpfTnP/+ZCgsLRcgdPhA6jiP+f/7558nv99OoUaPo1ltvpXHjxlFxcTF169aNbr31VvHezTffTLt37z6ukPrb3/5Gd999txBklmXRwIED6aWXXhJmNfcHTEqO49C+fftI07R6gmjw4MHUunVrGjduHO3atYuI2KDMhRRR0qEjVYi6LotJV1NTQ4sWLaIJEyZQ9+7dqXfv3vTMM89QWVkZeR5LCXK8QZ1/j+d5tHv3bpo7dy5dcskl1KVLF7r88stp9uzZ9NVXX6WfRkTs+z3Po7Fjx9L9999PlmVRIpGgpUuXkmEY1KlTJ5o7d64wxXIhxsvCj7csi1asWEGKolBZWZnouwULFlCXLl3IdVkcQiLWXo7DHGe4UEhtl0cffZRat25N+/btI9d1qby8nPLz82nNmjWi3W6//Xa68MILWSXS8DyPdu3aRYqi0IIFC4iItf3u3bupVatW9e6NTH3Ey+q6Lo0ZM4Z+/vOfUyQSoYqKCho1ahSVlJTQoUOHxHXuuusumjNnjnAokZwaHN92ITll4AvTqsr2EhmGIRazdV3H3r17MX/+fMyYMQNVVVVo3LgxXJftmYnFYtA0tgHWcRw0adIEw4cPx9dff409e/Zg06ZN6NatG/Lz87F27Vps2rQJpaWlYpE9k4MBwBwFOnTogEgkIpwy2rdvj/3798PzmAOCWedAkQm3zozkuq6IPO44LGp6SUkJpk+fjuLiYsRiMWGq1HW2r4ibFBWlfqRsXs/Bgwdj8uTJWLt2LV588UXMnTsXgwYNwsSJE5GVlVXvnFSsOicOz/PQvHlz/PrXv8bixYuxYsUKnH/++bj33nvRr18/zJ49O/1UEDGX6e3bt6NRo0YwDEPsk7JtG3fffTduvPFGkR3Z85Jhk3j7+f0sbJWqMvf4/Px8qCqL4H7VVVfB5/MhFouJ+nueJ66VWgZFYc4VmzdvxrXXXovCwkJEo1G88847yM/PR58+fYRTRLt27UQEjXQURRFOOvn5+cIs2bJlSzRr1kzcY/F4PGMfOQ7bfG2aJnbs2IGBAwciGAwiLy8P99xzDwKBAPLy8mBZFioqKtCyZUvEYjHk5OQct48kJx+ZjdGSUwo+6Hge24xZXV2NNWvW4Msvv8TixYth2zZ69uyJqVOnol+/fmjbtq04JxQKwbJYxlxVVXHBBRfgsssuE2ssfLAEkikX4nXRFVSVeX5lElSRSASuy7zC+LoEX/fh/wPJ3FLp8O9WVRbxIZFg+aCICEOGDIFlWcLTi6+t8fOAZKw6PshzDz6+YZmIbfatqanBsGHDsHXrVoTDYdEWmeBrKErdmgoXtKZpoqCgACNGjMBHH32UsT14uQC2udi22UZjTdMQDAZRUlKCaDQqNgXzwZuXhYjt2dI0DRs3bkRubi4URYFpstBWdt06IffU5P2ZnZ0Nz2MechzeHvF4HHl5edA0DaFQCC+//DJ69eqFRF3aEtNk+atSz03FcRx8++23olyuy7zvIpEIotEoNC2ZIThTH3FhaxgGdu7cKdZKFUVBNBoVcSi5MPf5WIoVIHN6GsnJiezF0wDTNOHz+bBjxw7cfvvt6NWrF6644gqsWLECzz77LMrKyvDyyy9j9OjRaNOmDYiYa7ZV585sGMwNWFVVBINBRKNR8Tl3qrAsFqVBURSEw2ExMz4eXAj6/SxUEH/P52NhgYBkJIZM8MGRP/jAzbWpUCiEWCwGXWeu6bquC60hEolAVZNOIKrK0sAbBottqGkaXnzxRfTv3x8DBgzApk2bsGnTJtx7771iE3AmVDUZosjzPOzZswd33HEHOnfujFtuuQU+nw+rVq3KGKGBD9JcOPLyAEzTCAaDCIfDcN1kmCa/3y+ienBtyvM85Obmorq6GsFgsJ5QUpRkfqt4PC7qwfuJP3MNrUWLFli0aBE0TcO2bduwcuVKDBo0SAjyQCCAJUuWoF27dsgEFzJciBkG0wq5Qw0XdMfrI0Vhm5xdlznz8H5SVVVMPgyDOdjouo6amhr4/X5UV1cft48kJx+ZRwDJKQX32nviiScwZ84cdOjQAbfeeivat2+P1atXY+3atfA8tieHiJCdnY0xY8aImanf74fPx8IFffDBB5g+fbrQWhJ1+6j4gMJNNIZh4Pnnn0dxcXF6cQCw2fIXX3whBnUiwpYtWxCPxzF16lShXXmeJxIapsKFoM/nw8KFC7F582a4rotDhw6hrKwM06ZNE2U2TRMjR45Eq1atQJSMRMCFmq7r2LNnD1auXInly5dj2bJlCAQCuP766/HUU09h4MCB8DwWzy4WiyEYDGYcBC3LwqZNm4SJb9u2bejbty+efPJJDBkyBMXFxdD1ZADXVDyPaZC6rmPz5s2YMWMGiFgIJFVV8c4776C0tFQIksLCQlx11VXCxMcFgaqqQpN97rnnxL4kv9+PvXv3Ytq0aVBVJqA1TcOIESPQsmVLISS5EHMcB5dffjlmzJiBCRMm4Pvvv0fTpk0xZMgQRCIRHDlyBJ9++inKysrwxhtvsEqkwbVtXdexaNEibNy4EYrCzIkVFRWYMmUK8vLyEIlEMvZRqlCNxWJYtmyZmFjs378fVVVVmDVrFqLRKAKBAL766iv069cPwWCwXj9LTm6kkDpN0DQN+fn5KCkpged5+OCDD7B48WLk5uYiFosJYZNIJHDWWWfh0ksvRZMmTXDkyBEUFRUhFoshHA7Dtm1hXgsGg4jH4+J/bi6LxWIIBAI4cOAAzjjjjPSiAGAD+pYtW7Bp0yZ4HjMRZmVl4cCBA1i1alW9YzMJKa41tGrVCkuWLMGiRYvETH3z5s34/PPPkZ2dLWbiffr0QevWreF5zOSpqswUqSgKxowZgzfffBPV1dW44IILMGfOHAwZMgTR6LHZi0OhUL3XqfTv3x8bN25EkyZNcMMNN+DVV19F06ZN0w87RkABTLhEo1EUFBSgtLQUX3/9Nfx+P2KxGFq0aIGFCxcKE6Zt2zj77LNx2WWX1btWeXk5ioqKEAqF0LZtW7z00kuwbZaSpVGjRgiFQpg1axaICKZpIhQKoUuXLmjdujUA1qYA02h1XcfQoUOxaNEi/PGPf4RhGFiwYAG6desGRVFw5ZVXYunSpZgxYwZ69+4typAK1wTbtGkjzMp+vx+maSI7OxvPPPOMmOwQUcY+0rRkxPe33noLb731FlSVaaqGYeC2224DAITDYcRiMQwePBi2zeIcSk4NZMSJ0wA+Q+bmOf7secnd+3x2zWf0fMYOJKNic9MSf/DBg2s1RMxMyE04msaid/v9/pTSMIiYWcvnY5ECuDaQafab6T0uYPiaSyLBgsMC7Nqp5eHmMtM0xaCnKMmgrXfeeSdatGiB8847D7169YKmsfUpPqBmKn8mxo8fj379+mHQoEEoLi6up5n8GLzuvExcY+CaF9csANYe3ITHTV22zcx9QDIti+uyuIKqmjQHEjHzG78m/65M5eT3RTweh64zEyDX2FatWoWcnBx06tTpuAIhUx8ZBlsLS9V0FEXJ2EepAnj37t0IBlkUDk1jkTP4+iBRMoZiVlYWdF0/ZnIhOXmRQuo0gA826QMuH5z4++mDVfpAATABwIWSpiUdBfix/DUfRH8ILixd14VlWcJseKLw7zRNE57HHDgMw0AkEhFODprGNqtmqgvA6lNeXi40Hj5Ynkj500lv3/TXPwY3wRGxjcZ8UE7vI8dhwWgzlTG1nrzf+WAO1Bf4/Pwfahvel6qaNBGm3iPp90w66X2kqixALr+HAFbOTH3keUzD5pvGiVhgYNdl4ZEMI+lo43lM+/L5fMcIQcnJjRRSpwGps2cuXEyTOVPE4yw3FP9B81k3/+HzH7znsUgGnsccFVJn6FSnseh6cl0jVbs63gDI4dcEkianVDINNvx4PkhpGpt984GOn8M/52Xkn3MNhL/HPweSa1Wq+u/larJt5pGnqkz7CNVF7D4RiJLagOOwKB68jlxL1HVm4uTHeR7TKrgw5n2maUlNkGscvC78M64Buy5zxMjUR7ztgKTAchzmjcevya/77/RRqgDh7Z+pj/hxRCxGo8/HnGpcl7muO04y5iRvN34NIrYWJjn5ObFfkOSkhg8QhsG85WybuSNXVVVh+vTpIGLaER+0VJWl5dA0NmvmAx/ABgZ+fCKRgK7r+Pvf/47y8nIAyfUWVWUz+EyDH8AGLstimWe5IPvoo4/EgJf6yIRpspBAqQOs57G1Nj5w88GKD3yex2bfXHDoejI1hc/HcjUBrL2WLFkiNIgTRdeT3mZZWVnHdSjIBBeKqsqcQQAm9L7//nu88sorAJiW57rMlEeU9JoLBAKib1OFEO9nAJg5cyYqKipg28nMv7qe3FuVCS5QuJA5dOgQPv30U8Tjcagqm5SoKpuoZCJTHxERPvjgA2zduhWex7QfICmsUvuI952qMq9Sfi/w+/njjz8Wghhg9eH3jBRQpw4n/guUnLTwwZeILZj7fD6EQiHU1tZi6dKlUBS2NsEHE03TkJOTA1Vls3U+gwWS7smpg/qyZctQUVEBIDl7JmLu5fx1OpqmwefziWvbto01a9akH3Zc+KBFxBbd+ey7rKwMAEtE6HnMjMTrxwUONy1y4Zh6Ph90S0tLxTEnChfgvN6bNm1KP+S4pA7MABMQfj9LLPjFF1+I9krtB58v6Q7PtQpVZZl7NY1NSviA/tZbbyEej8MwDOH8wSclx+uj1EEfAGpqarBlyxYEAgHoOpvsuG7mCOjA8fuI5+riQv14faRpyfVDgN1Tqf3xz3/+U7QZrwe/P7m2JTn5kdON0wD+I1dVth7AIUq6+qYex0n9jMMHESBpmuMzeyCpSfHn9POPx3935suvz4UNL4eiJM2V/DU/lg+qqfXm5U0VVqnHnAi8Dvy7/p1zOan1SUfTkq7mQP2y/VD7pfZZKj90DsCuz+8RICn4+WvDOLE1u/Q+AjKXKVMfpbYDPz/9+zNdK1P7SU5Oju1diUQikUgaCFJISSQSiaTBIoWURCKRSBosUkhJJBKJpMEihZREIpFIGixSSEkkEomkwSKFlEQikUgaLFJISSQSiaTBIoWURCKRSBosUkhJJBKJpMEihZREIpFIGixSSEkkEomkwSKFlEQikUgaLFJISSQSiaTB8sOx+iUNBtd16lIUKFBUFZZl4/vv94PA0zXwZ6p7/Dj79x9ANG5h997vYVk2NC2Z0TaJAiIPmsaSHwKAprE8U4qigcjD0eoYvj9wGMHwduiGAVVhaTIUhWW1dd30fEUKAIKqKvDIg65qMBMmamqj2L5rN8gjqABIUaBpLK24qqpwHBeaxuZVmfI8ERGqaqL4Zuu3yMrKwtGqKuTm5GTMLaQoyczCisIS+Nm2BU1jWYWrauLY9M23yM7Ogue5UDUVjs2TQqa3E6uPotT9RwSoCqqqI9ixYxd0nw/xRByaqsFnGLAdp+6cVFiaCpYfyYPnEQxDw+69+xGPW9i1Zx8cx4WuafBcD6qmgQCoigJ4gAsPRDy7sYFEIgG/3wdFYbmVonEH+/YfQsLyYBgnlsZCURTxHbZloaLiCCqOVGHH7j0AAeS6UHUNRCylRyYUhd0rAEv97jguDlVUY//BCuzeewCO40BRWNoQzyM4Dks0qar8vPp4HkuE6HkujlbHsH3nXmiagkQiXpfHqy4zLwjkZSoTQYECSvmN/NjrTO/x1woAVVHRtGkRAgE/XNeDqvKUI5m+P73fJT+GTB9/kuA4FkvWF8yC63qYv+ANzH5hbt3PRAFTihUALqA49U8+Do7jYO/evWjWrDl03WBCCqkDGFe0Ca7riCyqiqLAdV3k5eWhpqYG1dXVKCgogKLy4yxkZ+cgGo1BVVUE/CzJHoMLGQeOzdKiRyIR5Ofn47vvvkNRURHy8vIQj8eTQs5jKcqJkkkKM922qgYcPLgfTZo0gaIoiEajCIfDGY81Ey4cx0FWVhZs20YsFkNBQQEikQiys7NRXl6OwsJCRKI18PnYXM5xPITDYei6ATNh1V2Jt5EH1zHBB+OamhoQEQoKCnD48GFomoa8vDxYlgXXAwwjmdcLYIKNZ9LlWXUTZgxZoRCOHKlAfn4BAJb3yvNQJ7QdkKfAMAx45CJhJqBpGsLhMHhW4UQigXA4jNLSUpx99tksz5Jy7OCfCVUBPNcVbeO6LiorK2FZFoqKigCw5IS1tbXIzStMO5tlFvY8ljTT81gmZlVVcfToUeTk5MCyLLRu3RoVFRWijxSFpag3TRM5OTlpV2T5vnj7VFRUoKSkBLWRoyA48PuCsCwLpmnBMIy63Gn1jUUKuWC/ExJPP/4603vJ15Gj1bjgwvPw5z//CSwZKM9jRikX8MDKIo1X/y5SkzpJcFwPwVAWHMfBp5+uQG1tBAsWLACg1AkqFR4UKIoLBScmpPhAp6oafD4d8bgFTU1NZJcUUo5ji1Tdts3Sk1dXVyM/Pw81NbUIBoN1gx/V/Ug1AHVZWb3U2WNSSPkMFdFoFFlZWUjNwGpZFhRFQSDgR21tBD5/WAzefHadSfB45CIQMGCaJgCWOI9ny62PAlVhWWttm9WLiGV3TeJBVXW4ng1V5ckQWXJH13GhqvynkxRSmkqwLBN+vx/RaLRe9l9eP03T4JGCDEqC0B6EMIYFhZhmpShMk2QJJlk7aZoG16lLI6948Pl1uC6bfPh8PpGJl6ezj8ViIKIfTXbIIc+BpjEhGI1G4ff74bouwuEgolGWQt5xHPj9Bmzn2MGXTyh4NmheLi5AFYVpHHzSQZSa0FCHbR97H3MNJRaLIy8vB/G4Cd0AAgE/IpEIAoEAHCc127AKUF3ZFIJChKSk4f//2GtkeC/5etXnn2HL1s0wDB2maULTmCYo+WmQLXmSoBssU+nyFZ9j8YdL8KuRv4JLHlzPg+d5cIg9ey7B83BCDy5siAiqaiA7O8SukfZQFAV+v79uFs9miUSEFi0awzTZAMgHV55aPJFI1A1KTLCkPwIBNojyWbbPl0yNHgqF6jShGMLhsGgDx2HaHBEbmNMfqqoiFkvANG1omgHH8WDbLrxjOr52KgAAIABJREFU6s5MQo7jQNd1+P0G4vE4QqEgiAiVlZVwXRIzf03ThKBxHAeel/n7LcuCrrOBqnHjxvA8JlgTiQRycnLgeR6OHj0KynCuqrKBjQ/SzAzGTJ2e58G2bQQCAfEMJFOs+3w+KIoGXffDcZhJkoilsdd1HcFgEK7rIisrXCfo09sj80PTdOzfvx+qyvqfly0eN+E4DvLysmHbNnJzWf+nPyzLguexvuXCkU8KPM8DAESjUXBzrmEY8Pl8dcc5x1zP8zzU1tZCUVQUFTVCbW20bhLCJhHs/mCCUFWZxum5SJ7Pfxuuwh5e3fOJvs70nqcgGAzCcRwkEhYCAdbmkp8O2ZonCwRs/uZf2PjV1/jLXx5EPG5C0w0wTQpQ6sx97O9EYZqEpmlYunQpFEXBOYPPTfk8qUl5nodEIoFgMABV1RGPx7FtWzkMw0B+fi6qqiqx7NNlOHSoHIGAH7/4xQg0b94C0WgUhs4G1dRrxmIJRKNRlJauxq5de9CjRw90794doVAI0WgUqqpi584d+Oyzz3HNtTegoKAApmlC1/V6g3kqrucgHA4hEmEDH9eQMh1r2zZ8Ph2O4+Lo0WoEAn7s3LkL69evx65du8DWbVQEgj60bdsaZ599NsLhbFiWBcNngIRyxttIge7TUFl5BKtXr8bevXvheZ7QHhRFwcCBA9C1azckEmztKxVFURCLxRAMBqAoGrZu3Yqa2ip079oFeXk5WLLkY2zbth2e56F797PRs+fZ8Pt9iMcSop7xeBxMOJiYO3cuunfvht69+8DnMxCJROtMYD7U1wRECY55TWSjffszsWjRYgwZMgS2bWPfvn348MMPEQ6HUVlZiWuvvbZuglHffMkhIqxatQotW7ZEUVERfD4famtrsXz5cny+YgUKCgvRv38/9OrVG8FgAPF4XAz6PD18Krm5uXAcB1VVERgGm1it+GwFtm//DiNHXl03gWH3q6ZpdVpUsv/Z7+SnxEM8kYBpmggGA3AcD4rCNGHJT4NckzoJIADfbPkWf530GB555BEEAgFohg+eCyQtaSpIARQiqDjWUSATmqYgHmcLzjNmPIMd27Zh6pPTU45gP2jXdaDrGmzbRjAYxJ49ezBt2jT84x//QLOiIjw2ZQrefust/OPvL6P1me2w87tv0aNnL7zx1tvIyckGeakDQ9Lcd+stN+GdhQuRl5eHqqNH8dvx4zFhwgQEAgGYpok333wTd91xB9as/wpnnXUWYrEYdJ05NmQyp+i6BstmgszzvDoTXebBwjIdBAJsUGzWLA9z587Hb37zG7i2jeKWLcX3KCphz45tuOCSS/Doo5Nw5plnIh5PpAx2/NnDofL9+N3vxuPjpUvRvkMHHDxwAE2bNRNa0u5du3DzLbfgP++9D0lzIYML1draWkyePBnPPfssAuEArv3VrzBmzE0YMeJSaBrTivbs3I1Zs2fj2muvRTTCzG4eubAdphmXl5ejZ8+eCAeDeGzKFFx88cXIzmZaj+ehzqR7rOBOR1Ec/Md/jMLa0lJs/Oor7Ny5E5dcdBEaFxWJdcTKigqs27ABWr2JSBJN09CtWzeMGzcO48aNg+M4uO+++zBn1iy0Pess1NbW4tD+/bjtjjtw//1/hK4zzV4ImTS4JsbNh0ePHsX8117Fe++9g8WLF8M0TYRCWbCsujVDUlHfYPTj9f53UIiwetVyfPnlP/Hgg3+BqirwPLkm9VMiNakGBlFybSQejyMQCKD80GG8/fa7eOKJJ+ERQdE0OLYHaCr7CaT/7rgNPvkG/P4AnnrqKUydMgWBUAj+gAEiZhYyDB+IgMojR/D5ylXQdR2rVq36f+ydebxV8/7/n2va8z6nczqdpqNB800DTYq4GlQSJUNduqLUdVFIdVGIqAwRKmNKbkqhzCokFUJxCddQukrTOZ1hj2v+/fE5a5865fu9vnLL/e3X47Fk77P3Gvb6rPf4er/fmRCNbYvcgCS5WJbFY489xtbvv2fq1Kn8+K9/ce2111KnsJA333qLE09sz9dff8XdM+7mtttu47777qt2LgLff/89e/buZeXq1TRr1owNGzZwx5QpVFRUcOutt6KqKpIEyDJ+vz+Tp/IUlJfPmDNnDo5jEwyGMoLJ7/dXWuQBTNPCMAxOOeUU2rRpg2Amuvj9VWHG7dv3MvPee7n77rvp2rUr9evXR9MUvJzUp59u4uEHH2TunDlMnzFDyJ3qvznw5JNPkkqleG/9epo2bcoPP/zA448/TmFhIcOHD2fTpk1MmjSJRo2bcNFFQzPX4ThORimuXr2aJUuW8NDs2USiIZ6eP59hw4Zxww03MHr0X0in0zz99DM89dRT9O/fn2BAEENs00IQBSpzW4ZB74EDmXr77axauZL+Z59N3769cRxxXYIh6AlUCUGYOdiTWrnyTdatXcvcRx8lmUxy+WWXcdbZZzNjxgwURWb//lJmPfAAAwcO5OVX3kCWRRjYMw5UVRWepyZIOel0mi+++IKnnnySu2fOZPjwS3FdWLVqFWPHjOGMM86gV6+eletfsBJN0yQcDjJz5gM8Mncujm2TV7MmpmnihVbTqQSlZSV07NiR1q3b8PBDczIh6OpKwcl4kUcGsiSeoQO9+8N57ln835FVUscgTFOw6KLRKGVlZQwb9meeevoZdu3eS8OG9bFtCTQRa/eeN9djbB3GL7Zth127djFq1Ai2bNnCp59+yvwF82jRoin795dSo0Yud999HyUlJdx37/2UlpaSnx9kz544QCUBwMHvj1JcXMxzzz3H3Llz6dOnD/F4nJ0//UTXrp1o27Yt8Xic1q1b0++ss5gzZy6SJHE4X33z5s0MGDCAVq1aIUkSZ511FgUFBZxzzjkUFBRw551TSad1DvtloKKiImNR33777aRiMRocfzxe/sgwDPx+P8lkMkPM6NChA7quE4lESKfTGat80aJFtGrVipEjR5JMxgiHo+h6GllWSVbE6dChA0/Mm0ffvmcRi8WIhKOHPa2NGzeyfPmLBAIBkskkLVs2Y8aMGfTt25fx48fTs2cPLOs2/v7MIoYOvRhZFnmxUChERUUFiqLw0UcfMW7cOIYNG8qu3XtQZZg48W9ceeWVJBJJfD4fY8dezYsvvkhubi7lZTHy8qIYpsif2XYVAaVTp04sWjSfwYOHMnr0aFq3bs3tt99Oly5d8Qd8qCokEunKz0tUV1I/bN9O+5NOokePHsRiMb768kvumjYNv9+P36+hqhoXDRnC/AUL2LVrF8cdd1zm+K7rkkwmCQREnsyyhKHz1VdfUVBYyBVXjCSZFF5g//79WbZsGd988w09evQgndYJhUL4/RplZRXYts2YMWP48ccfeemll3jsscc44YQTkGWZQCDAjBnTefudt3juuecIBAIE/CHKysrx+z3v7kClcaB3k8XvAVkldYzBdQX5wPOmZs+ezbx5T+HzBWnUqJBkKoXfr2GZFpIi6kEOxcGWnKap5OSEUVUfM2bczcqVbzJyxCgGDOjH1ddcjcdaM9LpyiR/lL17Y/j9fnTdQNShpMnLiyJJQjmapkksFiMQ8DN48GB0Xcc0TSLhEJap4zgOZWVlyLLEIWVSgE/T2LN7N7IsEwoFiMVidO7cmRdeeIHrr72W2rVF3YlymLwEQGFhAYlEimHDhoFrcfuUqcyb9yRt2rSrDBWJXITrCnZZOOwnldIJBAIkEkk0TZASTNOkdu3aOK5gMDqOSyqVxrZtHMckHA4hSbB9+3ZUVSUQCOC4zmFzG/F4nO3bt1NUVJ9oNEp5eQXJZBJd1wVNOzeXNm3agCQo/CDCYZZloSgKhYVRFFnm22+/JZHQqV27Nnv3FlNRXk5xcTH5+TUxDIPy8jiu6xKLiXsUj6eF9+QIgoAXwff5fFRUJJk370k+/vgTXnzhBUaPHk3AH6Dx8cfTqlUr+vfvT4cOHZAOoaW7BIMBSktL0XVxPxs3aYKup0gmk5imhmVZQhH5/QSDQWRZzpBHHEfQ9VOpVGaPPp+PvLw8QqEQsVg5qiqYmD6fxv79+/H5xOtoNEIsFieVEoQNcT0uU6dO5bTTTuOO22+nV+/eDBo0iDp16hDNieLlsBzbxbLsAxTUwXBxqz8evwrZbMlvj0OftCyOKixLFO2apsmAAQPo168fpmmRn5fLnj17CQYDxBIpRO1OpQV80EPnWcVVm+NI+HxhHEciEonSt+9ZvPfee3z8ySeceeaZbN68mcLCQlK6TjAYxDQtEokEliWsYtMUAqC0NEYwGKJ79+48+fjjWJZFOq3To0cPevToQUFBPpbtEInm8szTT9O2bVucwxZUwoknncRrr71GaWkpqZRO7dq1KC0tpVOnTlwzdiwTxo1j/vwF2F5uoRqKi/cTDAaoXTuHS4YN56KhQ7nvnvuwLBvBDANBg4dQKIxtywQCQQxDKCLHccjLy8N1XS644AI++fhjbrnlVsrKKioVp59wOIwsK3z44YdceOGF1KtXj7y8HH6OvdW6dWvOPfdctm37IaPohgwZQt26dSksLOSHH37g+uuvp/UJJ5CTE8XLm3khzO++28lJHTow/4kneOyxx3j++ed58sknaXz88Tz77LMYhoHP5+Omm27C0HXy86OVnmGAA70DT3CqqorrivvXsmVL7rn3Xv7xj38we85siorq88Ybr7Nhw/rK7x66nXbaKWzbto1Ro0ZRt24h48aNY+rUuyoVTRCA8ePGcWafPhQUFFQqdpGPkSSJ8vJyZFkmPz+f2Q89xKWXXsqGDRvw+/289tqb5ORE8Pl8LFv2PGvffpv69YsIBsU90jSNSET83TRNcnNDKIrCgAEDmDN3LitWrODPl1xCaWkptu2FrTU0TTD7qpRH1cPheC+P4OZKh1/fWRw5ZIkTRxsuYsEf8FLXDR599FHatWtP69atCYbCxBIWqk+EThzHQVIrC1xxQXIzMkpyJZTKOhoPntLTNA3bNlFVDcPQKa/Yz5tvvsFTT82nRo08mjVpwtQ7p6MoXsGsRCCgkU4biFodYfnv2rWb2269lc+/+II33niD3NxcwCat66xb9x4TJ06gfbv2PP30fBJJ/YDaK+/pBte1uOuuO1ix4iWuvHI0l112ObIsoaqCDr506TJmzXqAbVu38ulnW6hXr15GGMmyjKoqpFJpIpEIiUQCgFdeeZWBA8/Btiu7WTggyxI+n7gGIbTFDyV+B6FsJMlh7dr13H/fffy0e7eoJ3IcFFkmEPKjagp9+/blqquuRlU1opEcqp4az85z+e7br7hx4kT++e23BAN+LNsmFAzx+BOP0axZc8aOvRYjnebGSZNp2rR5xpuyLEGF9/kkEgmD5cuX8/hjj2Hoac4bPIjevXszZsxYiouLsS2LcCjC/bPup1OnDqhKEE1TSOsGqiY8mL1799KmVSvufeAB/vznPyPLYBjC+FEUF89ukOUq0ofrSlBt3TiOxT+//orZs2fz/oYNNGvenM8+/RTTFDR4RVUZOHAgd901Dd2o8gxBrLlUKkU0GuG1115nx45/kUik2LxpE9/885906NiR+x94gAcffJCFCxYw7NJL+ctfRhEIhDKhQW8/iiKTTuv4/Rq27aIoErbtMnfOHF56+WVUWUbRNFasWI5hmOTm5pJIpCrPpfKaXAlXcnEkRzwvRwiS6/LRurV8tPFDptx+K5IkjAQRQvUUPpX/SmT9gl+OrJI6irBMA1wHRfHhuC6KqmA5MOvB2dStX8T5F5xLcUkFkqQiSYcynTy4lc+DhHj+DhY1ApomwjPC8g5TVlZKJBokkYize/cezjtvMBdccAHjb5iIooiuBeXlMQoLo2zduou6dWvjOOC6acrLk8KSlsTDaJom0WiEVErkeXbs2EHzZi1QFFEvVXXuVWdmmAaBkIpluVRUVODVx3gUdEVRiMfjLFq0iBHDRxAOi4JeDyKkJ5SpbdsiNFVWQjgcIhoNsm9fKZFwDolEglAohGmayLKK65rs319Bfn4N/H6RO/L5RMGraQlm4LfffksymSAQCOL3+2nWrJlQbq7IIWma7wAP0bsmF9NK4zpQWlrC3n17qVVQSFHRcbiIrg3hcATLtLFtUQzsOA4ew1DTNOLxOKGQ6M4hiAcyiWScUFB0kNi0aRPBYJDWrVsjSaLINp1OA2CaFjk5UeJxUbD73XffUadOHQKBAJGIYLuJMJyF4wrP2HVA03yV9+hQASrLLoYpOn8YhsGnn37Ku+++S05ODqeeeionnngihmGIHF7aQlEEkcGjjsuyKNY++N4JA8I0RTcKXddJJBIUFBRkwtyGIfJrYr0J8k4ymaRGDeERi1yXqMf78ccfueKKETRtdjx33XUXoWAYx3FRVQ3L8rpLVME5ggoKQHYdPly/no82vs+U2ydXKilh0B3wqQNfZPELkVVSRxGuY2PoOn5/ENtxcYBnFi1B8wfodeaZGKYBkkogGMapJFP8bzickhLC0IdhGJWWqIIkuTiuiaKI3npffvkVFRUVdD35FGRZIpVK4/cHK7+rkU4L6zmRiKGqKrKM6GdnWYDIhSiKwmuvvUH//v1xXUjEBWnB65Bw4Jm5EtiuCBcGgwE0TcPQU7gobNz4ATk5UVq1ao2Ei3pAdwhx7uL/ZVkiFAoQj1fW1tg6lqUjSRLFxft5/fXXuejCIQQCQVzXRtOClTkQH6apIxwJCcMw8fl8OK6w4G3bxudTkSSJLVu+RJYVGjdujKb6K/MmJl5HjSq4KIpMMpnA71dJJkVbn0QiwXvvvUt5eRmBQJhBgwZhGCauK8Jxti1CqrYtGHGOY6JpomhXeI2CWv/RRx/z/fffIkkKnTt3pmHDBpim8MAEJGIx0dJJkiRcV8eyRIGs44gQaDxewXvvvUdZWQl16talZ89e2JZYG06mTKDqmhzHBEkcQ9eFAtc0lbfffoedO3eiqiq9e/ciGIzg04KAaGMlji+MB59PIZkUv7nIA5rEYnFCoSBLly7DcWyaN2/BaaedQmlpBaqqVv4OwrtTFFH6kJMToqwshizL+Hx+XNfBNC1++ulffPzxJkrLSujVqydF9RuSSqUIh0NA9Xv0Wygp+HD9e8KTmnIzkvwzSspzpLL4xTh8cD2L/wgkSUHzBUAWQmrFildAkunUqRM+n4/i/eXUL6pHeXmcwM8QCP4dBAIaFRVxfD4fNWuGKC1NE4/HCAQ1Skv3U1S/LkuWLAHHofupp5NMJolGo6Qr+9Mlk6LVz/79+6lRI4xh2Oi6KGoVQlJYxABTp07lrLPOwrYdQiFBC6/ep07AQVUU8mrkkkwmSeg6XneJV15+Bb/fz5QprTEMF8sVNU2OU9W0tkaNMBUVKcrKYtSsmUtxcRmy7KL5ZKLRKGvWrOVvf/sbvXr2pk4dUatUUVFBJBJB18X1CA/CJTc3F9u2SesWOTkRTNMmFivH5/OxZs0acnJyad26NYZukUymUNXD3wtd13nmmWd45JFHKCoqYvLkybz++us8NGsWrm0TikS4//77WbVqNV5eTHgiYSQJ9u8vpaiokHfeWc9dd93F999/z5133sEf//hHhg4dSjKZxDIMTmjblilTptC7dw/Ky0VRq2laFBbWJJlME48nyc3N5aabJvLmm2/Stm1b5s+fz9ixk3l+ybOoAT+SDCNHXsFtt07Bsry6nsNj8ODBpFIpFi9ezLJly5g4bhxIEnkFBTz84IO89c67yLIwdsS/QvGGw0FisQR16kSZNu1B/v73v5Ofn8fixc8yc+b9zJ49m0R5ObXr1uWqa65h9OhR6LpRmRcVnq/IM2ns2VPCTz/9xI033sj27dsZNmwYgwcPpmPHk8EyQHKYXrMm72/4kBo1apD1Xv57kPWkjiJc18U0TDS/j9deX8k333zHhUOGoKgaiubHtB0c18WnaTjWv1eg+3OelCzLLFq0iKm3304wFEJVJGzHIJlO4ff5SSSS2JZFQc1C/IEAG95/H8MQVnSV5yJTUrKPfv36YVsiT2U7DqoiYdk2fp+Pkv1lRCMRVM1HixatePbZRTiZiuOqM1u27DmmT5uKYej4AwFc28GyLZAkEvEEkiwRCocxdJN3332P2rXr4LqiTkuEghz8fh9nnNGDPbt349M0JNkhnRa9AGPxJBXl5dSqVYihm0y65RbOP/9CFEWpFMgOtu0iSS5z5szhsUcfRdNkUrqOpijIqjhGOplClhWCwSDt23fgiSefxHVBkuSDrgdcHpz1AE88+QSjR48mnU7zzjvvsGvXLiZNmkS7du34/vvvuWvqVM6/4EKuH3c9hiGo2aFQkERCFCp/8MEHjBgxgrPOOovWrVvx9NNPo0gSJ3ftyl+uvJKysjKefvpptm/fzuLFi/EeX9G9XXSJlySJK6/8K9u2bWPIkCGsX7+ekpISKsrKuHPaHdSvX8RHH2/k/pkPMHXqnZx++mlUpsc48Jp27vyRQQPPpnOXLhQU5PPmytXUrl2bCy64gNNPP529e/fy0EMPoSgKjz06D5HzFOQJVRX5P9d1ePjh2bz44osMGDCAn3b+i3XrNxANh7njzjtp2rQpy5YtY+rUqSxdupSTTz4541UKwyJOJBJBlmXOPPNMmh5/PH844QQWLlxIwO+nfr16TLplEjXycnhk7lzSaZN77rkH23YQP03Wk/q9I+tJHUVIkoSDxJ49Jbz//odMmHgjhil6w3kCORzyUVYeIxw8sJP4L4OiKCSTSTp37sypp53Gxg8+4PkXllMRK0XX04RCYZ59djE//vgjY8dch98vGomCUKTxeJzc3FxcV3gdF154Ic+/sIxu3bpy5ZVXUl5eis8nuplPnnwrs2fPJplIUbt2nUzYsDr69evLvTOmUq9RQ6bcdhvhUAjLtqmIxZj35JPUzM/noiFDQFIyISwQhbqeEDQMkzFjxnDPjBlEcnKYcfddaJpMeXk5P/64kwkTJjD97rtp1LAx0ahoaeQ1Wo1EIsTj5YTDAYYNG8Zrr7yC5Vpcd911FBUVUVpaQm5uLsuXryAvL5/TTjuNmvm1iMfjRCLRalcj8NHHH7Ns2TJatmxJIODniy++oEmTJvTv35/CwlyaNGlCvXr1uPPOuxh5xShkWYwI8a4tHPbz2Wef0b17d+6//z5KSkqRZZkHH3yQmydNwrIsGjZsyIwZM+jevTvJZDKTw3IcwRT0+xW+/vo7XnzxRVaufJMGDRoyZMgQOnbsyJgxY+jc+WRMy+C8885j10+7mT17Nh06dCAYrOqR6OHtt9/GFwjw4EMPYZomkqyy7fvvufjii9E0maKiIi6//HLOHziQ/dPupX79+hljxnFEG61oNMTChQuZNGkSQ4eez759pZx33iB69erFSSedRDAYZOTIkSxevJhNmzZx8sknI0miUNuyHHJyckgmk2zZsoXCWrWY+cADhMMaF198MX369GHBwoWoqoxp6dw2ZQq9ep7J7t27ycvLp3rrqSx+n8j6xP9BuK5oWuoJFMeFjzdtZtbDsxl95ZXopontOFDpuQSDAVJpi9zcwwvFfxeu65KTk0PTpo158MEHufSyy7j44ovZvn07Xbt25Q9/+AO1atWisKCA9u3b06ZNm8oEuOjRJ0J/IjQmyzKTJ/+NWbNmsW3bNh5++GHq1q3LCSeckLGCmzdvzoknnZhJ3B8O4WCQl19+mVO6dmX6tGkUFxfTskULTu9+KjnRKA0aNOCkE0+kU6dOhCp7uVmWaJ7qWeuKojBwYH8effxxGjRowMMPPUxeXh4nn3wyRUVFJMrLadu2La1ataJWrVpEo4JAEImE0HVdtGxyJWrUqMGChQvp3bs3Tz31FJ9//jndunWlefPm1K5dm/z8fE444QTq1atHKBT62dDYvn37aNy4MY4jcm0DBw6gqKgIRVFIJNIYhiEULsJwCAQ0VFUhFosjyzL79pVSun8/DRo0wHFcIpEInTt3pnHjxkiSRE5ODnrlOI78/HyiUVEf5J1PMBhA103Ky0uxDYOCglpEo1GCwQCnnnoqhYWFOI6DpgrCSSAQIB6PZ8Ks1ZFIJKhVUIjrQjgUZtglf6Z5i1YIBqaJqmjUrFkAkiDIuO7BfRL9fj+7d+8jEYuRl1eDVMogEAgwcuRIatWqhc/nI5FIoKoqjRs3rsx5CtKM54Xpuk4oFOT999+nZs2aSJJEOu2Qn59Pu3bt8PJ5mibylrZtU69e3cowdBb/DTj805bFEUd5eTkgChptW3R9TiTTvPzqG9wwfgKq5iMcCuK4Lg6C3CDCNwqm+e+F+n4OnmKUJBW/38+ECeNZvnw5M6ZN4/LLL0fXdRRFwXa9gXKiXZBtC/aZF34xTXHeqZTFSSeexPLly6lduzZdu3blnXfeIRqNIstihpFhiA7dPyfQFVUlJzeXu++dxrXXjWHQwIE8MGsWxftLCQQEcQBJoqSkRLSCkryBgOL/Y7EYiqKg6w5t2pzAo48+SvfTunPB4MGUlJSgqiqBiJgVZVmiWPbA31OWxegLEESJmjVrMmXKLYwbN47HH3+cv/71KhRFhPm8kJrPJ1opefm36qhXrx7Tp09HkgQzcdCg85kwYQKCuZdGVVWuvPJKahcW4vf7sSwRknIch1AoSI0aNTiuQQOWLFnCjh078fl8NGvWjEceeYTcXKEcXRfmzZtHSUkJuq5To0YE1xWzqESIS6JJk2Yc16gRL774IqoqOoo/88yT9O/fH1VVkRWV8vJynl4wn6FDh3Ig5ftANGrUmA1r3+Obf35LRUWcjh1P4PrrxyEho6k+FEXluSVLadykCQUFBRkPyLtPoVCA/Px8mrVowRtvvInrir8PHDiQYcOGZoy2zz77jPXr1+P3+6lXryayLBh8Xr2TbTsMGDCADz78kIqKCjRNI5lMMn/+ExiGN9YlwAsvvEBR/frEYvGDlGUWv28cXoJkccSRm5ubEW6uK7ogPDV/AcMvH0k8mUbR/JTFEshKFdVccp2ZdNwiAAAgAElEQVTM9msgBKI3VVaw2QoKCnh2yRKaNWvGn/70Jz7++GN8v4Cc4Vm7EydO5IknnmDunDlMnjy5UnDWQFVE3zbDOLxAd5FQfX72lyXp2OUUNm7azJ7iEoZfPoIvvvoa3bJBUcjLz6v+VUD8nh6t2rKEd3XJxZdw1TXXcP755zP74YdxK5Xrv4vyctECafHixdSsWZMBAwbw+muvoWlihIRlif54HsW6OsaOHct7777LJZdcQjgcxra98REmoVCInj16gONw1TXXVBoNwiDQNA1dF8MD+/c/i06dOjHw3HMpLS1FURRq165FeXkSVVUYPWoU991zDxMmjCcUClYWWPszikGWZfLycrnjjjtYvnw5gwYNwudT2bVrP5Ik6qReeuklepxxBs2aNefiiy/OKOHq6NGjJ+NvvJHzBw+muHgfO3aUEImESSaT7Nixg5M7d2bjxo3MmjWLcDiMYI8KA8B1XZLJNK7rcN999/HJxx9zyimnYBiCjCNJgoI/Z84cLh8+nHPPPZfBg88jFjMwTVG07Hl7hmHQqlUzzj77bM4++2yWLFlMOBwgFhO1UIoicdlllzF92jSuvuYaNE2UW2Tx34EsceI/BMuqogubpsnMmTNp/of2tOvYJZNXUFURNlEU5TCK6d+zJw5HnDgwEe26ou5EliGVLsfnC/DOO2s4f+AgRowezV13Tj/gm4c7pjgvRZEpLdtPNBolmYwT8GtcNORPbP5kMx9v2kRhYS0kVBKJxAHsvqozS6WT5BfkUFxcRs2aNdi1ay916hRy553TePLxxxl95ZVce+21QgnphwocwxC9+TyLWbDAXPaX7iccDtOndx++/Ppr1r23nnr16ld+63DX41ZukJ8fZNfu/eTl5VFRUcamTZsYefkIrh4zluHDh6PIWmXNlcgbHvxLuwSDKvF4iuLiYurWrQu4+Hx+TNMgkUiyatUqzjnnHEAYCp6XKjytODVr5hCLpYlGA2zZ8g0tWzYnlUqhqoKqblkWK1eupHPnzuTl5WHbdsbr1DQxgsP7XEFBmH374nzxxRd07Hgiubl+YjETwzDZ8uUX/PDDNvr1PYv9+0upW7cOluWJgaprcl2HUCjAd99tpaioPrYtcoE+n0YikWTOnDkMG3YJkYjIGSpK1bwxL6QdiYSIx5NomsymTZ/RseNJGe9a13U++eQTHMehQ4cOKIqoz/NCkKKIXHjOuq6Tlxdh9+4SLEsnHM6hsDCH0tIUmqbw1PwnOemkk2japDn5+XkkEikOJbdkiRO/R2SV1H8IjiNqiWzb5oUXXsA0TfoNGAyaH0NPYjkyNXIjxGLJI66kvPyNZYkptWKCaBp/QMWyRAeKiooKLMsi76Ax4Ic7ZlVRpuYT9TNe772cnAhbt/6Lhg2LSCVNgsEQ6bRo1CpQdWayIqFbBqLo0sLvF0MQ/X5VFOJGwkKpu6BVG2sBVYrXNE1UVUGSZNJ6glBIKK5UKs2PP+6gWdNmOJmf8nDXU6WkUmlReCrqbIKkUilMU3RqCAaDWKboZye6N1QXgKL3XyCgYZpezZNNMpkiEgkjSTK2bZBKGYTDkYwXZVli3pTrWiSTOoGAmD2lKArJZBpNU9B10c8uHheFya7rDQF0K69dwjAsIpEwsZiYG2XbggYuSaLTeSgUoKIiTiikkUrr5ESDlQoxRCplUvXbVL8mQf9Pp9MZr8YzpgoLoxQXxxCDLauUlGWJ38zvl0mnq3JmkUiQsrIYfr/wSiVJFBM7jsgxOo7wBBVFFA/7fIL1GImESaeFRx4IBDLeqaoKL1lRJOKJGKFgAE3zY5o2rsth7lFWSf0ecbinNovfAJIkCSvU7+cfn2+hT9+zQJJwHYlYTCcSClBWFkNVVI7wc3SQhSvL8gFWvEMwGCaVStOwQV1q5Nas/tWfhSSJbgI+zU88nkSSFBIJnUaNGlBRnkJRPAry4S/GtB1cJBzXRdU0DNPC5w+gqAGiOTmEI1FMS0yTPdwevPyQEMhCMIZDYWzbxTRtAgEf9esdx//UqaM6auTmo6dF3ZJhWASDYaLRHAL+ED4tWKnoRWumwyEYDLBvXwmKIqb4Oo5LzZo1sSzRRcG2IScnB9cVha6WJTo/pNNpdN2ibt1cRJ5KMNu8kJdQnGk0TXTGCIfFiHRBPEji84mpyYYhFF46LT4rBL64/vLyGOFwiGTSxO/zYxhCQZSUlCPLh5eeXq5H13VkWeQaVVWQaQIBP/v2xQkGQySTOq7rkk6LfoXecUtL40QiAXTdwHUhnRa5QRHqlHAcr6RAoqJCNMt1HAddN1FV0dVDXLOJZyh4DWvFflxCoSCWJZrZ+nyhSkUsitCz+O9A1pP6LXCQ1eRkhKyIEMlMuvk2xo2fiONIuIcxrw59hwOGGx5JVL/1v/Qg1b/v4Zfu50ih+vn8X86j+j48/F/2daziv9GsPzrXlPWkfnscGkfJ4jeDt06FGJThsCrqP4lfe/Rf+/0jjSNxPkdiH8c6/huv8b/xmrKAbLgviyyyyCKLYxhZJZVFFllkkcUxi6ySyiKLLLLI4pjFMamkqnM5POr2ga+rs3dsWxR0gqhD8vZx4Pegat/Vj3E04NW/eHUlALIsukjbtmBviRqYwxePZpFFFr8e3jMoy2L0jOM4GQYmiBo8jyXpsTI95qpHr/8tEIvFDpF1yWTyoL978M4JhGzzWJDpdBrLOrTO8PeE3+4X/pXw6i28eg+PuuotDEkShYsHvifLVcWqrntwx2xPcR24+A5878DtPwVRkCrqgzKD9yqVkqIolXVDoltEFllk8dvBU06i0F3IElUVXTFSqVTmGRTFzKKWrbrxfCRhWRaRSCQjwzy55fXCtG0bb6QJkDkfT2565Qp+vx/XFWNhfq84JpWUJIn+X6oqBqCBEOjezXJdUYWuKKKLgle0KFXyPj3F5S0yWRbD37y/e8fw3qu+/SdhmqLVjmlahMNhotEQkiQq7H0+Majwt7TWssji/3d4SseyRBNjSRJDGx1H1OF5NWfee55x7BnOvwU82aWqgoBt26JA3FOWB8pHz5B3XVGr5r3v8/moqKhAURQSicSBu/9d4ZiUft5i8DYQC8l1q9zrA60D719PgXneEwhlZNuiANPrG6YoolOB9/nq238KmiYWoqJIgE1ZWRkLFy7CdR3CYTHyPIsssvhtYVmiyDgQ8GdC8JIkDGXPwwIhNw4MvXsK4reAYYgGzevXr6e4uDijoFRVxbIsdu7cyerVqzPn7sm98vJyXn31VRYuXMjSpUupqKjANE1+rtP97wHHpJIyTTPjAUGVEgJIpVI4jqhYB3EzPeXjuiLEB1Xur67rmYXk84kO5MlkMrPYqiuo/6SSSqfFhNhEIkU6bTJjxgwm3XQTiUQSy7JJp9P4/b6MNZVFFlkcefh8IuTujUzx+XyA8F5c180YyLFY7KAcseuKaQW/BTz51r9/f2666SaSSTEUU9d1VFXltddeo2/fvuzfvz/jZa1evZrzzjuP4cOHc8sttzB8+HAaNGjAm2+++buOxhyT0u+dd97hrbfeYvjw4fzhD3/IKBnbtnnkkUeoW7cuQ4YMQZIkpkyZQiwW46qrrqJp06aZfJQsi3Hht99+O4WFhdxwww2oqsqyZcv4+uuvueWWW5AkiZtuuikzRsOzUlq3bk3fvn1p2LDhQQsSxOJxXRFu/FmF5nohQxdwM/+VDrAJTNOsbPOSZteuHcyYcQ8b1q0jkhOpHGFuiX5xltfMNIsssvi1kGTR1zEUCpJKJgkGg7y9ejXrN6yjbH8JzVu0YMiFFxGMRJAlGU3VeHv1ala9+Sa6YdCwcSPOO+888vPz8WkqDiJX5CkBIatcDmk1lXmEf/5Z9kKOqiryYrZtEwqFePzxx+nTpw/nnnsuwaBo+eT3i6bNuq5jGAY7duxgzJgxDB06lEWLFtGgQQNisRjPP/8848aNIz8/n1NPPbXaEX8fOCbV67fffst9993HfffdB4j4Kwj3evny5axZswYQimPp0qU88sgjPPDAA5kb63lhS5cu5eGHHxYjuCstnjVr1vDcc89l3PnFi8VE2kaNGlGzZk3Ky8u57777uOCCC9A0DV3XEQP/RNgQqqwcL3596EblVvWeLMnYtkMiKcYLWJaFaVpomsTgwRcSDod4fN5jmEYKyzYAEc6UUHCFlssiiyx+LSQJx3WwLJNIJMySJYsZOvQCZFwuuvBCFj3zNP36nYkigZFOs+unnYwacTnRnCh9+pzJ8hdeYPy4caQSCWzTRJLIjLjx+joqimj6e6g8OFgmSNKhBq+qqpSUVPV/1DSNSy+9lFtvvRXbFqzfRCJBeXk50WgUVVWFon37bTp06MCtt95KgwYNUBSFGjVqMGLECJo1a8b1119/4K/wu8IxqaRcV0ySXbNmDatWrfofczOaptGiRQsWLVpESUlJhhlXXl7OzJkz6dSpE8lkEkk6PCFCkiQ6d+7MhAkTmDRpEgsWLODDDz8kFovx3HPPZZKmXpzaU4IglOeBubOqDRzngLya65DW00iyhFaZ1BTnI6GqPubMmcPMmfeIkR0/c55ZZJHFr4fjOASDQVRFJpGIs3btWi666CJuvvlGTjrpJO6/fybffPUVb7/1FqqqsnbtWgaccw633nozZ5xxBitWrODLLVuwbaGg/H6ZdOWcOFkWJK5D5YF7qEyo3LxzAmH02rZNOBzGcQT5Kycnh7lz5xIOhxk9ejSmaeL3+4lGo5SVlSFJgmS1atUqevbsmaGeCyNYyM3FixfzwQcf8HvFMamkJEmiQYMGnHnmmQwePJhdu3ZlbmR1pNNpevfuTUVFBRs3bsx4Nx9++CH79u3jnHPOybjGh4O3MLzFpaoqBQUFRKNRYrFYRil5+/WSlFC1KA/dDrWYHMdBkWU0nxhNIUkSPp+PZDJNly5dSCZ1fm7iaxZZZHFkoKpixpntuAQCQR555BGmTp2KJCmVxAgfkqoSj4vpvueccw6PPPowu3btIycnQiqVok7duiSTaUT3fYmcHOHReIrF847+N5ngbV56wvOUAoEAsiw6ycfjcfx+f8aAfumll7BtUavlzRLz+/18/fXXmfSEoigZVrBt20QikWxO6kjDcRxKS0uZOHEib775Jvfeey8zZ848LIHAcRwaNmxInz59eO+99+jTpw+u67Ju3TouueQSAoHAQQunOjRN48svv2TBggWAiClv2bKFhg0bMmzYsIxSUhSFtWvXsmbNGhxHUFM9ZXMoZLx8FLgggebTMAwLfzDM1199BYBlGfh8CpIkxrTn5OQcuJMsssjiCMOyBNPNdYRCsCyLmjVr8unmzXy6+VPeffcdzhs4kO7du1cObIxTXi4KaOfMeYRVq1bRskULioqKEKxcKC7ex6rVq5AkG9NKI8vCKK2CDJnW0ofG7f1+P7quU6tWLUaOHIllidooWZYzBnbv3r25+uqrmT59Or1790aSpIMiTB7ZQ1VVTNPMvFaUqhlfh5Ofvwcck2ftDVdr0KABr776Kt26deOSSy6hc+fO1T+aqXEYP34848ePZ9q0adi2zWeffcb999/PSy+9hK7rP6NMRGjxxRdfZNmyZRnLxufzMXbsWGxbdH1wHFET0a1bN7p3757xuKAqP3UQXMSaBLxRHbZjI8sqKd1k2l13V5I0bAIBFcNw8Pkk9uzZg/Q7tniyyOJYh20LA9NxXWRJsINjsRjvv/8BC59+mn17d3NShw7UrVeHkpJSatSIYhg28+fP58UXX+SfW7ZwzXXXIfJFAeKxGAF/kDP+eAYTJoxH8ynYtoWiHPgcy9VkQhVsW+SxVFWltLQUxxGkiAOVimckP/TQQ7Ru3ZrRo0dz9tlnZxSh67oUFRWxe/duQCgmWZbRdR1FUYjFYuTm5maO+XvDMSkRxbTXEI7j0KRJE0aMGMGFF17I119/fZA14CkL27Y5/fTTMU2T77//nng8Tjwep3HjxqiqmonxejdVMOaq4sGTJ0/mxx9/ZMeOHWzdupUVK1awdu1axo8fj2EYBAKBjPISIYGqIuB/F4qs4LgugcqppIqioKoqui4UYCplkJeXh+RW64jBzyjCLLLI4hdDlkVhv20LGaBpIsz35z8P491332LFSy+xYf167rzjTsLhMJYlPK6JE8fz9ttvs/nzz3n33XeZOnVqRk4plaE+b1LwLwmteXIAIC8vj2AwmPmbJ6M8WaPrOlOnTmXFihUsWrQoE9oDOPXUU9m4cWNG6QklKqI9t9xyC+3btyeVSmVSFV506feAf//X/A8jLy8voxgmTJhAMBhkxowZuK6Lrov8jeOIsKAXv+3UqRNTp05l3bp19O/fH0kSbveBdVehUAi/XxTtGYaRWQD169enXr16NGzYkJ49ezJkyBBmz57Nvn378CaTHmm4rliAfr+G3+8XC1QWBYQgPEq58hqyyCKLXw9N04jH48iyEO66bla2JfMRi6Vo1KgRo0aP5qOPPyYej2OaIiSYSol8cZ06dTjrrLNYs2bNQQrlSMNLMxiGkfGkJEli0KBBXHLJJaxcuRLDMDKRnkGDBrFo0SJef/31zPdlWWblypUsWLCAqVOnEgwGMwbvLzWyjyaOvOQ9QkgkEjiOSETWrFmThx56iHXr1rFlyxZ8PlHgqigK0Wg0o4x69erFyy+/zCuvvEL79u2xLNHmRFGEteTt10tQapqW8cZAuP6OIzybb775htq1axMOhzOezZGGV0uRSKQwTRPDMCiqXx8Qi8iyLFx+mWWWRRZZ/Dx0Xa/0QATp6aILL2TlypXYtk00GkaSJD766CMikQi5uWEeeughFi9ejKIoBAI+JAm2bd1KXl4e6XTyN5MNnoLyUh+uK4qKDcPgscceo1OnTsiyTDqdRpZlmjZtypgxY7jsssvo2bMnl19+Of369ePyyy9nzJgx9O7dO7Pf34sH5eGYlH6e1+M4orOELMv07t2b4cOHs3fvXkBYCpIkZawgRVE466yzKCkp4e9//zvdu3evDKeJfJS3mLz9KoqSucHbt2/ns88+4/PPP2fRokVccMEFzJ07l/Hjx5Obm0soFPpNbqy3yPx+P5qm0qVLR56cN49gMIhhGOTkhDEMA03LdkHPIosjAc9YTaVSBAIBzh4wgL+MHMlnn/0Dvz/Io48+yrtvv83AgQMBlcaNG/Poo49SWlpKOm3w7LOLWbd+PTNmzCASiRKPxw8+wBGCJEkEg0GeeOKJjAd0YCnNCy+8wLp162jQoAG2LbrTTJ48mR9++IGrrrqK448/nvPPP5/du3czefJkfs+NZo9J4kTdunU58cQTMyE5EAL9T3/6Exs2bKBly5aAyNl069aNvLw8LMsiGo1y1VVXIUlSRkE1btyYNm3aoCiiOK5ly5YkEgmSySShUIhOnTqxbds2JkyYgOsKKmi9evV45plnuOCCC3Ac0VDyt1AUpikKCgXNVCVWkaJO7drYtoPP5yMeT+HzCcqsoh2TtyqLLH5XkBDtyKKRCKWlpQwY0J9YWRkTJkxAkWXyauTyxFPzGXDOAADOPrs///z6nwwb9mcMQycajXLrrbfRpElTEokENWvWOPgARwi2LbpYnHLKKTiOyKd7Xc8VRaGgoIC6detimiZqZU7MNAVzceDAgchyVed0RREMv+ohPtc9POP5WIPk/hYuwv/vOAy7D8B2QZJkbr75Nm4YfyPilxdenqdYHceufP9gOMf+Wsoii98F5MM8X4fSw6sHmSQO/rt4LbnwwYb3+Gjjh0yZcjOSDK7rcLDs/3l2Xxb/O7Lm+VGEZ8l4SVKPMPF7sG6yyOL3iMMrKBAapPpz9++8zmqf3xrVzYUs/sOonnjNKqgsssgiiypkldRRhCRVNZj0tkO6J2eRRRbHOH7WPcviCCCrpI4ivISoR4FPp9NY1m9Dac0iiyx+Kbw81f+0ZfFb45jISXmUc4/R4rHsPEIBCHaf53V470uSlClosyyrspK8qlu5R0bwaqU8eB4MiLyQ9573PUURk3u9/bmuaFtypCHLMpoms27dOt566y1KioupWbMmJ3ftyh//+MfM75INAWaRxZGBJ1ssy8Lv95FOiyGCti0aSXtTD1xXGJDes+e6or4oFPIRj6eJRAIkkwbqAXLlSMKTdU8//XQmJeC9FwwGad++PS1btsRxHL7++mu++OILBg8enMlvS5LEkiVLkCRRAOzJMkVRePPNN1EUhZNPPpnFixcjy1W+iuM4tGjRgu7du2dk4NHGkZe8/wd4NQuKopBKpQgGg+zbt49atWqxe/duCgsLSSQSmWaLpukNDBSf1XUx4RaqbqRliaGB3t/S6TSBQIBkMonPJyb0apqWUXKewrOsqm7nHk3do6EfqOiOBBzH4aOPPuZPf/oTffr04a9//SsLFy7k0ksvZfbs2QwePBhd17EsCzlLQc8iiyMCz+jUdYNQKEAqpVOjRojy8hSappBOGziOTU5OlJKSEvLy8jJyaOfO3dSvX58dO3ZQp04d9u7ZU333RwSSJBoU3HDDDUSjUTRNQ9M0YrEYZWVl5Ofnc8cddzB06FByc3O55ZZbOP/880kmk5mm2tdddx27du1i69atHHfccciy6Od32223MWrUKE444QSuuOIKateuTSAQQNM0vv/+eyRJolevXrz66qsZeXo0cdTDfa7rkkgkePjhh/nDH/5Az549adWqFWeeeSZTpkyhsLAQ0zSZNWsWPXr0YPfu3Rnl4ymZN954g6KiIlasWIEkSZxyyik899xzQFW3Bk3TmDFjBiNGjECWZVRVJZ1O88MPPzBy5Ehat25Nly5d6Ny5M6effjorVqzIeHNebcKRhqqqvPzyy3Ts2JHp06dz4oltmTbtToYMGcLzy5aRSCRQVW/2VBZZZPFrIcsyyWQSWZZxHJu9e/cyd+5cup/ag3POOYehQ/7Ehx9uQNNUYrEYkUiIyZMmMXr0aHr06MGoUaN44P6Z5OXlYZo6BQUF1Q9xRGCaJrZtk5eXx+eff86WLVv4/PPP+fbbb9m1axe9evXi2muv5YcffqBu3boYhsE333yTiQi9+OKLtGrVivz8fDZu3JiJBNm2TXFxMYMGDRLGrywzceJEfvjhB/75z3+ybds2nnrqKdauXcuKFSsOIXYdDRx1JSVJEs8++yzXXnsts2fPZsOGDXz66ac8+OCD3H///UyfPh2Am266iXg8zmWXXZaZsaKqKj6fjylTpnDppZfSv39/HMdhz549zJgxI+MBgbg5qVQq0+vP88ZGjBjBJ598wpIlS/j444/5/PPPOffccxkxYgQbNmzAdV38fj+Oc+QrtQ3DYOjQoQwfPpy6dQtIpQxs2yU3N5d0ZacML4yZRRZZ/HpIkuhg4zgOkUiUp55awF133cUdU6eybNkyTu3enUEDBrJ16zYs22DNu2t4441XeXj2g7zx5mvcNuUWZtwzg/c/WE8gGEDTjrzxClXNZUOhUKbjTXl5ObIsEwwGOffccykuLmb79u2Ypskf//hHPvnkk0w/wfnz59OzZ0+6dOnCF198gWmKsR7PP/88OTk51KghipCj0WhGRjqOQ506dbj44ospKipi69atx4SBfNSVlOu6vP/++5x//vmcdtpppNNpfD4fJ598MmPHjuXVV1/NhOumTJnC+vXreeGFFwBIJpNcffXVhMNhrrvuukxXCUmSCIVCXHjhhTiOqMRWVTFm2bZFw0hFUbjhhhtIJpO8++67tGzZMpOLuvnmmxk+fDh33HEHjuNkWisdaWiaRvPmzRk4cAD798cIhXyUlOxj2bJldDjpJHw+DVkWIdAsssji18OyxLBA8VynwXWZNWsWJ554IqFQiDPPPBNF09i8eRP5eTls2bKFkaNGUadOHSRJol27dvQ980zuueceDMMgmRSzpo40FEVMW4jH45lUg9en1LZt3nrrLXJzcznuuOPw+/20a9eOPXv2YJomu3fvZu3atbRt25ZrrrmGNWvWoKoqruuyYMGCg/r4lZeXY1kWO3fuZNeuXezcuZOFCxdSUlLCqaeeiusefXLIUU90mKZJUVERy5Yt48cff6RRo0aZm3/LLbcwZcoUdF0nEAgwYMAAzj//fKZPn86QIUNYuXIls2fPZvny5RQUFGRaKFmWxTXXXMPw4cPp27cvI0eOxHHE4C/PatB1neeff56xY8cSjUZxHNHM1vNaZs2ahSSJ3oC/Vbdj27aJRPwkkzrhcJBk0mDChL+hKAqXDh+OYYgwYyQSQbeqBpxlkUUW/zeoKrhuFbHq2uuuqyRRyKTTJl9+uQXbtmnatCmyonHFFaNEb03VRzKVwDDSpHWTWgW1SaXS5OXmVT/EEYEXlozFYvTr14/y8vJM7vynn35i//79zJ07lyZNmpBKpWjcuDGvvvoqlmWxbt06HMehW7du5OfnZ1rFpdNpvvvuOy666CJisRiaphGJRJg0aRI33ngjiqLg8/kIh8MsWrSILl26HBPhvqOupFRVZeTIkaxdu5Zu3brRvn172rdvT7t27ejSpQuNGjXKeDG2bTN37lzOOOMMxo4dy6ZNm7j55pvp378/IFx5b/bTGWecwZQpU3jggQfo168f9erVw+/3I0kiZvuvf/2L7du3441g9iwNxxGsHo9V57FigMxkXsH+EZ89rIflqiA5gNhcSXhNqbRBTm4e33zzTWXjWB+xWJpQKMiWLV8yY8YMUqkUr7zyCoWFhZXnIKydQDhU/ShZZJHFL4RpuqiqhKKoSJKEZZmoqsxbb61h2dKlfPTRB4ybcD1t2rQG18G2HBzVIaGn8Pn8vPD8cv7xjy3Mnz8fVfFjmTYV5eWsXr0an08hrcfx+cS8qiqo4MoHyIQqePJDURTq16/P0KFDCQQC2LadCfWdc845mfzR3LlziUQizJ8/n65du2LbNqqqcvrppzNlyhSCwSBffvklbdq0IT8/n1QqRdOmTXniiSdo27Yt2/lFfx0AACAASURBVLdvp1OnTkSjojluMplk6NCh9OjRA9cVDMatW7dy9dVXc8MNNzBq1KiDzvdo4KgrqXg8TsuWLdm4cSMbNmzg0UcfZdmyZUybNo1mzZrxxBNP0L17d1KpFJqmEQ6H+dvf/sbQoUPp3LkzU6ZMwbarRm/YtqCMBwIBJk6cyJo1a7jssst46aWXMq6rJElUVFQAwuX12uHLsqCmBgIBQHh5nsutKArdu3fnjDPOwDRNXFe0zj8sDuqUUtW7z7JdKuIJysviaJoYWJaX5+fHH3czYsQIwuEwjz32GHXr1kXTBPvIMAzq18+jpEzMs8kiiyz+7/D7A8iyTHl5OTk5OaiqguNYFBYWcv24cdww/npef/01+vTpS8cOnQmFIsTjcWrXrsHChc9x/fXjuPPOOykqKiISCaCnLHJycxkwYAA33ng9SGJEvTcAUeB/7t3nRYBMs2rsuyfLDMPgL3/5C7Zt4/f76datG126dOGVV17h1FNPzeSsI5EIliUU44YNG5gyZQoew7lXr1489dRTjBo1itatW9OuXbvM8TRNo0uXLlx++eUZpjNAcXEx8+bN44orruBo46jnpCKRCBUVFZimSfv27VmwYAGffvopH330EZ07d2bo0KH89NNPmXb1juPQt29f2rRpw3nnnYeiCPabl48yDKOSXiqo5zfddBOrVq1i6dKlxONxvJksLVq0oEaNGhk32KunCgQCpFIpSkpK2LFjB7ZtEwwGMzfPtkUtl88nho0dfgPHqfLKHNchraeRJAiHQyiKGBNiGAYbN26mf//+tDnhBF599VUaNSpC13UMQwxqDIWC7N4tFGoWWWTx62CaJo4jhLckOZimKPFo1qwZDRs2ZOHCBfj9fhb9fRGJRAWOI8a4P/HEQmbeey/Tpk3jkksupqAgn2TSwLZFfZVt2+i6mcl3HywP3ENlwgGbLMsZmQLCiDZNMV/OG/6qKAqWZdG2bVueffZZ5s2bx6JFizIkENd1ad68OcuWLWPnzp307NkzI2eaNGnCd999x7p16+jTp09GmXmK0IsUSZKoHzVNk7y8PGKx2DGRkzrqSgqgTZs2JBIJgsEgrit4+R07dmTs2LH89NNPfPvtt4DwerybuWfPHhxHuM6apmVcVU8JRSIRysvL6dWrF6NGjeLOO+/MDFJUVZVAIECXLl1YvXp1JuTn8/nQdZ1gMMi8efNo0qQJmzdvzrjkHo3TS2Z6i+vQDWRZsIhkWUaWZAKVFpwkVU3ejUYDPPzww2zbto0r//pXvvzySzZv/pxNmzaxY8cOQqEQui6uJYsssvj1kGUJXRf07ng8xYYNH2DbNoGAn4qKCny+AP369ePrf36N68q4Ltxzzz1cc+WVjBs/npEjL8eybBRF5K59Ph+y7DUiEKOFPDlVtUmHyoTKzfusqqoZOZZOpzORFi+K4x3DNE169OhBjx49GDlyJFu3bs0omW7dujF58mQKCwuxLFHvKcsyHTt2ZO/evbz//vuMGzcOTRPDXm1bkMgOlKOmafL+++8ze/ZsunbtmpF5RxNHXUlJkkSTJk0YMmQIO3fuzCgR13VZsWIFderUoVGjRhnBblkWrisIDoFAAF3XM9aMp0x8Ph+JRIKcnBwcx2HOnDnUrVuXZ555JmOlqKrKHXfcwaZNm1iwYEHmpmmaxueff87SpUu5+OKLadeuHbYtQoimKRZ3NBrNWDaecjx4o3KrfI0YeW87DhJVyi4WSyMBp59+OrdMnsz0u+7itttu44GZM5k7dy6pVAJN09D1bKgviyyOBBzHJRQSQ0YNw2Ba5TOXTuuEQiHKy8tZ8NRTtGvTFr9fY/PmT3np/7F3nmFSVGnDvit2T3dPJIOBrAQlSRIQUDChooKwqKuArrgqKriwYs4uq766KiZEMKCY/QQxoIJhWVQQBFnFBIuApBmY6VjVFb4fZ07NEPRddeaVwb6vq8XpWN116snneV55hdnPzubUU0+ltHQHeXkhkskkqioiN9KT0TSCvPfe5UE1mVB5AxGdkfJNvI+ICpmmmEAun2MYYkNvSUkJU6ZMQVVVHn/8cXxfGPaHHnoo27dvp3fv3phmVcOCAw88kN69exMOh2nQoEFwvADFxcU8+OCDdO3alW7dutGjRw8uuugijjvuOCZPnhyEIn9LfnM1qSgKF154IX/4wx/o3LkzXbt2pW3btixatCjYWHbQQQcFloSmaUFIz7Zt5MRJGQpUVTHt1verXGvDMLjmmmsYNGhQEMPVdZ0uXbowevRoRo8ezcMPP8yQIUNYu3Ytjz/+OIcffjj3339/YPFIBVidn7QyFPkf8bpQKITri6odGSv2PJ9pDzxQ/VV74PvC0qr5XVo5cvz+UBSFZFKE95s1K+H0YcO4/vprSSaT/OEPf+C6a6/CymY5eegplJTkMW3aNGzH4d57H2Dq1LuIRqNYlsWBBx7IrFmPkLKz4vqsNJJVVUPMk9pTXlTJhCo0TUPTqvJXhrHrnkgZRZL3y5Bgp06d9pgKfMIJJ7Bt27bgb/m+iqKwePHi4H7JAQccQFlZ2e5373P8hJT9vyEejzNs2DBWrVrFhx9+yKpVqwC44IIL6NKlC7169QpCayCEtqIojBs3jl69egXKSFHExlfP87j22mvJz88P3GmAo446ihkzZlBQUBAoCl3XmThxIkcccQSffPIJ69evp6SkhMcee4yjjz6awsJCsllRBl49qZgjR466iaII+aGqsGVLBRdcMJaDDmrGsmWf8tILL3D68OEMHjyYNm3asG1biqFDh9K9e3c8zyMUCgVhtJKSkmDrSI7aZZ+YzGvbNoZhBNaHjL3KeC+IDuGy6q56Hz5Zrrm7BSK9Lvkv7BoqBCgtLaWoqChIMCqKSFDKIgr5XFkF81/zI9V9u0/m9bxdnviT5Cbz5sjx63Essd/QNE1M06S8fCfhsMhFq6qKpostKppq4PtVA0kVReyZVFWRPzJNU7RXQuGTjxbnJvPWIr+5JwXCLZVxUqmUpFKQCkxaMaqqBopD1/Xg+dU9nr2F4WzbDhKQMv4rQ4UyJCiPIx6PB0Ucnic6VsjX5siRo+4SDocwTYN4PImiiI7imia0h+/7gZICyFoOigKu62GaogOEYehks6IpgKZp+G4uEF/b/OZSV+5XknFd6dhJhaHrYtOdolTtEpeekbRmQCg1VVWxbZt0Oh3kozRNtDpSVTV4T/m+sVis0vUXj4FQZooiRnxIKyoSieQUVI4c+wGJRJKKCrFPMRwW1XTJZJJwWHQBl/LHdYQscl2R57ZtsU9Jxp2kVxUKiekLOWqP31zyFhQUBB6QaZqBxyIVTHXPR3pXniesF8dxME2xXymbzZLNZolGo0QikWDBSQUlrSPprbmu2B8glZ98vWmawcY4eQzVlWdNIt7Tx3GyqCrYdhpdV0inE3iesOJAXCQ5cuT49eTl5VFYGMX3fTIZUa0biURIJpOAuCYzmQyqpgaNXUEUSWUymSA/rmlarfX0BHEcnrdrmXh1GeT7flDu7rqi+rg6vl9VPSjlpfz3p57rur99G6Td2WekX3WLRFHEbCcQFouui825Mm8kc1C6rgePSUWmaaJaRioY6Ylls1kqKiqCE+L7otRTLjL5fpZlkUwmg8+QXlltLEZdF8PWQiET18vSuHERqXScZs3qoemiZYvnVS2gHDly/DpUVSWdFnkpwzCovjcykUigKAr16xeTSWewLCswgmWOWqYddF3stawtPE8Yp9VlmJRjrismOsgycxnxsSyLRCLBzp07URRR7SwVE4jv7rpiu04mkyGZTLJ161YURRSdyffa19gzebMPID0aRREx43RaDEV0XbEvYffQXDgsuhpLJSPDdXJTnFRIMrwnP0N2XJdhQtM0Ral4tZMVDotegLVR3ZfNivZKTz75JLOffhLfd4nFYgwfPpzhw0egKNXK33OKKkeOGkEqGcuy8H3hoWSzoi2aoWts2bKdWLQA1xVeiqKIlICiiMkLIAxpRVFqrQv6li1buOWWWxg+fDi9evVCVUXBhpQH3333Hffeey+TJk2ioKCA6667LlBWmqbRpk0bWrVqxeDBg4OIVCKR4PLLLw9knHzP9u3b07lzZ7p164bv184U8l/DPuNJVUfml+LxOJlMJmiJJKfq+r7Pzp078X1Rfed5ovBBLhzp+YTDYtqvRJ5geYLCYTHBUlGUXRSQfK9kMonvC7e6phUUQDhsMm/eq0wYP54rrriCF198keHDhzP+kkuCQWWqWhXuzJEjx69HGrRSnohtKRp5eXmUV8SpX78+8UR8l/CYSBv4VFRUUFIictRSNtUGDRo0YOHChTz//PNomuhOLiMqqqry9ttv89prr9GiRQs2bdrE3LlzadWqFc2aNWPz5s3ccccdDB8+nCuvvBLXdbEsix07djBjxgwSiQSHHHIIxcXFLFmyhKuuuoqBAwcyf/58dF1UNu9L7FsqsxrpdDrYOJdOpznzzDMxTZNnn30WgMLCQmS89ocffqBr167cfvvtnH/++XTu3DkIpUmPqVGjRowdO5bRo0cHJ/uEE05g7dq1aJpGOBymtLQUgJ49ezJx4sSgVb10+VW1ZnV6Om2RyaQZff759O/fn1DIYPjw4UydOpXPP19F1y5HYBimsPy0mleSOXL83pDXsOu65OfHWLv2W2677TbWrVvHQQcdxPr1axl73nkMO/0MZB9PEZVJcc89D7FgwQJeeeUlIpEYmqaRzdZONxhFUbjmmmu45ZZbgrCeqlbl6p9//nkmTpyIponURl5eHpdccgm6rgdKePr06YwbN46+ffsGfU4B+vXrx/nnn4/rulx33XUkEgnGjx/PjTfeyHHHHbfPFYPUrNStIaSF4jiiM4Ou60ydOpV3330XqHK1dV3kpN555x1KS0s5/vjjcV2XeDzO3Llz+fTTT1m9ejXffvstffv25U9/+hMvv/wystx827ZtDBgwgNWrV7N06VLWrVvH/Pnz2bJlC+eff/4uDRZrWkGBqE4cPnwkN910E6FQCMuyWL16NRvWr6dRo8YAaJoY4JgjR46aQERdPM8jHDaYM+c5li1bxqxZs5g5cybnnX8+l1x8Mav/vZpMJgOApnncd9807rj9dn744QcKCgopKysjFDIIh2vn2tR1nZEjR2LbNh988AGqWlWBnEgk2LhxI5deeikgwpeuK3Lo1fecjhkzhq5du/LWW28hc1EydCn/DoVC1KtXj0cffZTNmzezevXqQObtK9S85K0BZEJShtgMQ0ywbd26NTfeeCO+L4oJZGLwjTfeYNSoURxwwAFBwQUIxSJ/8FtvvZUhQ4Zw9913B/fJvVAS3/dp164db7zxRmBlCGtJdCSXnpl0h+WJ3vO2Z8djO2sDPj6iuCOVSlUuOmH1rFy5guuuu46JEyZwxsiRHHfccZXHpKAo+5b7nSNHXcV1xfWuKGDbGYqKivjb3/5G48aNSafT9OzZE1yXb7/9tlLOeJx//p9Z9O67jDjzTPLy8shmHQoLC7FtpzKvVZXHyWazQcqh6vbTXdClfBHHJ6qOfV9UIZ944onccsstyKiRpmmMHTuWQYMGBdGi6ikNmbsHEdY89thjd0kdSNmpaVVNC2SOrnXr1vzjH/+oFYP817BvHc3/wvDhw3nmmWdwnKoOv6qqsnz5ch5++GFcV5STVldUEkVReOSRR/j3v/8dPC5P5u5omsYpp5zCnDlzgoUkrQ9ZBShPrjyGXW+we8dj0zBRUEkkRKmrruvs3LmTSCRWeTwqxx57LB06dmTBggUsWrSIvLw8TFNn69Ydux5gjhw5fhGaJooIslmHVMrhwgsvZPjwIZXdZ2J8+umnABx66KGYpolphjj11FN5/c036dChw27vJrCrlaIbhmgIvas8+PEu6KoqPCRFER0tpFckq/iOPfZYFixYwJdffomu63z99dc8//zzHHPMMSQSiUA5VkdVhTKSXtLmzZsDJbg7ui72g5qmSV5eHitXrtznPKk9v+E+zJFHHslf/vIXFi5cyAknnIBlWTz44IO0adMmWHyWZe31xCmKQv369TEMgzVr1tChQ4cfVVKKotCgQQPi8Thbt26lSZMmeJ7H4sWLWbRoESAWguf9yP6pvUzm1XUdy3aI5ReyZs0aNE0jGtWx7QyxWIz27dtjGB04qp8YZPbgtGkMOmYQrqtRUFCw+yfkyJHjFyCFtSiaEqXlW7ak+OSTT7j88sv59NNPmDBpEu3atauUDz7HHz+YbFZM8N0bvu/z1ltv4TgWlp0kEsnjv53MC0LeADRr1oxzzjkHzxNhOM/z6Nu3L8XFxSxevJj27dvz8ccf06hRI/r160d+fv5eZZiUS4qi8P3339O4ceO9yylEqBDEMZSXl9O5c+fgtfsKe0rzfZju3bszcOBAPvzwQ0444QRCoRDPPPMMI0eODPI2srxyd6TFYppiXwRUhRV3R9d18vPzg+q+TCaDqqr07t2bo446KjiJqrr3Rbu33n0ZK4MZCpPOZLnl5tsrvbI81qxZQzqd4pBD26DrIULhPMaNG8fo0WMJhyOkUmkKCmIk0rWToM2R4/eE74uKYOmFeJ4Io3Xu3JmTTz6Z226/hTtuv502rQ/h3HPPZufOJPn5ESIRMYdqb6iaxuDBg7nmmr+iaiAEQHWloO4mE3bFccRm3VQqFVQ2yyYE+fn5TJgwgblz5zJu3DheeuklRowYQdOmTfG8H9+/KaM9n3zyCS1bttwlJFgd+XtkMhk2btzI+PHjf1yu/UbsW0fzv6CqKldffXWl1eIwf/58vv766yB/I0/23k6c67p89dVXaJpGu3btgtjs3rBtm7Vr19K2bVvq16+PoihBmE8qQFUV4T/5PrvexLam4G98TMPEdVwMQ7jXMlz4wAMPcP3115NJZ/B92Lp1G3fd9T+0btkK13XRdZ10es/wZY4cOX4+nudh2zZ5eXkYhpjPFImEaNSoIRUVFUyceDl9+w9kwYIFlJZWYBgq8XiKVEps7N0bhi7m3ykKWJYV7H/cUx5UkwmVN+nZaZpGUVHRLjJMPjZhwgS2bt3Kxo0b2bhxIzfddFPw2XuTdTLK8/bbb/Ovf/2LESNGBB7T7ui6TjKZ5M4776S4uJjTTz/9R0ODvxV1ypPKZrMcc8wxxONxvvzySz799FP69OlDhw4d8DxRgFBRUREURKTTaUIhMYRM13WuvvpqGjRoQCwWq3TfRXWg7/vIPJf8+5133mHAgAFBxYyiiJ6B1S2SH7NOgEqrSZH/g6Iq+AooilBuoh+gxoknDuHMESO44orJ/OEPI5k+fTrvv/8+jz02k0jEpKwsIZKh3p7eYY4cOX4enucSDoeDvY+33no7F1xwASUlJcRiBdi2Rbt2HYOQvOOI3I7MEUkBbpom2ayNrhsolQYryKbVu3dBrySQCdXu2i0iIxWhooguEL7vE4vF6NSpE2effTZt27YlGo2iqio7duygsLCQcDiMrussWbKEaDTKypUrWblyJY899hiDBw/mjDPOQOa/ADZt2sTy5csDQ3/p0qXMmzePWbNmBc0L9iXqlJLyPFFhd8opp3DDDTewZcsW7r//flxX7Ar3PI9oNBpU4Gma6K/1/fff89577/HCCy8wa9YsLMtC08Ro5uqWSyKR4Ntvv2X27NmkUimmTp2K4zhBfLim3eBMJsMxxwzgzXfeZt7cebz22ut0796T8eMvY+DAfmzdupNYLE+EAcL71t6FHDnqIqZpkslk0DSN8vJyVq9axeTJk3nggfvJZrNs3LiBV156ibPOPpu8vDwsy0LmeHS9ajx8NmuhqqJrRW0gPLOqjuynnHIK9913H0OHDkXXdbLZLMXFxXieR0FBAS1btuSWW27BsixCoRANGzbkrrvuYtSoUdi2TTgcJhwOM2jQIJYsWcKiRYvQNNHZ/bDDDmPs2LEMGTKEdDq9z215qVNKKhQKoaoqgwYN4rjjjqN79+506tQJzxNlnKoqxnikUilOO+00MpkM5eXlbNq0iUgkwrXXXsvIkSPRddELq0GDBsydO5ePP/4Y27ZZt24dqVSK1q1bM336dKLRaBDb/Umv6RcSiYRJJNJ063YEPXv2wLKyhEIGruuTSlnk5+eTzWYpKCggbdfOxZAjx+8JGUEBiEajnH/BBYwcNoz169czePBgHpw2jcZNm3Lhn/8cKCgQys11RSf0/Pww8biY/l1bSCUl5c6xxx7LySefTDqdDhSXNLAPOugg5s6di9z/pWmiWlAqLNd1SSaTRCIRXnzxRWKxWBASlO8lu28oSu20gPs11Ckl5fs+qVSK/v37M23aNLp06RIoEN+vmkV19913k0wmg5NQUFBAr169aNCgAYZhBK+54IILKC0tJZsV86Icx6FFixZ0796d/Pz84LlSUcnFXVOk0xahkFj8MtwoGkeKdk0gvrNlWbtHCXLkyPELUFXRr85xsvg+9OvXh8Uff8wHH3yAojjcctttjBgxIpAHeXlhHEeE8gYM6EdBQQGpVIZUKkV+fj66WfPGK+ya885mxdBVmUuzLJEfUxQlSFUYhuhRqiii7ZtMZSSTSUzTJBqNBpEmGRWSCljX9eD9HcfJeVK/BmlVmKbJRRddFCibbFZsoJNhvxEjRpDJZNB1HdniI51OB10sTNPEtm2GDh1KOp3G931M0wzcaHnS5WfKk17TmKaJ5/moquhuDGLAmq57RKN5ZDI2eXlhfB8y2VzxRI4cvxbPk/seNUzTIJlMccghh9CkSROy2SwNGhSh6yaJhJgXJb2ZTCZDmzaHctBBLchksuTn5wOiyKq2kPJOekjVvTmoapQrPSeJ64pefaFQiGg0iuOIIi1N23Vwq/xuUiZKBVUbqY1fQ81L3lpGzniRbq1UMCC8DhBWSCQSCRSXqorhZNJyUBRRrQdyv4SotJGhAHniFEUkL+WiqGmE96dg28KTk56b44gNfZ7nkU6L8SSoOVcqR45fi/Q+pFGoaSJvXVAQw7Yd0mkHVRVFWI7jkM2K4gWpJEpK8rEskaNyHIdoLXkd1UNxqio250rFI4/fNEXTWRmik/JQyjBZzCFfXx2p4KBKGe5Liqk6++ZR/S8oimydv2tljKJUJRrlv9LKUNWqHd6yWk+G2VRV7KGSikt6ZJqmBQpKnvCaRFEUkskUDRpEyGazhMMqqVQK3xd7F+Tx7KuLJ0eOuoYU2LouGrHK+zIZ0fMuP190OJcz5XRdJxrNIz8/H8/zKC9P4bpVnWfkZPGaRso327aD3FgoFCKTEYMXpYKRn2+aZpDicBwn8PCk/JPRJkn1yFB1ZVj9332FfetoahFpDVVfoLsrJs8T1YOGIRo0+n7V1EtpbdQktm0TjUbZsiVBOKyzeXMZ0ajYYCw2EPuYpk42F+rLkaPWUBQxqsfzXCoqhKCPxWKEQmLAYTptBYatLESQc6QikdoZ1SE9H9MU08qlwpIRIc8Tm38LCwvJZkXvv2g0Gsgp6Yk5jiiu+LHGBXWB342Scl0xMFF6VdKKqm5NgXCDq0/jlS707u5yTRCJhEgkEpimGLyoaRqqalBcHCEcNtixowLH8QiHa+dCyJEjhyCTyWDbIoSmqqK9mszjQFWex3FEvtowZGeIvW+S/bVIg9myRJs3wxBThKVClUa3bQsPUBrSmiYax4bDVYNgq3tQdZE6l5P6pUhrRFohskhC00T+SYYBTNMMclPyfqnUavpkZzJZotEIhqFSXp7EcVIce+zpHH/88Vx22SVBXs2yLBS95j25HDlyCAUUDodQFJEKALHdxfPE1hbT1AExsUBENkSnculV1QZSXp166qlYlui0LiM8bdu2ZdSoUfTs2TMwqF3X5a677mLhwoVEo1G6dOnC6NGjadKkCSC+Y21Eg/4v+N0oqS+++IL58+fTu3dv+vTpQyaTIRwOBwlE2xZzW5YtW0bDhg0ZMmQIDRo0CBZhTSsoEAvRcVzi8QT16xdw3HEjWPbRvxg8+Bg8T1QkFhUVkUqlCOk5bypHjl+Lp4C6W1DENE1mz36KtWu/45RTTqFTp06IAiahiCoqKli4cCHffvstvXr1olevXiiKyPPU1mRe3xfFEevXr2f69Okoisi3z5s3j9mzZ/PMM88wb948unfvDsA777zDI488EszWO+WUU9B1nYkTJwYpjbrKfhnuc11RECHLyX3f54knnuDRRx/l4YcfBoSCkDknz/O44YYb+POf/wzAvHnzGDVqFGVlZYDIHYlFW1Xp4/uiukeGAne97dmny/M98H3sygRmKiUSsKoqxsg/NvNxkomdtD+sHYrqoeni/mzWJharnQqiHDl+b6i6SsrO4KkeaLDkk8W0a9eGjz5aTGFBjMmTJjLpLxPIZJIYhkcqFefcc87m2Wdmoyg+115zFVdNmUwmk8IwNNIZ0YRa10U7Ndu2A/mwpzzYe+8+3xeyBES6IZlMoiiiAjmTydCjRw+6d+9Ot27dmDJlCt988w2DBw/mj3/8Ixs3bsR1Xd544w2uvvpqDj74YLp06cJzzz3H7Nmz8f2qvHpdZb9UUooiih6k9aEoCm+//XbQFy+dTgfutGmarFq1ipdeeon58+czefJkXnjhBcLhMDfddBOuWzU+XsZ3ZehPhgH3vMEuA858j3g8DoBpGEFzy4KCMKoqxj8/8sjDvLPwXUpKiikt3U42myUSiWCaJplMrnAiR46awPM8DNMERHh/+kOP0H9Af2655WamTJnMtddew2PTH2HZ0k9IpbIsWvQevucx57nnuOqqv/Lsc8+xfMVnVFRUYNs2hYUFwXUulZD8nKrbjw89BNEFQ+bEfd8nGo3Kw90FVVUJh8NUVFRw9tlns2bNGpYtW4amabz55pt07949qOI78sgjSSaTrFu3Dt8XkxzqKvulkpLlm54nlMlHH32EZVn07duXjh078te//jV43Pd9nn32WQ444ABatGiBrIY58cQT3aqN8QAAIABJREFUeeyxx7AsUdkjc1TC+6nadyBzVrveYPcBZ5G8CKBg2VkymQyO41Benmbz5s0MGzaM008/nfz8KK7vU1hYGJS3uq7Yr5UjR45fj+fJ61bkes8dO5aLL76YwsJCtm0ro6SkGFSVLVu2Eg6bfPPNNxxXObsukUhy4IGNaVzZF0/XdVKpNJpWNdpdGrK7yoMfH3oojWgQCkpRRNeZvSEjQ/n5+bRr1w6ALVu2AKLwo6ioSHSnQXRjb9KkCYsXL0ZRRFViXWW/VFJSkZim2KH997//nQEDBuC6LkOGDOG+++6jrKwsWCgffvgh7du3R9Oqulc0atSIZDLJpk2bgqoaVRWL0XWrKn3kItv1RuWt8m8UVE0sVrkQTVNsQH7++edJJpNMmDCBTZs2E6qs4jEMg3r1ilFVUa2TI0eOX4+qCm/EcRxisRjHHTeII444ImgfNH36o3Q74ghOPfVkdu6sYP369UGbIMfx2LKljP4DB7J48eKgmi6ZSFJ9c/CPy4NqMqHyBlWeVDYrOq3/WJ5L5pbi8TiKohAOh0kmk9i2HSi8WCyG54mOEYWFhXz22WfBMdVV9kvpp6qi75XrunzxxRcsWrSIadOmoWkaxxxzDA0bNmT+/PmcddZZgbdVfcOc67rUr18fgM2bN3PIIYfgeR4LFy7k/fffDxaI9Lr2RIVg8JkPChimgW07hPKifPHFFziOg2XZzH7qKc4860yefPJJFMXn+w0bWLFiBU8//TSnnToM13XIzy8gbe994FqOHDn+ezzPxbZFubZlWSSTWQxN5dVXX2Xuq3NZuvRjxowZQzJl0bRpY7K2jaaJyImqKhQVxUgmhVJyXVcM41Hh/Q/e529TNbLZDOK6r44KKJX37/qYVFa+79O0aVPOPvvswMjeHRnRiUajbN++HcsSHShMU7R5q/4awzDYuXMnPXv2DCJGueq+fQhZQq4oCu+++y4HH3ww9evXD+K3Bx98ME8++SR//OMfAeEaV18Y0pqRcWPHERWAgwcPZvDgwdU/au/4iDUJUDmZF8D1QVFUrr76BkKhEDt27CTrOMyYMYNINIzj2OwoK2Pp0qXs3FnBCccPobi4BMfZmyLMkSPHz0coBdu2aNQgnx8278RXfc444wzO+eM5fPrpUgb060deJMaVV/4VVVHwfVlpW0goJHp8ggjtJeJxIpEYR/U7iqumXImiwp7zpNTdZML/joy4yMIHGRmSLF26FN/3g7Bf/fr1A0NbVUUp/Q8//ECbNm2Cv3NKah9CWhau6zJ//nwKCgr4+9//juOIfU+xWIzPP/+cb775hoMPPpiDDjoIEMrJdUXLkS+++AJd12nevHmQj6rpsFvDhg1ZvnwZFRVxwnkmoZDGyUNOZsDRR3PhhRdRUlxIWVmccDhX3ZcjR03geaIHH77Lph92EIvF0BSfdCpFMpnksMM6cNrw4Xy0ZAllZeUUFhfjOA4NGxZTXp7C83w2btxIYWEhlmVRVCQazdY0vi969SmKaCjgeWLjrqIolJWVMWfOHI4++mh69OiB67oMHjyY9957j3POOYdsNsuKFSvIy8ujW7dugQdWV6m7R/4TOI7o6rtt2za2bt3KihUryGazQcWc67r079+fqVOn8vDDDzNkyBBmzJgR5JwsyyKVStG8eXNatGgB7NrrqqbwPI94PE00GsXHIZGQZelCkSYSFrpuUFFRQSQ/tvvLc+TI8TMRYTsVRRF5moEDB3LbLTfRr29fQqZJWVkp6XQa13VJp9M0aNAAz/PYuTMJiJzTunXrOProozEMg3hctEeqaWTuzLZtrrrqKoqKishkMixYsIBUKkVFRQXffPMNris26Q4YMIDLLruMjh074rpiMOyVV14JiNBfMpkkFqubMmTPwOd+gMxJXXfdddSrV49sVnSW0HU9UAInnXQSc+fO5ZtvvuHcc8+lrKyMxx9/nPLyclasWMETTzzBVVddheuKdkp7zz39OnRdCyYJ+z7k5eVx0SWX0K9fPyzLClz86m5+jhw5fjliPEcS3xeRkW5du3L1lCksX76CTCbDvHnz+PD99zn1tNPIz8/nmGMG8sSsWaxatQrXtXj++efZtHEjEydejuM4P1rk8GtxHNEk9tRTTyWRSLBu3Tq2bNnCkUceyejRo3n77bdJp8U4EYDBgwczbtw4rrzySm6//XZuvfVWzjjjjMADq6sKCvZTT0pVVdatW8dDDz3EPffcg2GIgV6mKToFS8tjypQpvP7667Rp04bbbruNoUOHMmXKFDZv3sy4ceMYM2ZM0JlCvr4mcV3RdqWkpICd5eUoisrxxx+PYRjI1ivpdIa8vAiOX/NKMkeO3xuqKvY2Oo5KKplk8uSJnDf2fI4+6ihaH3IIWzZv4q9TpnDOOeeQydi0bduGfv37c9JJJ9GkSRM2fv89s554AlXV8X0Hy6qd61Ia1XfddReaJlq36boYYij3Ue3YsQNZkq5pGpdffjmTJk0KCiqkoVsbUaD/S+r20f8InufRvHlzvvnmG5o1axbEZH3fD/rhde/ene3btwcLYMiQIcTjcT755BOKi4s5/PDDsSwL2T24phWURNdNkkkLXQthGgbpTBpD13EdmSwNVx5j7VwMOXL8nrAzNmHdRFFVYvXrkUhmeOXluXz99dds37aNFi1bUK+khHTaxrZtIpEwN9xwE6NGncX27dto27YtjRs3IZ1OE4tFSKdqd5OsjAppmoZti6kJritatRUXF+/yXBkpkjl5wxDDEj1PTHyoq+yXSkq6wK1atdrtkSo0TaNevXq73BeLxRg4cGDwd21vgNN1A88T7VFUVSOb9VDQyWSyKIoGKGiaiuvmFFSOHDWBoVaKPM/HtnxMXRifbdseStu2h1Z7JoRCebiuKBM/9NB2gKik8zyfUChMNutj6CY/q2zvv0Tua5KFE1BlKO9N4cj7dn8uVMnDusp+qaTqCq7rInfAg1iQckHJRSqtpv0ze5gjR44cP01OSf2miA12iiJaNMkOFp636ywrwzDIerUztyZHjhw59mVySmofQPQBFMpIVcG2s5X/r5JKVfbx0mo+pJAjx++P3btB1AS18Z45JDkl9RuiaRrpdIZt27ZRVlYW9PBSVZUmTZrQqFEjdF0jFAqRyY2Qz5Ejx++Q/VZJOY4Y/SzbgWiaaAwr8z6OI8Jnui4m9MpSTdlgViiQdJCAlMqjJvF9D8NQGTbsNEKGQbNmzchYFigKZ599Nqeffjqe55LJuKDtt6cqR47/MxzHJhLJI53OYJoGti1aqHmei2jmrJJKZYJIhqiS0/D9qoawlpUhPz+fdDqDVsMyQSLlU5cuXYhEIsG+Kdd1adOmDeeccw4nn3wynucFW2RkZd+ECRNo2bIl48ePD+Te3oot6gq18wv/xsg9Bb4vhpElk0n+3//7fwwbNoyZM2cGikp2FTZN0Y/L80QjxtNOO41ly5YRDovyb6idChlFUdiwYSObN29m/GWX8dTTTzPn2Wd5663XGTVqJJZlUVgYQ3ZYzpEjx6/DMHRcV2xwjURC5OWF2bJlC5deehnHHHMMF1xwIWVlZYRCJvF4nPz8GMuWLWfUqFEMGjSImTNnUlQUo6IiTigUYuvWrbt/RI0gZZemabz66qt89NFHLFu2jJkzZ9K0aVPOOOMM5s2bt8sWmby8PMaOHct9991HaWlpILsURQmUXl2k5iXvPkB170hRFCKRCO+99x62bfPCCy8EA8Acp2rarmVZZDIZpkyZwltvvUUikaD6HoXawLIsNm76nnS8gs5dOlERL8dxbbZtL8W2s+TlhamoSNTarvYcOX5vKApUVJRTUBBje+kOnnv+OYYOPYUG9evxpz+dT8g0OGP46SxevJhYLMKXX37JRX8eR+/evfjDqJG8/95CTj99BNFohIyVplGjhrt/RI0gjeKKigoaNWqEoijouk737t25++67mThxIuPHj+ebb77BcRxKS0s54YQT2Lx5M+3btw8aZFePDNVV9ksl5ThOZdcG4YEYhsHbb7/Nbbfdxrp16ygrK8N1RSNZXRfNY//zn/8wdOhQZs+eTfU2SLouuqkHpeA1SDgcYtmyZfQ+qi833HA9hxzSlh5HHMHjj8/C9RzKK3aiqFAR37n7S3PkyPGzEdNzw3khEskEBQX5PDP7KY4ZdDRT75jKUf37ce/995K2Msx7bS6hcIjnnn+WP557Dlf8ZSJjx47hsVkzqYiX88STjxMOG6RSoqdfTbP7fieZbpARoOOPP554PM6KFSvQdZ1UKsXZZ5/Ns88+S7NmzYJK4erVw3WV/VJJSfdWtgN55ZVXCIVCtG3bNpjMC2I+i/S45syZw+DBg7njjjsC5SX2MYmTK+PRNYlYSCqfr1zJgP4DePXVuVw8fjwPPPAAd/z9DoqKigGFosKC3V+aI0eOn41CNisiFKYRIhFPMnzESC677DJKS0tp1aoltm1Tv359kvE45eXlbN++vXLibSpIE3Ts0IGnn36aTMaisLBw9w+pEWTqwfd9stksnufhum7w/+3atSMej7NhwwZs26ZZs2YMHz6coqIiZJcJRRF5NKmw6ir7ZTZexnNlv71JkyZx9tlnE41GOfbYY7n00ku5+eabadKkSdA65Nprr8VxHD766KPgpMpFKU/4Bx98wDvvvBP0AvzRdiO+DooHiJuviO4VqbSFboT4+uuvKxeNwvnnXcDFF12C5/koikrXLkeQtV2ee+55pky5FkPXsSwXZb88UzWLIuZL5qghfMDfr35QBU0zwTfQNAXfV/nDyDNJJhPEojFKt+/kyzX/ZsWKFYwa9QdcN4vvu6TTSXTdIJ1O06RxfaxMini8HEURssZxsixatIirr7ZQVBfTNPB36bWpg69WkwnVHqk0hm3bpnnz5px33nn4vpglJeWQjArJAjAZKQIRJTJNE9/3d+kyUT0fJaNFtZFX/79gvxR9qipGMSuKwkcffcS6devo2bMntm0zZMgQrrvuOl599VUuvvjiQBHJk/lTYb0DDzyQo446KlhEqiomdu6BrwqJiY9UUp7noag6mm6yccNm0uk0um4QiYRIp0UFkVSYffsexVNPPIVlWRiGgaZpuy3tHDly/DIULEsYmCJ37RCNRkmnUyQSCW6//XZOGjKEE088kaKiQnr27MmcZ56hf//+tG3blhmPPcG7CxeCIgcSihFAzZs359hjj8X1LMQk3+pXrCa0fSATqpDyQ1XVII8k5ZBhGLiuSyaTIRQK7aK4ZN/RvSke6YGJ4xM9QGVUqS5Sd4/8J5An3jAMVqxYwcEHH8yHH37I0qVLATG5d968eVx66aW4rug2bhhGpXezdzzP48ADD6R58+bBfXIh7IGvVpr0VZ6UUFIaiqLx9oKFgPCuxowZS35+PnfffTfxeJzi4iirVq0iFAoFi1B8xl4+J0eOHD8LVRXFUKFQiHQ6jaaJHM/q1as599xzad2mJY8/8QSZTBrLEqMyZsyYwYABA8jLy6NJkyYcdvjhQfVcMplGUzVat27NgAF9K697H8+rbuzq4vINZEIVMqxnGAaOI7bNQJUM8zxRYi6VVSQSwfM8Fi9ejOu69OjRo/rbAVXekzSk6zp1/xvsBVUVCcZsNsvs2bPp1asX27ZtY8OGDWzatImRI0fy2Wef8dlnn6FpoiW+XCw/pqgURRRPOI4TxIVh14Rm1Y3KW+XfioqCgut6uJWvEwrOoUOHDrz84ou8994iDMNgwYJF3H3XXYw688zKnJjY25UjR45fj+/7ZDKZ4HrXdYXXX3+dP194IYd37Mh9991LaWkpum6gKCK8NmfOc8yYMZOHHnqEuXNf49BDDqWoqATbdigsLNwl5G9ZVhBa21Me7CkvNE20PqvuQUkFlc1mg5EbrusSjUbJZDKsWLGCRx99lFGjRtG5c+fgsyW+L6qVfV8OeKzbhRP7pSfluqJy77PPPuPrr7/mmWeeoWnTpjiOKDf3fZ81a9YwZcoUXnnlFUzTDBbtXj0jxOIyTZNUKoWu66jqzytP1zQNFQXHq/LAslmPCy64gPXr1zP8tNPp3K0b69eto//AgYweM4ZoNIrjZEilUph5Yj9Ejhw5fjm6LsLqAJFIhDfeeJ2zRp7B5Kuu4pprriHrWMTjcRzHIRaL8cQTTwBwwZ/Opbwig6qqfPzJUoYPH044HGbnzp2YpomqqvwSPaAoSpBTAiEbpMJKpVKsW7eOk046iWw2SzKZxLZtVq5cSbdu3Zg2bdpe5Y8s/PI8L1BSPybX6gL7pZJSVeFFXX311fTu3ZumTZsGVoWwnnRGjBjBxRdfzOrVq+nUqRMgLBdVrXIuFUVUA8kTrigiiSmfs7cF8mO4nouiaOALF17GmCORCLfffjuXXHIJa9eupXXr1rRq1YJsVnhttu2J6b27hA9+X/i+8HBl0liew+r5Q2ktapXnWP5tmgaWJbqOSAEgY/0SVRUdSOT7QlW4RXrQIintI8emOI6oHvU8D01TURRRYCNfY9tihpmmVXU6qf6e8jOkcWSaBiCeI4WLPEa5duVrDUPDtsXmTPldJdX/X1WF9+77opFxde/f90W+Qj5W/XX7M44jwvvyt7333ntpf/jhmKbJjBkz8BEVvYe0PYTevXtTXFTCPffcQ/36DWjcqDGzZs3Cc33OGzuajOUQiUTJOmK/JfiEQiF2zUf9NL5fZRgrigjPyXUeiUS44447As9MnqMDDzyQAQMGkJ+fv8f5Bxg9ejTNmzffRZbVZfZbJfXpp5+ybt06rrjiChRFqSxU0IMKmMMPP5wePXrwwQcf0KlTp8C1dhyHtm3bkkqJklNpdcnFIP/+uWiqhuuDSKpKoSEWqGmatGjRghYtWgCQzYoLqHoI4Pdctia7BCSTSQoKCtA0hWRSNN5VlKp2Nbqu47lCyEjrNJFIEgqFMAwDy7LIywtj21WVUp4nNjzGYmFMU6WiQvRIlEUsiiIs3UxGeLTSSvV9n0jEJJHIBEpQKpxIJI/i4hi27ZFKpdG0qqIYWRXq+0IhhsNhstlsoEzk2nBdkTcRYR6DVEqEmQHi8SSqqlZOaPWDz1dVNQgNideKUuRYLA8Qv5miCMMrFAoRCoWCY/q9oChURiiybNiwgc2bN2NZaWbNmoWu6yiqMBJOO+10Wrduy8knn8T8+a8z8vThoKoMPu447rzzLrJZcLIueuXvLtfKz6X6+oUqw1caSxdffHHw2E9R/T1GjRpV7RFBXVZYii/V+H6EtFzdSoEliyLkBQpCCFmWBQgFFA6HSaVShMPhQIhAVQz5Zy3AIEkK4AUlD64PiqJy9dU38JdJUxCzpP679/X+u6ftp/jIzvCGIcr/oeqClh6BqigYmlAg2WyWSCRCJiP6sMmqKOE12ei6GXjJwgoW51oaBtLrkB6YeC14novvi55uiiK8O+GJePi+EATSI5cei1yL8vnymMWxOOTl5ZHJZILPkopKTIYOBda/NKJU1cfzxHep8obEGpUeneeJ7RG+7+M4VQl5+Z2y2apOBD8mAnzYz0rQQUP8Zq7rEg6reJ6G7wujUFEUfCplhyOiHbYtRrBv3rwVTdPIz8/HNA0URXg8tmWx9KOP+OTjj7jxxqtRVPB9j13FhbqbTMjxc6i76vUn0LSqvQShkJiuK4sdpKBLJBKk02lCoRDhcJjy8nIikQiqKso15fPkxS2VW47fAhEW9X2f8vJyNE0Uu4DwNkFYnpqqEY/HSSaTgaKRCWQprJPJJOGwqJDKz48Enod83POEx2YY2i6NO8Vnx8lmPTRNKBHpVWcyGRRFtOJKJBJEo2FCodAu7bd8X1jojiM8onRaeDWappFKpTAM4eUrighTCiEaJpEQHQ0ikbzAu/d9sUal0hUekfAak0nhZUnlq6qies2yLDzPIy8vjKKIiICiiJJm+Rv+HshmhbETi0WwbdD1qgo4aZz6vo+iKmiaQSbj4DjQoEEjDjzwAOrVKyIUCpNOW2QyNuFQZLdPyFHT7JfhPt8XJZ3S2jUMkUdSVWEBm6ZoxiiFhqIoFBYWBopMCgBp7cLPyz/lqFkURYRrpRIAj2g0Pzh3hiFCaTt37sTNioS3YaiUlpZRUlKC74v8S16ewdatWwiFQqiqSjyeIhLJw3EsSkt3ks06lJQUUFRUhG1b2HbVpknXdSkoKMDzPGzbQVWFpyOVp/TKwmGTRCKNqqqBQvjyyy8pKytD0zQOOOAAmjVrQsOGxezYkSAcDgdeVDqdQddV0ukU5eVxYrEYxcWFZLMulmUTiUQCL0DXdSxLJPkzmQzhcJiSkhJh3QdenvDkpKe0fv1/WLfuP4TDYYqLiznggAMoKioKPMnfA4YhNvlnsyKyYlkOlZf4bigkk6nKtSLWYCqVwvPE6/Lz83GcLK6bM15rm72enrqO4zi4rkh2ywtUUYSvLZWOVGSqWhUekYJGVdUgTCStVfm6msVH7qXaff9Ejio0TXg5zz77LJ3bt2fOnOfQNA0NMFQF1fdIxSu456476dj+UK68cjKOI4wRH6FANE3jjjvuomf3I3j/vYU4jk1BQYR//WsxvXv3oUO7Q+natTOHdzycRx55CPBQFJ90OoWqOtx333106dKFXr16ceSRfRg0aBBHHXUUHTp04LbbbiM/P4zj2JV7bxRisTzuv38a3bodQf9+/Tj99NM55aST6NatG3/60zh++GE7pikKK6RhZJomf/vb32l1cAuO6NqVti1bcs011yE8I5FvUlWVoqIIixcvZuzYsXTu1InOhx9Ojx7dGT/+YlavXoVp6nieg+97hEIGixd/yMknD6HXEd344x/P4tRTTqJ/n96MGXMuCxa8ievuqqRk8G9/C/UB+H5VP7xwOIyqClkAwhDVNJFjMgyDVCpV2dxZIRQKY1miWEbX9crzrOM4ueu2tqnzntTuoQpVFbF5VRXxfukRVbd2Zc5A/msYBr7vB94ViI22Mlxi23YQNqxJVA0cJ4uo1nIJmSFSqQxFRVEqKtLoulCyuu7jebWhJOsGtu0RieTRqkULUOCzpZ+Q/eNZhEMhXEfkaIoKonz8rw/Jj4Z5e8GbJFMW0VghVtZBNwxws7zy0gs0qFfEgH69QfV55+0FXPCnP9GkSROuve5qwuEw8+bN469/mcCO0q1cdvnl5Mci2HaWF194joodpXTu2hXbtjEMg4L8KLZt07hRA1LJNLoBngdfffUFN954E6tWrOTQQ9sxZsw55OVFsG2HpUuX8ubr8+n78RKefPJJOnXqSChkUFa2ncvGj+dfS5YwYdIV1KtXjy9Wr+bpp55g08bvueeee9B1HUNXeXvBh1xw3nnkxWKMGXMubdu25PPPv2Deq6/w1Zereenll8nPz8fzPJb860POG3MO4XCYSy69mEaNG6MoChvWr+fFl17irFEj+dvf7+Dsc89Fhv9UTRhqvvvLigH2ZTyv6juJa13F84Qc8DwPzxcK23MdCgoKgpBtKpUOwr+aJgaR+n7t9cTz/apcpsSyrEBJynMlPWcZ3pbIbTWWZWGaZp2OBNV5JaUoomxXnlQQi6963kLE/IVXJD0oqEoge56IRcs8gMgxiHyBqAirnVEZruuiKGAYJtOnP8RLL73EAQccyBUT/0KrVq0oKQmxZUuCiooU+UW108iyLqCqKqlUmh49elBYXMyKlSsxDB1VVVB1HccVXtOXX37BoEGDmPf6m6xcuZKu3XqgGTooYm7X2m+/48gjexIOhfjuP/9h6ElDOKJ7d158+WUikQiGYXDGGcMZMGAAT81+isl/nUxFRTlFRSVs376dHr16MXPmTEKhEPF4nPr1i0ilbFRVxTQNyuMpdF3jjjvu4J0332T8hAncduvtlJXtwHVdYrECxo4dy5NPPsGVf7mCO++8kwcffJBoNMprr73G66+9xnU33cT5559POGxSUBDhlptbcsuNN3L88cczfPhwTFPl8ssvJxqL8drrr3PAAY0oK4szbJjHCSccyxnDh7Nw4bsMGzaMHTt2MHbsGEzTYN1/vmXjxs00btyYZDKJZVmMHDWK448/gX/c8z+MPPNMTLNyv48vilAU4WbsfjrqNLouCmuk9+S6LpFIhHQ6La7/PJNEIkFRYYyKCtGWzPdFBa6UE6ZpBt0qopHayUlJebZkyRKKiopwXbEn0zAM2rZtu4vhLeWd7/t8/vnnhEIh2rdvj+uKTjoyShQO1829lnXePJeWkfScALZs2YJlWdi2jW2LWL6iiFjyzp07cV3R0LF6zmrDhg0sX76cjz/+OLA+pGKTn1PT+L5PMpmkd+/evPvuu5x7zlk0btSIk046ibffXsDmzXFMUyMWi+3+0t8d0WiUcDhMx44d2b51K5ZlVZ4n0Xxz+vTpRKJRhp56Kngeqz9fRdbJousaWdti5cqVWFaG7j164Po+H3z4Iagq54w+N8hR2bZNcXEx119/PWeccQYi95XHypUriZeX065dO0T1p1s5mVXkI1QV4vE4kUiEzz//nHfeeot+Awdy2WWXUVERJy8vj6KiGGL6q8rIkcNp16EDny5bVmlI+SxcuBCAo48+mlgsgu8r7NiRZNCgYygoLubtt97CcRyWLFlK6fbt9OnXj3r16pFMCgUdjUYYNGgwjZs0ZcOGjcTjCVKpNFu2bKVjh46sX7+J/PwCSkvLcBwHw9Bo164dJ510Eo7nUVpaGhQVSKu8Ntb8b43vi6IUXdeJx+MYhkE2a5FMJtmxYwfbtm2juLiYioo04XAIEPvgtm3byqZNG4lG88hmM2iakCcZS3haNY3v+9i2zahRo7jooou44oormDBhAsOGDaNjx45MmTIFRRHtj0KhEKtXr6Zv377ccsst3HzzzbRr144777wzMNRVte6K+rp75JXIkF5FRQWmaeK6LieeeCIPPPAAmqZhmiYVFRVomsbtt9/OiBEjAi8rmUyyfft2LrzwQvr06cOAAQPo1asXvXv3ZvZTqVyfAAAgAElEQVTs2bt8jlRWNUkoFOKVV15BURT+8Y9/cNzxQ7ju+uvp3Lkz8+e/HjxvfxQWPwdpNXqex5gxYyiPx/nnP/+JYRgkkylM0+T++++nRYsW9D6yD57nsXTpMgqiUWxLWMPfffctAIe2a4+maXz5xRcoqkrz5i0AEUoRIRwxmXnChAmItjgGX331FbZl0axZM3zfJxQSBkw2m6WgICr6t1V65ZMnTyaVTDJp0iSKi4spKMhHVBiKEJFhGOTl5fH6m2/ywYcfUlgYIZFI8umyZbQ77DC6dj2cHTvKKwtEoFOnzoTDYZZ9+imqqtKxY0fWrlvHrbfeSiQSxnVF1V426+K6HoYuNgWHQmFAwbFs1nz9Dc2aNcW2s9SrV4LrusTjSTRN49FHH2X58uXUq1cv+E4yzF2XBduPoSjCGAGRk8pkklxyyaV069KFfv360adPH6ZOnUphYQEg9rzde+8/OLR1Kzod1pGOHTvy1lsLCIfD6LqGVUtKCoTMKSoqYtGiRSxYsIA33niDjz/+mIceeogXX3yRiy++GJlHu/vuuxkzZgxz5szhmWeeYfr06bzwwgu4rjCMZB6uLlLnV6HMHcl8kvSWZs+eHXhNMpYci8VQlKqyW13XGTt2LCtXruShhx7i22+/ZdWqVYwdO5abb76Z+fPnEwqJ3lm1oaRs22bxP//JYYcdRoMGDfB9n3Q6zZw5T3PbbbcB4HkKodAv20C8v6CqIs9omib9+vWjccOGPPfcc3iuOIffffcd369fz5F9+tKgYSO69+zJx0uW4HkOqu/hO1lWrlhBtKCA7j16krayfPXVV9QrLqZRo0bce++9nDp0KIe2bcuoUaN4+eWXK3OQIkyyefNmABYuXMhR/frRonlLWrduzcgRI3j00ZlEInlomkYmk2Ht2rXUb9SI3r17k81mK8eMi9yibWcrvXedaDRMUVERmYxLYWE+mXSakpISEokMxcUxCgtjlYrPomXLlqRSKfLzo8jqtHDYpKIiga6HMU0TXdd5/PHHKS0tpXXrVqiqSr169Zh05ZVs37aN9u068Le//Y0ZM2ayYcMG8vPzKwWYj6JUhcDlNSSNgv2Pqu8aCoV48IGH+ecHH/Dgww+zcOFCrrnmGu6/7z6ee+55wGf58uU88/TTPDprFks+/phJkyZx7dVXs23bNlzXrbVUgDQQEokEvi8Kh0Ao1t69ezNp0iRmzpzJkiVLyGaz1K9fn6FDh2IYoptK37592b59OytXrgSEoVdXqfNKCkRuyTTFHhNpAe7YsYNBgwYFjxmGQXl5eWCVq6rKxIkT2bZtGx9++CFDhw6lUaNGHHrooUycOJH+/fszfvz44KIF4bVVv3B/7olXK99HVVUqKirQdZ2NGzYwbtw4LrroItq2bEnXLl25//4HKCjIC1z133sFkeu6RCJiQ25hYSGNGzdm+fLlKIpILK9atQrXdWnbti1Zx+Occ0azaeP3fPvNV5iGhqbCsk+X0rx5Sxo0bIzre6RTKSKxGBeOG8dtN9+Mpus0bNyYzz77jAvOO485c+ZgWSKct6ryQv/4o48YMHAgd/3P/3Dqqaey8rPPuPzyy3n88SfwfZ945aA8s7LIRoZjfL9qrWiabJOkYxiiksxxPOzKUJv4vipyw7A8hqzj4PsKvi+8PkURuRH5vv/61xKuvPIqCguLOe64E/A8yGRsbrjhBsZfejlrv13LvXf/g0suuogje/WiV69e3HzzzaiqgedVrW3pRYljrHnD7LemqsuLyvbt21nw1ltcf+ONHH30ABo3bszQoUPpfeSRvLfoXTRd5eNPPqLXkT057fShtD2kNUNPPZmCwhgbN32PYWrYdgYnK6pHfV/sw/L9n5/Hk3LF8zzSadFNRderiiQ0TawV1xW5qT59+uA4Dv/+978xDIMbb7yRkpISQIQKLUs0KmjfXkQO6jL7hZLaHU3TuO6661izZg0zZswIKnQikQiaJpKP8XicV155hWOPPRZVrdo/pSgi1nz99dfz/vvv47qilF2GCBRFdK2QMfu938TFUP0+Oyva4ViVebBwOIzjOGwvK+O8MWNo0qQJL736KtdcczUPPfQQd9xxT6WQqLL8fq+I0Kz4/UzTpHefPvxn7VrWrFkDwOrVq0FR6Nz1CEzTZODAgZTUr88D0+7H91y2bP6BrZs3c+Gf/ywUv6+iajrr162jsKiIfy5Zwquvvsobb7zB44/P4sDmzbn3H/+goqICz/Po3Lkzpwwdyiv/72VuvvlmTjrpJG644QaeeOop6hUX88zTTwfCBM9D5acNGMPQSSQSOI6H64oKLU1V99iELPZ7iW0SvueRSqVQVZVYLIbrirWoaRpLly5l8uTJFOTn8/c7/o7juKTTaYqLC9i2rZS//OUK3nrnHe6dNo0xY8dyeKfOlG7bxoPTpnHwgQfywLRp6Lqo6JMWvFBW+5+SUhSRg66oSFFUVMSDDz/MiSeeiO+L3zIcDvHdd99RXCLCoh06dGDNl19SWlqK4zisXbuWeCIh+mlmRbWwru+6lWBPeeDvVSZ4nsiPSYOgeqj1x1BVtXKkTzEgPC1Z3SeV45o1a+jatSvHH398EGn6JYpzX6HOV/ftDc/zGDBgAJMmTWLq1KmMGjUqKJTwPGGplJWVsXPnTg466CDS6TSmaeI4QmC4rssBBxwQvBeIks4nnniCRx99FBBtlX5UEO1lMq9lWaBoHNy8JT9s2sol4yeQlxemtLSUpk2bMnXqbdi2y5FH9qG8PM4br7/O+edfQElJAaqqk7V/5LN+B/h+Za9DVVzIrVu3xvN9lq9YTvODD2bxP//JQQcdRKtWrXBcjwYNG3JAs6a89eYbuM5UXnj+OfIiEUaMGEHGsgnliY4Q+D7Dhw8Xr3NEbrNXr95cfPHFXDlpEu+88w5nnXUml4z/M6POPJNIJEIqlQqs2t69e9OqTRv+/e9/s+X/s3feYVKWVx++3zZ9tsHSO9JFQWoUUUAJNaCxgAgW1KCC8bPFLpYQDYlgAcWCEBUsCGLBBgoqGDFobKjYkOKywPbpb3m+P555ZxdEA7qou859XQPs7jCzu/POOc8553fOKS4mLy+P5i1b4qTtgRBin5NwNM2tT+kkEklMM4GSPu06jhwu6/V65fQI9xSd/tv9uhyVlGDNmpWMP2UCTZs1Y8HChfzud7/DcSx8Ph9VVTEaNWpANJqgf//+9O3bmxNOOAFFcTAMnTlz5nLrrbdx26230uXQwxg8eLCMzpz6Jz13sSzZoO33+xFC0LRpUzweOR8zGo3y6msr2bRxI7fe+jcsy6Jv3750O/RQhg8fjq7rfPbxx9yQFiZUVVXh0Q0SiQTz5s1j1aqXSSQjFBTkE43KmqJEHoz2tZnXdUjJZJIOHTowZ84cgsHgPp2Kbcuh0+FwmLKysszByOORakP3sc466yxyc3OZM2cOUH2YqavUSyelqrJQeO2117JmzRrGjx/P4sWLSaVSCCEjk6qqqsyLZxhSZuo6KF2X3fwej6wlCCGlnqNGjWLQoEF7OKd9XUz72syraRqWLUgkTR64/yFUVSUeT3BEz54c2r07paUVGIaGpukcffTRPPjAA4RCIUxT4Dhx0L7/dPVbwDB0rFQSRVXp0aMHqqbx1ZdfEovF+PKrr5gyZQoCmV5TEQwYMID7772XTZ9+ymOLF9GxYwcc20ZVdWxbkLJMFE2jZcuWmehZ13USCWnQUVWKioqIROJomkEgEABEejiphWmmCAa99OjRg3+/9RY7duygsHEhrVu35j/r3+Gbb76hXbt27Gt4fSolh5s+++yzjB49mvbt26MIqeZSFIVoNEo4HAbkYaiyshIjXfgWQmBZCWzbZPHix7nt1ltp3KwZDzz4IL169QIBliml0u//90M2b97MUUf1p6CgEI/HSKsTTVTV4cILL6R58xZcftml3H333RxzzDGyBpuQYhPHcVD26WbrLu7PBdLoa5qsJXq9Xt544zVuuvFG7pgzh6OOOgrTTPHVV1+wadOnjBt3CgUF+bz26mu88cYaRo4cTsuWLbFt6fROOeUUzj//XFRNYNsWul7TKWh832ZeqHZUqZTsx0ylZB/e3riHl8rKSrZs2QJAgwYNAFlfW716NZMmTWLYsGHcfffdCCHVw4FAIJMpqovUSyflOhrTNLnqqqsYNmwYjz/+OK1atcqE56FQCMdxSCQS6Lo8SbnGyrJkZ7n7t3uqLCgoIC8vL3NR7dNBQfqChJpOSr4hDAQy1RePxwnnBOncpQtLlizhpptuoaysDL8/wLPPPkv79rL4bds2waCfaELmmH+LKIpc+a0o8vferVs3mjdvzsaPP2blypUATJgwAY/HIJE0SSVidO92KMlUglUrV/LF519wzp+mEI/HCebKMUBt27bl9VdfxZ3dJoSs8bgGS1NViouL8fv93Hrr3/H7/Zx33nkEgwFiMYe8vDwqK6vYunUrTZs1IxCQ8wBPOeUU/r3uLebOncstt9yCx/hub4qqqsyePZtHFy5k+PDhCCFo3bYtO9PSejdFA1BSUsL27ds5pF27TCqosjLGnXfeyR23307vfv1YunQpgUCQSFUUj8ePqurk5PhYu3Ytf735Jm79+0zOPfdcQBCNRQiFvHz77U5atWrBiBEjmD79BrZt25a5/lXVXZQnqG8BlWmayFFYMs0mhKzfPPvsMi447wLuX/Agp5xyCmVlpTRuXMisWbMYPnw4V155GSUlFVxwwQWc/MeTuOiii1i2bBkej5zxmZ+fT5s2rbHsFLZtEQjUFFTIFT3VNmFPXPviRkper1SZ7o2iyBUwOTk5vP766xiGQd++fYnH45SXl3PqqacyceJEbrvttszhRk7Kr56yURepV8dz94SkqnKsUSAQYMiQIdx8883cfvvtvP/++5n7tG7dmiFDhrB+/fpMvck05WRogPvvv5927dpRVFSEbcu6lG3LqeruY4C8cL57I31Lf4yCruly74wtJaE+nw/HhqHHD0dVDK679jqqKiOseP5FnnxyCX886WQ0TUNR5GqG3zSOSEdBKqZpIQQMHzGaL77azKLHH6ewUVOaNWuFZdooQE5OLj2O6A2qwSuvrsFBpduh3fH5A2ALEILevfqgajqvvPIaslYgqKqK4PX6mDv3HnTd4LLLLicej/Pkk09w9513sGXLN1iWRSole7SKir7ljdfXEA4F6dixI5qqMHzYcA477HCefPxxXnv1VUBOKE/EYxi6gmNbLFu2hEWPPkL7Th3p1LkjZWWlHHvMQLZt/pp1b63F4zFQVQXD0Pngg/cpKy2hd98++Hxyp9Urr7zMffPu5dghg7njjtl4vR4cxyI3L0giGUPVoLw8SrduXdANlcceX8TOXcXYtoXf78OyBY0aNyGeMFm5aiWVVVUMPf44FGwQDioOhqLWsxhKomnyGkokEoRCMqV65513MfO223lgwUJGjBhJLJokHMphy5ZtlJdXEAqF2batGE3TKCkp4+hjjuXrrzfj8XiJx+WAYtM0UVWZeqvZl7mnPfiuvXCdkZvJ8Xrl+hSoPmxv376d7du3s2XLFtauXcusWbNYuHAhf//732nbti1+v5+bbrqJESNG8Kc//Yni4mKKi4spLy/Hcao3OtRV6ryTclMkNVNwbljs1pguuugimjVrxkMPPYSmySkSADNnzmTFihUsX758jxBb13UefPBBjj/+eBo3bixTdenH0nVZYIbqE9D+omkaeo2UohBwzDHHsmDBw7z66uv06dOfP0+7iMmTz+G0005j165dBINeTPO3PcRSVRQ0RQUBeroPaPLkc/ji8y95Y/Ub9O77O0xHvtENXSeVMmnavCWdunTn32//B8dW6NylO6qqAQJDUxk69Hh6HNGLhQsWsn79O2iajqpqPPXUUh5esJDBQ46jZcvm+HweRo0aye7SEv7xj5mUlpYSDodIJOJcf/11VJaXccGFF+D3ezFTNnm5+Vx++RXEqiJcefkVPHD/fZTs3kWTJg2oqqrkgQfmcd011yBsk/+75GIikSoaFjbgd0f9joZNGzP9+uuwHQuPVyUSrZIfmyn+8IfRxGIx3nvvXaacew4NGhRw5pln4PEYrF//Nh999CFr167lk08+Zvv2rZhWghEjf88fTz6JTZ9u5PjjB/PwIwupqqqU8b0Q/HXGDM6ePBmvx8NVV/4Fr8eLcGx0VcFxUgin/g2ejcfjJBJxVFVOk1+6dCl33j6LW2b8jbFjT0DXvOTkyBFWzZo1JxAIEo8naNmiMaqqk5eXz1tr19GqVWsqK6soKMhFSUfiilI9UX1/2ZctcSNZ10F16NCBtm3b0rp1awYPHsyDDz7ItGnTmDp1Kq6a8Nlnn+WRRx6hR48etG7dmiZNmnD44Yfz5ptvIoTIiMfqInU+3eemapJJOb7IXWfghvKO45CTk8MVV1zB6NGjgeq89KGHHsrUqVO55JJLWLx4MQMHDmTnzp0sWrSI7t27c+utt6bTdLJhrrZRVZV4PEm3bt148cUXiUQi6LpKYWED4nGTpk2bUFZWSV5eLvF0tJdF0qpVS9q0bcvmzZvp0aMHlZWVhMNBLEseAFRVZfjw4Xz1xRe0btuWHj16ACCEVFsVFDTkzjvvZPr06YweOZLDDj8cAezeuZM+/fpx3fXXU1Ehi9/nnnsuZaWlLH/6ad5Zv54mTZvy6aef4vV4uPSKKxg7diy7d5diGLJ2ddxxx/HgggU88MAD3HjDDfz9ttsIhcNEq6qojERo164dN95yM6NHj8bQNSKRCMceeywXXnghDy9cSNeuXWnfrh2fffopDRsWMnfePA4//DASiSTvv/8+umGwbetWzpw0CVXTEDUyCI4Q/O3WWznjjDNIpUzmzp1Lbk4Ojzz8MJddeik3TZ+Oo4Cuyeft1qUL02+6icLCAqqq5FJHRUlvNTY8WK4KpJ7gTq0XwiGZTLFg/nwaN23KqpUrWfHcc6iahm1ZHHX0UUycNI6TTz6Z0ydMoLS0lAYNGvD+++9TvGsXf//73wkEfFRUVO39FLWCW35Yvnw5UO24vF4v3bt3R2YVpPRdURQWLlyIqspavJsqTqVS9O/fH8eRK4rqKvVi6aGTViMpiiw6P/jgg5xzzjn4/f5M1JJKpbjrrrsoLCxk0qRJmZMPwI4dO5g5cybr168nLy+PiRMnMmrUqHSxXI68cQvZ+0Um/wz8wNLDRCJJTk4Yx6mWkroOMRCQu478fj/RaBTNU3cvsp+Kuo8rNBKJsGPHDizLok2bVoBcjRGJRPH7/Xi9HrxejTfe+DeBQIBu3TpSUlJJfn4+mqYhnDia5qOqqooPPviA1atXo+s6RxxxBD169KCgoAB3Er7P56O8vJyioiIef/xxQqEQlZWVnHvuuYTDYXJycjIRvawpqAghx+588sknrF+/nsrKSgoKCujbty+9evVi565dFBbmYVlSsRgI+FFVjZKSEu6++268Xrk597Tx42nfvhm7d0cxTZNUKspXX20F5HXvpqhVVY4F03Wdpk2b0qxZM4SQzeE5OUG8Xh9PPLGEzz77DNOSxf7x48cTDofJz88nFnPXUkjjByAUhX3rE+suwpJpYyHkqvcZM2bgihXcehDAoYd2Y8CAowiHw6xbt44VK1awYcMGDj30UK699moCgRChkJ9EPMW6N96o9aWHbsrPPTCkUin8fj+pVIrS0lKaNGmSua8rijBNE3d7dDAYxHGkErSmrauL1Hkn5UZLmianAbsvFsiISQg5OFYIqepz38juScVO1zpApuPcN7bXK1d3uy/yAZ1E9tNJycK07NHy+eTuIdOUe4zc53e/19+yum9fTsqyEng8XkzTwTA0EokUui4bt0HunwoGvaRS1cOD3UNLMplEVeXpVNdVpD0wURRZ21FVHQW5rbmiohLD0BBCyZyyFUVgWSkUVScnJ0hVpVxgaBh6umbmIATIlRk2imqQSibRDdnz5J50ZR+SQNcVUikHUBDCwefzYNtpubQua5mObZObG6K8vJJgMCSl8LqGpmrYaWOkpp0kQE5ugJKSSnJzwsTjMWKxBLl5YWzbwTQtQiE/FRVRcnODRCJRdF0aZ1e4oaoqSdNE1ep8smUPVCF/r+7rrmngNkm7wplAwEs0Gsfv14nFUgQCXiKROH6/H9OUvVG2bWHbDgG/nzfXrDkoTkraA2nLamZyhKhe0Ok6VdcOuopk9//q+p5bpusidd7yuREUyIssGo2iKDKfm0pJybmiVBco9zQS1flg15BZloWr1FIUKVF3O8BrG9knkyAclkpDy7IwDG+6WdMmHA7scbrLUo3XG8S20ykuRzZFqqqKqso+OK/XS0WFFJzYto3P50XXVWKxWCblI0/Q8s3uOFq6mVamVFKmRXlFJR6vF9uBZEo2TBoeDynTplHjAlRVp7S0CgEYHg/JlInP70c3PFi2jUBFN3wyUko3f8bjcuWD/L6kM4vH5RJFx3EIBIJEowncSfyxeJxgMIim61RURvH6/FRUyu/L5/ND+toVQmBaFj6/D8u2iUblYOWS0jIEKjm5uTiOghAKgYCf3bvL8fl8RCIJdL26fusudrQsC49RdxVh34f7nlZVqbJNJqUQR4jqVT6RSBzDMFAUOWw3FpON1W5kLW2J/D1WVFTs/RS1gmuPdF3uGXNfH6ieROEOJ3AjaVfB5zowN3Vb0/7VRerFMcl1NiCnZbvUlF0qigyb3RfN/bhmFOW+sKm0QVJVKQF3d/PUfJ7awDSlA4rHZVFTPp8FyIsumYwB4Oyr2eY3jhsJSxTcGWqplIx6HcfJfE7XdSzLxrLkHEfTNFENDwnTQtGNTKTrDQRJ2ZCykyi6gQZYAtB0DE0nYcrDje71sbssCaqG4Us/r+2g6AbxVDqK9/mxBFiWjaIbJEwLzeNFA5IpGa25GIb8t657SCZNPJ5q2brhS7cfqBqqqmEJ+X1aAqz0c6HpskVUU4mn5PNYArAdfMEQAvn9SRSSSZtgUKaZNc1ACPm3ZTlYVgpFkcbQtp0DOv3XBdxDq+NUp8nca8m9yehDYJqybURVdeSWZi+2LVBV2VtpWQ6hYM7eT1EruNe2bUtFMcjoyo2YXKfjZoYsS06VcJzqtR2uPbNtWVevq9QLJ7U/uE7JsmSvyd4vmm1X90z4fL7MxeHer9og1h6apmFZ8nnciMCyLBo3DlFamkQIg0BA4DgapC/ULLVEXVk7+4segH/RJ//Z8HjkrqhEIoFty/1Sqiql6u7BVlWlcEFGXPLzqqoe1FSUa3scpzqtB9XZoJKSEho0aEBJSQmhUAiv14tb9nBFFVJqHyISiVBXV/78ZpyUmxKRYbxsiquZv3UvRJAOy70oLUuOy3E/rk0sy0TXDRxHOigZsht8+20FXq9s6EsmHWw7gbJHB3uWn8ovaX4P5Cqq7e/zQJ77t4Ibhbi1ONu2MU0pLnGjGEWR9WuZKpR1ak3TcCyZ+aht3HSfe1B2peYej5wjqqoq4XAYy7IoKCjAsqzM/VVVzUxGcVOFB2ta+8/Bb8ZJgZv2kS+m1yub5mo6IiEEul79K3Fz1O59an6tNkilTCZPPpf//ve/BIPBTC0FoGnTptx99900adIEj8eDmU351RqO1CscDNuyXwixf0+diZ335877icj8kcVFVdWMQ0om5Yp20mta3IOte7jVdTnJxjTlkGkz3XNZ27gH43/84x8kEglq1guHDh1Kly5d9rBHhmHw6aefsmTJEpo2bcqYMWNo2LAhIA/dpmnWWUdVu1b3V0xJSQmffvopLVu2pE2bNphm9XQJ92S0efNmvv32W4QQ9OzZcw8J+97pwdrA5/Ny2mmnMXDgwMyJp6ysjNmzZ8u9SU2aoCg2tk2tGqosv2HEL+qff3H29bMLIXj33XfZubOYNm3a0KZNGwxDbkQoLS0lGo1iGMYe6mFN0ygsLEzXwGvf67uR25w5cxg5ciSOI+tQX3zxBX/7298YOHAgs2fPJj8/n0AgwJo1a5g6dSpnnnkmmzZt4sgjj2TGjBmcdNJJ6QxN3RXB1EsnJYQsGrq9BQAPP/wwV155Jddccw033HBD5lRk2zaRSIR77rmHK6+8ko4dO7Jp0yb69u3LypUrCQaDpFJyGsXeKcIDxbZtHCHDdznA1suQIYOwLIdQyE95eRVz586lVatWXHrppRiGQSxm4vUaOOK3W5NyDvxX/T9RlNo3LPuNUiNK+h/U+o+uSJP6C/70vyg2Dl6Pl2QygWWZVFSUM/G009m8+Wtyc8Js+fprJp55JrNm3YGiGtx00408/NB8ArkhYpWVKIaBMB1atG7Nu+/+N3PAdVtUpAPb/9KA48iIzeORTtE0q/eKqaocnzZ37lygWkTh8Xjo2bMnEyZMYPXq1di2zR133MH111/PySefjONI0dAdd9zBmDFjvpMhqmsczLrfL4bjyPl6UmIsZeirVq1i+vTpLFmyBNNMNyumnc0nn3zCwoULee2113j33XcpLS2lRYsWjB8/nmQymXF6NWtW7gUjhKx17XmTKZ3Mx8j8sqZpaJrc2SOE+zm5NiAajRONVrB40SJuvvlmCgsLqaqqwp1gnCVLlp+ObhhURqoQCAIBL3PmzEXTFZYtW8rGjRtZ9szTvPzyizy04CGEEEyZ8ieWPvs0Cxc+xPLnn2X27Ntp3qo5t912G1A9bsi1OYpSLfn+rj2oYRPSN8eR0yAcRx5bVLW6mXpv3NJDMpnkoosu4u2332blypWoqsrUqVM58sgjM/+3V69eVFZWZp4nGq278z/rpZPSNCkRjcViuL1TH3/8MVdffTWBQIAlS5ZkoqhkMsmNN97ICSecQJ8+fQgGg+Tl5TFmzBief/55SkpKMqoZ9zQinY3sT9j7otvzoqz+nHt/07QydTE3opKnIy9nnnkOh/fowdixx2eKnm5qIUuWLD+deDxOw4a56LpOImHyxhtvcN111/Pq4nQAACAASURBVNGzZ092795Nv3796NSpEx988AGmadKxY0cGDRrEgAED6N27N3/7298YMXIkgwYNwjDkTjnLNEkkEpmeO9jbGX2/kwLpmBRFNqC7B9994e4y83g8HHvssSQSCYqKikgkEhx99NE0atQIwzD4z3/+w9SpUznxxBMzNuSAJub8yqi7MeAP4J5q5D4mk1tuuYVevXph2zbHH388l112GWPGjMEde/Tcc8+lJxTIhkshZH0qJycno5JxHLkZtaSkBFfh456cvsPe+6QARzjIVhU1neqTOWJNk/1Z69f/m3feeovHlixhx44qPB4DRaleF23/ZhM0WbLUHl6vQXl5FEPXCIWCPPfcc/jSSw8BEokYH37wAf36HYmqqliWiSPkvqY5c+YQiUQ4//zzsW0pRnBtQSqVorh4BwIbIRy0PSbEaPzQPikh5C6xnJwcGjdu/L2RVCAQwDSlYMM9NJeWlmZEYLZtM2bMGHbu3El5eTn9+vVDCJGZlOGmEesa9dJJgSw8JhIJotEoS5cuZerUqSiKwvDhw/nrX//Kq6++yrBhwzIpvGAwSCwWw+fzoaoqc+fO5YYbbiAcDqPrcrTIM888w7333ovH48Hj8eBOU/8O+9jMq+s6kWiclq3aULxjd+YkpShSVvrOOxto0aYNgwYNIh6PYxg+TLP2G4izZPktY5o2BQVBvt2+i4K8QuJxnaA/SGlJCQX5Bcyf/wBl5eX07dcP0zSxbRMdlbKyEpYuXcrVV19NMBikSZNctmzZTV5OHslkkscff5z333+XktJi8vJy2bMBX08fXF2bUI1lWTRs2JDS0lJ69OjBzTffTF5e3j6jKbfXSYjqhnUhBOXl5RQUFACwaNEigsEgS5cu5fTTT2f37t2YppmZclIXqZdOyn2BvV4vTz75JFVVVXTr1o0dO3bQtGlTevTowYsvvsioUaMyqTddl+NH3nrrLSZMmMCECRO4+OKLMc3q+VennXYaEyZMQFH+x0h+QY2Kt4ykhBAIFCxHcP11N6FpsiscFLxehRdfeIHx48djmiahUIhkUj6vZVWPQ8mSJctPQ1VVIhGTUCjM1m27yckJkEjE8Xg83Hfffdx/370sWrSIYwYOxHYUNM1A01XeffddkokEJ510Enl5eZSWxgmHwwghZzxOnjyZ66+/Ek1XcRwbOZcx86x72YTv4mZ/9rYrQsi6laIouItaAT799FMcx6Ft27bk5+fjTslxV88PGTKEdu3acffdd3PBBRdkMjJ1kR+wtHUXTZM7mxRF4fXXX2fHjh2MHDmS5s2b0759ezZu3Mjzzz8PVPdICCH473//y+jRo5k4cSI33HADqqrKCCgSQdflvCw3vD9QFEVBAHq6NuXWtRxHUFxcxrdFRUyYMIFwWE67cNOJqipFFlmyZKkdvF4DTdMoKCggGk0QjcaYPXs2l19yCVddfTVDhw4lnkjg9/tRFJV4PM5VV11Fr969yc/PR4jqNL3HY8h1KUJk7MI+SwD/A9fW1HyMeDxOKiU3I9i2TTQaRQ5HVlm1ahVHHHEERx11FIqicPzxx7N161bi8Ti2bZObm0sikciUKuqqg4J6Gkm5L8ru3btZt24dr732GkJINZ2r+LvwwguZNWsWU6dOxTAM7rjjDm6++WauvPJKpk2bhq7rmcY+j0eOTfkxzumHcBwHw9DZtWsXAI0bNyYalRdllixZah9FUZCT4E2SiTiRSCWX/98lbNm6lWdXrODII/shBPj9PiorK/F6dYqKivjmyy856qqrAPm+FY6FZdkkkwdHees4Up3s8/lYuXIlPp8Py7L48ssv2b59O0888QS33HILDRo0QAhB165dmTVrFldffTXJZJIFCxbg8XiYPHkyriKw5milukS9dFKqKmWcTzzxBMlkkn79+uH3+4nH42hatTpm4cKFTJkyhffee4+ZM2cyc+ZMzjrrLFRVzsbyer0kEgl8Pl+mR6o2kaG8rEmdccYZBAJ+kkkpmc+SJUvtIzMUAsNQsdB4+OFFrH79dZ595hl69uiJZZmyPh2X+6VyckJ8+OGHGH4/PXv2TBt7P2ZKrn5JxA7OxlvbtkmlUkSjUYYPH45lyeHGhYWFFBQUMH/+fLp27Uo8HicQCHD99dczcOBA7rrrLnJycujQoQMzZ87MjE5yhSF1kXrppBzHIRqNcuuttzJhwoSMusWdgG2aJmPHjmXevHk89dRTPPLII1RVVbFo0SIee+wxVFUq8FRVZcmSJfh8vlp3UOA6U4tmzQqZNm0ayWQSy6q7ueMsWX7tCCF3MSHkv/+1cCF5OTncdNNNYDvohkZVZSUnnTKeSWecnVb07iIcDNK4ceNq2bllYRiyln0w0HUdwzBYu3ZtZvKNpskZfk2bNgXk7i/DMCgvL6dp06asWbOGr7/+Gk3T6NKlS0a9LDM2dVPZB/XYSeXl5fHAAw/Qt29fotFoJtR1876DBw9m06ZNhMNh2rdvj98vV8+7qhmvVy4dzMnJoabUtLYxDANN0xHCJB5PEgrJFehZsmSpfXRNw7EdUqZJfn6I+Q8tQBUCQ9eJRqOEQnKXXNOmLdL1YBg75gRatmxNKCRn5ymo5OWFiMUSeA6y8W/ZsmXGQcVisUxbjRBSWm7bNnl5eUQiERo2bEizZs2Ix+WCRsdxKC0tJT8/PxtJ/dpwTzdDhw7d6yvVRU2Px0OHDh0A9ljF/HNjWRaxmIyqvF5vxkEJUd3sJyOrbAowS5afimM6KIBX9xCrStKrxxF736UGcnpEXl4hQwb/HtsCkFmOeDyJolQvUK1tXDulqnJCDZBZtVEzKnKzLjXXcLij4FRVzUjTD1bE93NQd7/zeoLHI0fvu1J3RalevuYqiEzTRE0vxsuSJcuPZ0/d3f6o8GrrPll+LFnL9wti23LRoqoqBINypbllWSgKCCFXi8tZfwp1N1jPkiVLlh9P1kn9gng8BqYpV4aI9JRzd5W448gtvbadDumV2q+HZcmSpTbIpuIPJlkn9QviNtrpus6mTZvYtm0bzZs3p2XLlpkV1m5TcpYsWWqDrEOpa9Tb47k7Qj8ejwMyMnE/J4QgFotl7muaJpZlZb4uZ3bZxONxhBDfP6PvJ6IoYFpJbr7lRo4e8DsuufRiBhzZjyuvugLTSqKoAk1XDor8PUuW3yYOqgpC2FhWCk1TEMLG7/dgmkls2wQcLCuFrqvYtolhqJmvhcNebFvueDPNJF7fwVH3uTana9eutGvXjo4dO3LYYYfRunVrxo4dy+bNm6vl9EibBtLuLVu2jA4dOrBlyxZA2rO63HtZLyMpx3Hw+XyZ/oBoNMrWrVt57733OOSQQ+jTp0+mZ0pRlMx9Vq1axe7du2nWrBk9e/aksLAQd0SRKwOtVRRYtWoVd82ezf3z53PSSSexZs0azpw0iUGDBjFy5Ei8Xi8VlWV4fNXqnSxZsvw45NQZD4lEgoKCXCoroyQSCZYvX04sFqNRo4b07t2XBg0aYNsWuq5TWVnFRx99yMcfbyQ/P5+BAweiaRo+n9ymfTBwJeeVlZWZEW3JpNxtt2rVKoYMGcK8efMYPHgwILMyqiqnsc+cOZMvvvgio+jTNDmKra5SL52UbJKVo+ndF+7FF19k3rx5DBgwgD59+mT6BhxH1oKuuOIKHnnkEXr27MnGjRvp3LkzTz31FIWFhThO7Y9EAnn62b17Ny3btGHMmDHs2LGDfv360bFzZ3bu3Jnug7Ckw/1fEyqzZMnyP9F1lcrKKsLhEDt3lvDZZ59x3nnnEa2qoku3bmz86COOPuYYZs6cSSgUQlVV/vKXv7Bs2TIOP/xwioqK6NChA48++iim6eAcpP4jd1ao3+/n3HPPzdgzgHPOOYfJkydz3nnn8f777+PxeDIH6D//+c9s374dd86oi2VJh1sXqX3L+yvAceTsPtuWG3QDgQDLli3j0ksvZe3atezatQtVVTMnjA0bNrBixQpee+01XnnlFT7//HOEEDz66KN7bN6sbWzbok3rFmz95mtWrHiOBg3yeeuttWzbtoW8vBwURWCa2Vl+WbLUDgIUBUdYJJJxQuEAjz76Lzp17sC/3/k3CxbOZ8VLK1j92koWLX6EyqpyNn2+kS++3MTKVS/zzLNP89LLK9hR/C33zpuLP2Dg9R6cdJ9pyp1SbguKpmkkEomMbZs0aRJbtmzh1VdfRQi5YXzRokW89957/OlPf8K27T3KG3XVQUE9dVKu2MDtNfrkk08oKiriD3/4Aw0bNuTJJ5+UvUeqnIAeCAS4/fbbOeKIIxBCkJubS+fOnVm8eHFmQsXBiKR0XWfIcccz5557uOKyy2jZsiVTpkxh6tSpjB8/nlgsVqfD9CxZfl0I4rE4TZo0RE9PmNj+7bdcdtlleL1emjdvQosWLWjfoQPfbttG27YteOWVVYwcOZJDDjkEn89H06bNWLBgAWeccQaJRIqCgoOThnediq7LNUGKomRKGLqu0759e4QQfPPNN/h8PioqKrjnnnt4++23adKkCUKIOjtQdm/qrnv9AdwmWJAnkenTpzNgwAAaNWrEcccdx/Tp0xk3blzmhezcuTMdO3bEceQYkXXr1rFu3Tr+9a9/ZQqOtm2zbdu2zGws27a/Pw24j828mq6RTFmoms7u3btxHAdHODzzzLPcdtvfOfe88zjm2EGsW7eO2bPvoEGDhowdOzZzSsqqkrJk+amoeL1+qipT2DZ4PQEWL34cIRyEI6goj1JSUsKOHTvIzcujrKyKLZu/pk+/fvzrXwvZumULjZs04fjjjycclssHd+4sRzgO33zzDatXvw6KDQj2PFv+8GZeXdcxTROPx0P//v0zmRP3sK1pcmafoijoutwiHA6HM/bHsiwefvhhhg0blhnr5vHIpaxuTb1murCuUS+dlKt68Xq9bN68mSeeeIIFCxZgmibDhw/nhhtu4OWXX2bcuHGZU4oQAk3T6NatG5Zl8ec//5levXpldrL4fD62bdvGq6++iuM4meGN+1T+7WMzr2VZaLqH3LwCSkpKMgXcp5c9Td++/fjTlAswTZM+ffqiqhr33juPkSNHkZOTQ1FRETl5Dfd+lixZshwgQig4Dti23G4rhJOZ22cYBvPnz+fb7ds56eSTMM0U3367nRm33EzPXr3o1KkTy5c/zQP338drq1dLcYVpUl5ezueff86bb67FshPouoZl1VwBr6cPrvvezOvxePD5fOTn59OnT5/MIVtV5S45VZW7pqA6DZhMJsnPz88IKu6++24+//zzzNc0Tc4ade2bbdtZJ/VroubpY+3atRQWFqLrOm+++SaaptGmTRteeuklTj75ZFRVpbS0lLy8PBzHYe3atXz11VfMmzePCy+8kFtuuYX8/Hwsy6J///4cddRRCCF3UynK92zoFUpa41AdSQkhQFGxbEFFeSQdoQl27tzJ8BEjMAyD/Pw8otEYvXv3Zu6cOQSDAcrLy2nSuCmxZM2LPkuWLD8GNwvi8RhYli2dlKFRUVHB/Pnzefnll1m7bh3NmzfHti0SqRQDBg7kjjtmoWkGV1x+KSec8EeuvfZa/vnPf+DxeMnPz2fYsGFcddXlKKqMor4bSVHDJuyJm/WJx+MZZ+SWK9xIyLalulgIudpnzZo1lJWV0alTJ/75z38ihKBHjx5YlkUymSQej3PiiScybtw4pk2bll0f/2tDVdXMC7x06VJSqRSTJk0C5Ivv9/t5+umnue+++7Btm4KCAmKxGIFAgM6dO9O5c2eKi4s5++yzmTx5Mvn5+ZnTTSqVSkdB3n07KBfF/UNerYqiIFCQvReyB0tRFDp06Mxzz65gyp8uoKpS1qDmP7iALp26YqYcdM1DLBYHrV6+VFmy/KzYtp1ecREikYiSn5+DbdtMmzaN1StX8vpbb9KgQQPpfPLyadGiFf379ycYzGX37t0ADBp8HMuWLUPTPNi2FDK4EUs0GsHv92Umx+xBxibsiXvYDYVCuA3+rm1xyw3uc3g8HoqLi3n44YcZMmQIxxxzDEOGDOGqq65C0zQsy2Lx4sWcc845LF26lKZNm/6wnaoD7OM3WfexbSkL3bFjB++++y4rVqygdevWmfqOacp9Utdffz3Tp09nxowZNGzYkLPPPhuQTi4/Px+QF0nNVR+KIptr3VB6fy8A27FxHBCKVBR6PB48Ho2zzjqLKy67jBPGjGH8hNNY8fwKtm3dyu2zZxOPxwmHA1RVxfD46+VLlSXLz4ph6KRScrFoMBjk4483MvWC82lYWMhb77xDx07tqKqKoqoKO4rLaN6sGdFolIqKCnJyctB1nVQyiZIOlRzHwbblXik5gzOILcel7xduVsYtN9R0TpYllxXefvvteDxyO/jHH3/M+++/j2maPPjgg2iaRklJSSbbo6py3b3X682kCkFGae509LrG/lnYOoab6ps7dy55eXkceeSRNG7cmBYtWtCkSRPatGnDSSedxKxZsygvL6dbt27MmDEDkE7INE0WLVpEq1at6N69O8FgEFWVeWHbloIJkM5sf5E1KZlqEEJKQoVQ6dGjB0uWLuXiSy5h8+ZvOHXcOF5ZtYpevY6gsDCfiopIxmFmyZLlp2FZsjZjmnKqzJ133EnKsvjrjBm0a9eOVErWiOLxBOFwmIHHHMOjjz6aScMlEgmefe45JkyYADjk5OQghCCVSpFKScXwgUyIsW35/QghMopjVZViCF3X6dq1K0899RSLFy/mscceY8eOHUyZMoUNGzbQoUMHkskkDRo0wHHk4AJd12nRogVt2rTB3bDwvWWJOkK9PJ47jkNJSQmLFi1iypQpCCF3M6VS1T1Hffv2pbCwkBdeeIHTTz+dF198kQEDBtC6dWvKysqwbZvnn38+8+K6J6cfm9v1erzYArweqb6RKhwZygeDYQYNGsKgQUMy97dtqKpKEgiEiMeT+8oSZMmS5QBxHYBhGMRiMd5cuxbD0JgwYQKGYaBq0nEMHz6Cv1xxOb/r34+ePXoxcsRoWrVowY6dO+nTqy8XXnA+0WiCaDSOkrYRHo+BooAQDmlz8T+pKTWviZu5WbFixR6fr0kwGMz8u+b/HzVqFKNGjcp8DNWPVxepl07KsiyaN2/OJ598gmEYKIocfQTyJOQ4DkOHDmXjxo2EQiFisRj33HMPAB999BGNGjWiQYMGqKpKLBZLRz2uFLy22d/H/G7BNUuWLAeGZVmZyKJFizzee+89hKghglJklkRBJZUyiURizJ49E13388EHH9CzZw9isUoSCQtV1Q4oasry46iXTsrj8WCaJn6/PxPWuzlfr9ebEUC4PQV+vz+zeLBz5857nEp0Xc+IKmqf/XVQWbJkqQ00TdaELcukqChOIODFcWQLimVZCKTDsm2HnHBOWg0oEMKiXbv2CAGOI1N6pmlimQdnLFKWauqlkxJC9kC4zWw1HUwymcwo8+TFKCWeIFN5bm4Y5JpmN0w+eJFUlixZfi50XSMel+OCVFWORgP5/hZCgCJT+5pqUFUl1bZuLVrXDcrKKvB4PASDOtGooGRXac2Hz3IQqJdOyhU26Loc0giyCc4wjMxF6UZXruORpytZNHUxzeou74PjpPZO4Sl7fW7vj7NkyfJTSKXkZAfHkeOFYrE4qip7kuT7Wzor4TgoinRiti2jK1fwpGkaRUVlBINBGjbM2/spstQydVfy8QO4jkjTtMy/XYSoNvquqsYtpHq93swF6Tq1H6Pk2180TSUajeDx6DiOTUGBB8exKSsrQdc1Eok4mial7lmyZPnpOI7sZwJpCzRNz8i1NW3PSQ9+v5dUKoHjWKRSCQxDw7JSgEM4HMS2Taoi0T2foJZw7ZTjyAGzjuNk+rQsq1riXtM2mKbcG5VKpYDqnXq2XbdTkvU2knJl6Ioip0/oup55cYWo7h/QtOrxISCdkXvKSiQSeL1eKR9P57JrE8uyCIeD7NixgxdeeIFEIkEoFOIPfxhOKpUkFAqQSqXk97T3f86SJcsB4x5MHUc2xtq2nNCgKAqpVArd0IjH4xiGrDm5DsytQeXkhEkkkhmbEAgc3N6jrVu3plf2yIkTRUVFNG3aFNu2MU0ZFbqqZdeGuYds13Ypiixr7H1gryvUfnjwK8BN3ck8spwiHIlEvpO2q3niUBSp7nH/dr9W89RV23g8HjZu/IQTTzyROXPmsGvXLm6//XYGD/49VVVVxGIxDMPInIiyZMnyU5HpPE3TiEQiOE61iMpNAxYUFKCp1at+dF0afU3T2L27hHA4gGmaBAIGprn/jbsHgmVZRKNRjjrqKJo3b06zZs1o3Lgx3bt355BDDuH111/H6/VmHFUikWDQoEEccsghdOnShUMPPZQhQ4ZkDuF11UFBPY2koHoyhBtNffzxxyxcuJCTTz6ZY445BthTDKEoCslkEl3XWbBgAT6fj3HjxmXSfgfDSSWTSRYtWoSZTLJ02TIaNSrgnHPO5qQTT+Lhf/2LK6+6gt27y8jNzSGeOjhvhixZflsopFJSPKUockzZ6tVv8O+33iaZSuHx6gwbNoxevXrj83mIxZI88cTTfPXVV+Tl5aIo8gA7YcIEKipieNKtLbWNpmn4fD6CwSAvvPBCpj/z888/58svv+T8889nxowZjB07FtM02bx5M9FolGuuuSZTwgiFQpmoStf1Ws8E/VzUWyflnpbcaGrlypW8++67fP7555lx+DVTeSAb3l5//XXOO+88Jk+ezIQJE9A0LZMOqO2eiEDAy2effcZxQ4fSvHlz/H4PoHPa6afz4ooVTJ02jUAggGXV7Zxyliy/Fmoa6lAoxNKlTzH5jIlMmTqVE044gTvvms3I4cN57vkX6N1bTiS//tpr6dSlS2bjQTweZ9iwYbRr1+6gbeZ1ezQTiQTHHXdcJpIbMGBA5uunn346GzZsoEuXLnz88ccMHDiQM844A8dxMrW1ujwOyaVeOilFkUocN/qJxWI8/fTTzJ07l9NPP51t27bRrl27jPzcDeuFEMyaNYsWLVqgaXJYo6rKcUiuw3Mdmvv4ByKoEI4AtXpsk23bWKZJMBhMF2dlUffbb79le1FRRsRhWVZ2wGyWLLWAELLerGkKsViMxxcv5vxp07juumtRVY1Zs2ZRXFzMqlUr6dlTLkHNyctj4cKFmQGwHo9BPJ5ACAfLsnDStkMIgWM7qOqBRSzu+9y1Ja5d8vv96bqZtDuKImtLAMcddxw333wzH374IV26dKG4uJhGjRqxYMECIpEIrVq1YtiwYZle0Wwk9SslEokQDodZtWoVyWSSZs2acfjhh3PJJZewfPnyPRyOpmmMHz8ev9+f2WwJ0uG5jkxV5fIwqC7AuhfNHggNueCsep+UEAJV07EdGYqnUil8Ph+dOndmwYIFTJ48GcuyaNiwIevWrUPYNsFgkNLSUjmlPSlrZFmyZPnxqKqGbTtEo3E8Hg/nnHceffr0wjA86LpOs2ZNqKysJBqJEI/HicViNCwooGHDhjiOna5Vuw5FZlf0tDIYlHQUI/ZyVArVSw/3lEC5jsN1UJYlZ/btbX/cf2uaRnFxMa1btwZg165dxGIxvvnmGxYsWEDXrl0pKSlh06ZNXHnlldx0000IcTDaZ34+6qWTciMgd5LEnXfeyYgRI2jRogW///3vmT59Op999hldu3bFsiwSiQQrV67kP//5Dy+//DITJkzIKPxc0YXP52PdunWsWrUKkE7KdVjfRQW5RUreFPAH/MRiCXSPjy8+/xyPR05SP+uss/jw/fc5fcIEDu3Wje1FRXTr1o3XVq0iGo3i8/mIx+Og1t3CZ5YsvxbcGjPIPspjjz0WRZEN/Mlkkk8/20hZSQmHHd4Dr9fLG2+8QUVlJSNGjGDnzp1EIhEmTZrE1KkXAg6W5VBVWcnKVStRFBvTckVONWvY0qFV24Q9CYVCRCIRWrZsyaRJk4hEInvM5XNxHDlxvbCwkKKioszh2e/30759exYuXMiIESMwTZOXXnqJs88+mz/+8Y906dJlj5+7rlEvnZSqyj4HXddZv349L7zwAueddx6JRIJTTz2Vc889l1deeYWuXbviOA6hUIi//vWvLF26lFatWhEMBlEUeSoyTZNwOExVVRX9+/dnwIABJJPJHx40K5DXJEB66WF5RTm5ufkIFG6++VZ0XTYad+7cmQcfeoji4mI2bNjA5X/5C6Zp8uknn2QuXiEEStZJZcnyk9F1uarDzYo4jo3jWPj9fnJzPRx/3IW0aNWKP4z5A4WFuVRUlBEKBnnkkUfIy8vlySeXcNkllyCE4C9/uRzbSpGXl8fAowdy8cUXEwz5+K4zUveyCdW4qb6aWZlQSK6m3xtFkTNIo9EopaWleL1egsEgZWVlnH/++YB8vGg0yujRo+nRowfr16+nU6dOdXrA7P4XVOoQrpNKJpOsWbMGwzDYuHEj9957Lw899BC5ubk8/fTTJBIJUqkUJ598MsOGDaN79+5YlkUsFss8jqJI1Z+rBhJC9ky4F5Wbi97zRvqW/hhBMBDEcRzi6ed0Rza9+OKLbNiwnm7dunHmmWfSpEkjLrjgAvr260dlZSWaJiPCLFmy/HRs28bn86Jpsq/IMAxs2+bDD9+nW5cj6HHEEaxZswYFhWTSZPToMSxZuhRN00ilUowffyqnjhvHs88+SzyexOfzkkz3KXm9HizLwrKs77EHNWxC+lazzqQocuqFZe1byeveV9M03nnnHUzTpGPHjuTn5/PII48QjUaxbZu8vDxisRiO47B9+3b8fj9VVVV7P1ydoV5GUo4jm3l1XefRRx9l4MCBvPLKKxmxQu/evfnvf//Ljh072LZtG0uWLKFDhw4sW7aMRCJBUVERW7dupW3btsyfP59BgwbtcVE5jhQ4uLd9orh/yK8bhoEDeL1yPqBty71U27ZtYe7ce+nTpz85OTm89NJLbNiwgcsuuxSZg5Z553BedqdUliw/FXnoTOE4TlrdTg2eEAAAIABJREFUa/LNN99w6smnMuT447nt1ltJxFMEAkEqK2Pk5uaSSqUIh0MkEgl27y6l/SGH8MKLL2IYUkDhCic0TcWybTRNHm6/Q8Ym1PiUUt2X6fFIJ1ezJlUT9z6apnHXXXfxxz/+kQEDBhCNRpk7dy6hUIhRo0ahKArRaJSioiLOPfdckskk4XB474erM9RLJ+VeIP/5z3+IRCKsXr2avLw8TFMuFXMchxEjRvB///d/zJo1iwcffBCormW5Cr+JEydKmWla0qnr8tflCi72eSH+AEKAqsjTlFT0CYYPH8WGDe8zceIZhMNhKisq+Mc/bmfgwGOwLAfLUgmFclC/e83uEwGIA/u2smT5zWCa7vYDgc+n8dJLqzlz0iQmnH46111/PbquoutSfZtfEOLmm2dQUFDAlCnnYTsWwZCfzz7bSKvWLXCEhaIIdKN6fJoUVB34fBi3vcW1MSAP24lEggsuuADHcRBCsGnTJrZv307v3r2ZNWsWqVSKUCjExRdfzPTp0/n6669RVZXbb7+dcePG0aBBg0z9PFuT+hXhhsSzZs2iV69e5OXlYdtSmRMMBqmqqmL06NH8+c9/5oorruDss8/OpPQAlixZQuvWrTn99NOB6snptY1lWRQWNmLhwvupqIiTTCYJBAIEAh6SSTOdTvB978kqS5YsB4Y75sjn85BKOdwxaxbtDjmEcePH88EHH2RSak2aNKJR44Z06tSJGTNmcPTRR9OmTRvuv/9+li1dyutvvgk4FBbm7P0UtYKMzDQuvPBCEokEmiYnRxx22GFMnDgRXdcJBoNYlsWuXbs45ZRT0HWde+65B7/fz5w5cxg5ciSVlZWZsUp1lXrppHRdZ8eOHZimyYknnpj5vIxeHHJzcxk6dCiDBw9m+/btmfSgm4Jr27Yt3bt3J5lM4vF4ar2J10XXdRRFpawsimGohEIBbFsQiSQQQhAIBBBCStbd6C1Lliw/HtdYm6Zc2+71+cgRguuuvRYzlcLweBCOw6g/jObEP45l1KhRvPP2O1x66WWUl5fTskVL/nn7bBoUNMTj8bB16669nqF2cEsCl1xyScY2ufWzaDRKICBHMzmOQ2FhIbZtM3bsWE488cRM5seyrEy6sq5GUQCKqIdHdNOU3dnJZDLzwhqGgWXJVRyuxDMej+Pz+bDTOWU3dLYsKxMeuwVWV0SxX+yh5JHqPgBbgKKoXHPNdC67/Cps20EI6awMQ0eIPScWu07TndG1P2TTfVmyfD+G6gomBEIYGfVsIOBH1w3i8Th5eQGKinbTokVDEgmTZFI2++fkBNm5swTDMNB1uQy1YYMGrF61infWv82NN16DosJ318d/v7rv+3BtjmsDXCfj1qxisRjxeJwGDRoAcgqG3+/PiDYMwyCVSiGEOChZoJ+TehlJuY7J7ZNynYvMRVdPSA8EApmPhRCEQiFsW0pCXYm5bcsm3v12UAeAK7xwHIdYLA5UKwqhOuSv+TNkyZLlx+Oq7xxHRQgHn8+DpumkUiYgRQwVFXHC4QA7d1ZkDo+KolBRESE3NzeTfgsEArKH8SDhOigp9pBzRRVFqv8Mw0iPTJNKQK9XbhzXddnb6R7Ua2Zi6qoNqZcSdKgWN7jpOjd8VlUp6a6ZPhOieryRqqoZR+He3PvUNq4DAvm8ui7Xifj98oJzv+6eirxeKZ21LAtFOfDibJYsv3UURfYaKYqs8QihoKVHjrmGXToC8Hh8KIqOquooioZheIlEYui6B9sW2LZA4eCk4VVVTi5XFDllwj14uw7LMOTEG0WRS1ld0Vcymdwj8hJC9oseTGd6sKm3TmpvXOfjpvJUtXqHlOuw3I8VRRZP3ZAbDo6TkkKOALYthR7JZJJg0MfOnbsxDC29z8qDECl8Pi/RaBR39thB+HayZPlNEolEMvbBPTTuq4aTSsnGfpBRzr7uU1vYtp2JktxyhDvHzxVMuE7LjZTcg6zjyPUjIH8Oy7J+ePjAr5zfjJNSFBnKy/qPlGS6F2bNr7uRk6bJk5b7efd+tYnsi6iul8mBkjrhcBgh5InPth0qKmJYliyYJpPyQhTZwlOWLLVCIBBAVdVMCk1RFOSeKGWPm88n5/NZlk1ubhA3PXhAxab9xLU5ui4n0ziOk4mg3IhP1+X0DCGqlzhCdfaopiM7GPbr56Je1qT2hXsaURQ5NcLN17ovsHtRuPdzHVTNmpTrwGoLx3GwLPn4hqGyfft2Hn30US666CIMQzpTx5Enp8WLF7Pxo4/w+f30/93vOPbYY9H138zLlyXLQUPWmGRmxX2/67r2nWxFMukuR9QpLa3C45FLEg8Gbt3pkUceoaKiIhMJ+f1+WrduTf/+/TM2yXVARUVFrFq1ikQiQffu3enZs2fGdlmWFFzURermd/0j0DQplgCppnNDYq/Xi6rKMUo1C4w1870HC/fxvV4PxcU7uPHGG1n/739z0UUXkUqZ+Hw+ysqquOaaa3j7rbe4beZM1q1bx4RTT+XhxYsZOnTo3g+ZJUuWA8RNlSmKgjv+zLZt9o6QAgEPW7cW0aRJQ/x+P4ahYJsHJ+/uOqlp06bRuHFjNE2jvLyc4uJibNtm8uTJ3HfffZnadSwWY9SoUWzfvp0GDRrw+eefc9NNN3HllVdSUVFBbm7u3k9RZzh4FvgXxI2QauaNn3nmGe655x5OO+00Jk6ciGVZeL3eTOT08ssvs3z5cqA61G7VqhWXXHJJxlG5F8SPxXFk17grfnDTBfPnz+e5555j986doEAw6Mc0LSKRCB9//BGPLlzAI489zqBBAzn66KMJhULcN28ev//97/eoo1mWhWbUy5c0S5ZawUagaxq2ZeE4DolkgmVPLeWtt9ZRUV5GOBTiD2PHMmz4CAIBL1WRBF7DQDg2X2z6imuuvZYJp09k1OjRRGIJdFUFqoVXMr0m34/7Q826t4tt2/h8PpLJJE2aNOHDDz/M2KQtW7awevVqZsyYwbRp07j77rtJJBIsXryYvn37cscdd+DxeHjssce48cYbueiii8jJycG2q3fh1TXqbqLyB7Dt6t6CREI2xi5fvhxFUbj33nsB6cgcR8o7dV1n8eLFbNmyhU6dOnHIIYfQuHFj/H5/JlxOpeQQSZATKNxGOtch7nkjfUt/jMC0THRNS6cRBNFoFFVV0DTB4sWLGDDgKO6Zdy+WKXPMppnCskw2b/4adI2+fftSVRVDURzOOeccNn/zTfq0Vy2Tz5Ilyw+jGRoVkSp0r4Zpmyx5agmXX3EJY8aMZvnyp+nY6RDOPmsSb659g6QNjrCx7CSGJnji8Ud5acUzlJbupCpahS/gJWXLuo8UZEl5u5uJ+a49qGET0reazsy2bWKxWMbOuEIJN7tjWRaFhYVMmjSJyy67jLlz57JhwwY0TWPp0qVMmjQp83/GjRvH0qVLCQQCRCKROuugoJ5GUpomG/YSiQQejwfTNHnrrbd44YUXGDFiBO+99x49evRAiGpZuhseDx48+DsFSSGkjNPN63o8nsyFuF8IMHQDWwgsW56c/H4/uq4TjVZx33330axZU9599z0UVa4QUFUVj8dDVVUVjRs3Ji8vL/2cTiY/XVxcTLNmzTLRoPb/7J13nFTl9ca/t0/fXZZlWRBrFFBEQAUsiGJQUJoKiAURO+qKUTGKYMQWNCZqEkvU2GOJiA0Buwb9JWI0GntEVBCRXdg2M3fm9t8f79xZWBaFBGLAeT6fgZ2Z2++d97znnOc8R1EK3X83bhZXQgk/NgjSQ4J83iaRiPLEE08we/ZsDj10CJlMhqlTp/Lyyy/z/PPP03+/A4gYBlLgMX/+fP7vjTeQZEFmCI2GJEkoa30mb2JLnXCiDK0elOOITrptEe7DNE0GDhyIYRi89dZb7L333ixfvhxFUbjlllv49NNP6du3L8OGDcP3feLx+HoGcWvCNjn9Dh+gSCSC7/uFXjDldOvWjf79+3PGGWcAIqwXeluZTIbDDjuMFStWsHr1anRdL9Yl+b5Pc3Nz0VsJvShJaq2lWvdF4dX6WUu6BVmS0AqeVHicyWSSWCyGbRdaPBc8N5GrEkoT5eXl+L4o0AvZgJ7jsGrVKkBQ0kWYYfOTO0ooYVuCYag0NDQXBnwRQTnhhBMwjAimaWIYGmvWrMHK5YjH4+TzeZYvX8YJxx/PsRMmoGga6XRmHTq4pmkkEgk0TTDu8vn8BsaDdccESRI1UEGwbrgwTFG0hYiwCBGCyspKLMsil8sVOwhfdNFFvP3228RiMc4991xOP/10ZLmVELK1Yn1zvQ0gvNGuK7ru3n333Rx22GEEQcDIkSO59957ee+99+jduzdBENDc3MyaNWsYPnw4AE1NTQRBwO23386ee+6JoiikUilef/11Fi5cSCQSQVG+QwkiUEESreMptI/XdZ10xiSZKufjjz9Gklr7xogHXRiaoOAV+b7Q3wJRTwWtCsme56JHIqRSKYKgdTYWBCUvqoQSvgumadG5c0eam9KkEhGyikQ0GsXK54nFYrz22iKWfv45l864XHTkNjSuu+56Zl93HYMGDcL3faLRCLZto2o6pmnS0tLCk08+iWmmyZrNxOMxfH9to6BCIK81JrQiCIRsUTabpUuXLpx11lkb9KQ8zyvSzG3bRlVVZFkmEonQ0tLCtGnTOOWUU5BlmaOPPpoTTzyRTz/9lF122WWrTgesfyW2ASiKYPKpqsqiRYt44403uPLKK1EUhYMPPphevXqxaNEi+vTpg+/7vPTSS+y4445F4oSu64waNYoTTjiBRYsW0aFDBzzPY8CAAey///7FGdAGEbAWMahVuy9AImc5XHXlteJ9wRiFBXihh6WqKo4jel9pmoZlWchya14snHntsMMOgIRl5YviuRsZgCyhhB8lFEUhk8kTjUZZ+sVyOnfuSGNjI9WdOrG6fjXnT53KCSeeyKhRo1D0CG8s+gurVq3i1FNvYs2aNfiOg22H+WgRetd1naFDh3LppdPQdAXf95DXmSzKbcaEdWHbok9Uc3MzpmkW6iTX/yWrqkhDqKpKXV0dQRAUJqoB0WiUkSNHEnZS6N+/P9tvvz3PPvsstbW1bTe1VWHrNa/fgTD0BfD666/TuXNnHnzwQc444wymT59Oc3Mz9957LyConuPGjeOVV15BUUQBr+/7TJkyhU8++YSPP/64GN4zDANVVb/bQH0H/CAgYoiZkKZpSJLQ7QsCkURVVRVFVclmsyiKgqLI7LLLLnzz9de8884/kGUJVZV44YUXqOzQoXgc0Wi06HWVrFQJJWwYQSDEZF3Xo1OnTliWQyqV5JlnnmHQAQcwfPhwfv/732PbNrlcjnvuuYdTTjmFxsYGli9fDpKE73t888036LqYQCqFcLuq/nt95kLvqKysrKhoEf6ew7HBtu3CPoTE0VNPPUXnzp0ZOnQojuOw3XbbsXz58mL+KQgCodrerRuw6cf0v4Rt0kiFeaTGxkbmzJnDmWeeyc4770y3bt3YYYcdmDRpEl999RXPPfccuq5jWVbROwoNVdEzCQJyuVy7M5v/FKHhy2azgFAydh2nICYp09jYxIEHHsje++7Lr371KxRF5cMPP2b69OkcM3Zsm62VUEIJ3wcRpWiVRotEDB566GHOPeccTjr5ZK67fjbpdJpkMk6HDjEWzJvHGaedxm677sbIkSPRDINLpk3j3HPPpamphUQi2nYXmwWSJOE4DoZhYFmin12YYpgzZw533XUXkyZNoqKigkgkwrhx43jssccIAkGgeumll2hpaWHUqFFIkrRVa/dtk+E+3xf1TP/85z9RFIXLLrsMWRbii2Gx3ocffsjNN9/MAQccwAUXXMCaNWt45JFHAPEgv/POO3Tp0oUdd9yRVCrV6qlsRsiyYPIFQYCua5SVldF/4EA6d+5IS4tJx44dAbjtttu44Ve/5uCDDyZiGBx33HGMGjWqzdZKKKGE74MgVBkYhmjT8dxzC7noggu4bMYMas+txbZdKisraWzJ4GVkHnnsUXzXRZOgoaGBs6ZMYcr5U9n/oEMoK0timlbbXWw2eJ5Hc3MzAwcOLOaUhJ6nwYUXXsi0adPwPNFG5KijjuLMM89k0KBBdOrUiRUrVlBbW4umtQrRbq3YZo2UqqrMmDGDAQMGFEkUkUgEWRbqEuPHj+e4447jrbfe4o477qCqqopx48Zx22238dxzzzF79mxqa2upqqpqu/nNhvA4DcPAth169+7NTTfdhOu2eoO2bdO9e3fuuPNOTNMEhNZYPp9vs7USSijh+2AYBqaZQ0K05vnV7Ovo1bs3uVyO3/zmN2iawqpVqzhy1Bj2Hbg/vXv3oUN5CiXwWbZsGfl8npouXRk6dCiNTc1EjC0j3Op5otXQkiVL1vGm3EIRcshKDhmGO+ywA08//TSffvopAD169EBVVRoaGojH40SjW8bj+29gmzRSsizT1NTETjvtxKRJk4osPEkS5ANZltlvv/2ora0tMuf+9Kc/FUODmqZx4403MmHCBDxPFAZvCYSzG9u2BcPIskilEkXvCkS8Whgn4f5HIhFse8vN3kooYVuGbdsYuoHnuniew+AhQ7CzWerrVpM3TSJR8d3Xy7+m3z4uiUQC08yhyRKJRJKTTprEnnv2xnVdEvEYnrtlxgZFEd14FUWo02ia6IXn+0JINqwBDceJkFTVs2fP4ljn+z6plGhv7/vrK1tsLdgmO/P+4NgAu69tZ15JkrFt0QFY00TPqLULhh3HwXEcolGDfD6HLCvouopp5gtufLiTVlc+ICh15i2hhA0hkNZKxH/f0CexzjLrMfTE92++sWizd+YtoRXbpCe1tSBMjNq2LWZ4BfagLMsF2SS5SKwwDB2kgLwlOnT6vo8k/XsswxJK+LFiXV9iY6zGWsu0s7gUQLtflLDZsHX6f9sIFEXUcymKUqSRh3T3sHuw4zjouugNI0kSop21kHMqoYQSStjWUTJSPyBkubUlSC6XE3HuhEiO5nI5JEl8r2kqUmFZ3w+wLGur7rRZQgnbFr4vbFjCf4KSkfoB4Tiif5XrukSjEVRVpb6+CVVViUYjuK74Pps1IRDU+Ew6g2GIFiMllFDCpiLYzK8StjS2yZxUyAUJgnXl8EM1CVmWiwSFkEHTtpYgDL0ZhlHc3paoNZBlCctyURSJZcu+5oZf/Yorr7qKqqoOAEiSUKfQNEEnvX729Zx51hS6dq1hG719JZSwxSBJreNCiLAsJcwLu65bHCtEiF0riM8K+bLwOwBN2TK/wXB8uuWWW4rHo6pCvLampoZhw4ZRVlZWPJdHHnmEbDZLIpEgn88XJ7h9+vShX79+W2Ts+m9hy1zhHxiSJDprhhXaIVNuzZo1VFVVFVWKVVW03whrksKXYRjkC4KTjiPYd1uCBKmqKuBjWRbNzU0MGzaMeDRKNBrFtoXQbCaTpawsiee7zJ49mz/eeRejRo+hc+cqlC30AymhhG0VjiPKPUQdkkEm00JDQ4aamo4EgYrniaiGkCASpCXL8igvLyuwbx00TcU0s3TsWEm6Jd12F5sFqqpimibTpk3jgAMOKI5fkUiE999/nz333JPnnnuOZDKJpmk88MADLFu2jMbGRhKJBNFolI8//pjrr7+ePffcs2hst0Zsk6Oc54kBHoTB8n2f++67j1//+tcMGzaMa6+9tlh3oKqCiPDqq68yc+ZMUqlUsQbhlltuYccddyySFhRl87LpfF/ILj311OPc/cf7OPDAA1m8eHHxmAxDxzA0Xn31VW677RZampuIxWJEIhE0LUJhMldCCSVsJBRFKRbCS5LE0qXLuH72bL5ctozOnTvzzYoVHDR4MFOn1pJIpNB1nbPOOoulS5dSXl4OwLHHHsvEicfR0NBMdAvlhsPaqB133JF58+YhSVJxsv3uu+9yzjnncNZZZ3H//ffjeR7PPPMMkiTqoyzL4uyzz2bXXXdlypQpyLJo/7O1YpvMSYWEAxCuvSzLPP3000yYMIGFCxcSdtwF8dC6rsu0adMYP348CxYs4NVXX6Vz586cdtppuK7otrm5DRSEihMa11//G67/1WxOP/10Ak80PguCANf1yOdt/vGPf7Bv//48/sQTdOxYVayfKqGEEjYNsixhO3kUVSLA4867/sCHn3zInMf/zB/vvpObfnsjt91+C/OenUdD42qef2E+Sz//F6/95RUeefQhJp8yiV9cMZNVdfXEE1EkwUHfItA0IWAb6vZlMhlkWWafffbhZz/7GY899hiLFy8utpoPAqHbd/fddzN37lwuu+yy4liyJcav/xa2SSMVGqDQQC1fvpzPPvuMqVOnUl5ezh133FHUvLIsi5deeolkMkltbS2+L6SIamtrGTNmDCBUH7ZEuC8MM3788Yf06bM3qqqi6XpRBV2WZWQZzjjjDH52/tTiMcuyvFU/dCWU8MPABwkSiQRhDqqpsZFZs2YRLYTZ99hjD3r37s0/3n6bqqoO6LrB9BkzyOeFQOuwYcOQZZmVK1fiuqJf3ZbA2nn0fD6PLMvEYrFiKqN3796oqsoHH3yA4zjE43FAeGAPPPAAF1xwAXvuuWeRJbw1C8xuk0bKtu1islNRFC6//HL69u1LeXk5Q4cO5eabby4mJiVJYsaMGeyzzz7kcjkef/xx7rzzTnr27MnZZ5+NoihFN3pLwHVdmppaiMejxcJewdwTrTtUVSMWSwAyiXgK1xWGqoQSSthUyHiuR+BLgIRhGNz+hzs48ICDSCTi1NfXo2k6366sY4eddsKyXA48cBBDhw6lpSWNLMu88cYbWJbFXnvtRT6fJ5FIIFh+bWPv4dBa+H8Thw9JEjJoiqIQiQimr+eJFkRBEFBVVYXrCh2/cGySJIl58+bR3NzMFVdcgeMIeTXP23C3360B22ROKiREGIbBt99+y/z587n66qsBOOyww7j22mt55ZVXOPzww4sMvyVLlnDEEUew8847k06nufPOO7nhhhsYMmQIIAzfm2++yQsvvIAkSUVvLWT5rIN2OvPKsoznQzSW4NNPPy14RMJbisVimGZe6G8VvKQwtqwoSuH/kFEkoyhCEqnVbm5+L6+EErZFyLKG6/ooiorvAYGCqupYeY+K8o7c9JvfokgKBx5wEIYexbZtcmaOJZ99xuzZv+Kjjz7izDOm4LkeuiY64prZDC+//JIgVOSyGIaGCLx8P009NDqSJLHDDjtw0kknFaMkYW7acURbEUkS+XVZFuzksFYyHMPy+Txnn302kydPxrKsIkEkHA+3VmyTRkqWxYCuqip//etfyWQyHHbYYQDst99+dOnShblz57LffvsRi8VoaGigvr6e999/n1Qqhed5zJw5k0mTJvHBBx9gGAbRaJSBAwcWW0iLnk9q+zOUgLVmTq3afT4Secvh2muuKxqpMCSZSETRNKHWHoYBFUV8r+s6nidaR8uKQjKZLD58JZRQwsYjjIp4nlASt20hOG1ZNk899RQ3/uY3PPn00+yxx+7E48IIRKM6u+yyG3fffTfXXXcdd911FwcffHAxOhOJRhkyZAjTpk0jElE32WsCIZGWyWSA1jQFiOMN2cWSJASydV3nrbfeIp/PF9v5eJ7H4sWLWblyJYMHDy5S6UNszemBbTLctzbmzZtHx44dOeqoo9h7773p27cvqVSKF198kbKyMnRdp6qqisGDB1NRUYFlWei6zqBBg2hoaOCTTz4pyhKFMxjP8wh19oJA1Cms+6Lwav3M8z0IWjvz2rZQZvd9H9d1MU2L5uZmYvE4nufh+wGRiGAgQmvdVuD75PN5FGWbv3UllLDZEYbHFEWw/FRVSI/dcMMNTLvwQm657TZ69doD3/dJp00UJaClJUtVVUdSqQTTp09n2OGHM2PGDCAgnU4XxwNNU/A8cF1vvd//hl7h71/TRD+5IBBT2jCkb9uiS4PvCyZwSKB4+eWX2WmnnRg8eHAxdfHJJ59QWVnJoEGDcBwHSRJlNuG6Wyu2+an4vHnzeOmll/jJT36CLAvBVs/z2GOPPbj11ls57bTTGDBgAGvWrME0TSIRUSNRXV1dTFjKsij2C0OIIYLgO5qJSeE/4nvf83E9D0kWebCQThqNRkmn01RUxFFVleamJhzHIZEwaGhoJplMkM2aRCI6QUChxYCH63poWslQlVDCpiAMrwVBQDQapbm5mSlTpvDh++/zbd0qGhpWA2Jwj0YNnnzyKSoqKujVqxe6rhONRtl9jz34y6JFZLMmlR3KicdiyLKMokg4ToCmh17LBsaGNghzR2FUJpy8KopCKpVi1apVVFZW0tLSwmeffcYDDzzArbfeyp133knnzp0BMRa999579OjRg7V7R4WT3NAz2xqx9R75dyCcLf3617+mpqaG3XbbjUhEyA4FgYjxjhgxguuuu45sNsuUKVP4+9//zkcffVScccyZM4eePXuy1157FRkyhmGQy+X+Lfq3LMlEDNEVOPyRiPCeg6qqNDWZdO1aw6TJk4nFIth2GEsWbL4gCLBti+NOOIGqqqpSqK+EEv4NhGkAx3HQNIXf/fa3fPj++9xz332YZo5kMln0PEwzx5IlS3jg/vuJRiMoiszKlct45OGHGTlyJLFYDMuyMHM58vk8QQBCj7PtXjeMIAiKFHNorfGUJKkYtRk1ahQDBgxg6NChTJw4ka+++oo5c+Zw/PHHF5cNgoCWlhaOOOKIohcWjjOh0dtasU32kwrd3+7duzNx4kRmzJiB74uEo+cJJYpnn32WESNG8PDDDzN27FiuvvpqrrzySsaOHVsM8z399NP069cPEA/PRsd1N5CTattPyvfXWXCzIIBSP6kSStgAFCRM0yQajRIEAT179CBVVtZ2MUaNGsmll17C6tV1DD98OIlUigMPPJA///nP9OjRg7vuuosdduhGS3Mz7779Nm8t/huzZl2OJBV+/qXf4GbDNjkdl2WZFStWcOmllzJgwABAzKBCQoWiKOy9994jnqVQAAAgAElEQVTcf//97LzzziiKwoUXXkjfvn1Zvnw5nudxww030KdPH0zTJFZw50sooYStH5FIBN/30bSAq6+5GssSeZ+10aPHrjiOQ+fOnXnwoYf4+9//TiaT4brrrmP//fdnu+1qyGSEsSthy2KbNVLV1dWccMIJxcRjaGRUVcW2bTp16sTEiROxLAtJkkgmk4wYMaKYd2ppaQEgFosBIk5cQgklbN0IiQTZbJZczuPoo49B1wWZaW1YVh4IiESi9OjRg1122QVd14vRFFlWSaUM8jlz3RVL2OzYJo1UEAgWjCQJuqnvt4rHKoqCpml4XmuuByiy+kJaaiqVIpfLIcsymqYVt1VCCSVsvXAcC5CJxw0sy0OWBXGhLUT+2sc0RT5a13VkWcayLGRZRpJ8LCtAUzcyBVDCv41tMoYlSaKeAIQH5Tii221Yd+R5HrZtY5pm0fDIciu9XNd1fF90xwW2mPRJCSWU8N9FEAhZId+XC1JC7Q+Btm0XQoJaMQoTRlxEpCVLJpPZ+Dx1Cf82tklPKny4oJU9E3pMsiwo5SE7LggE26/twxYaL13Xt6gHtSVYK1tQ83KzYWMJHuG5bMSiJWxmbIv3KJBAVhQ838f1XHzaLyPRDANZlnBcrzjB9YKArJkjCAISqRSyLGGaecSZF7YhAUFIiNr8xKgfI7ZJI7U2ySE0Pu09iCA+b081Ilx+Q+ttDgTS5jdSUrApP4uNX3LjsXFnJJb6/v0HEiibRED9/m1uGrbEvrfENjcFG7f/LXePNhbfv2+Bjd93IEliaUnC8TwI37dBEAT4go6LpCgFZT7xtwR4foDnByiqjjjOtT2yoPAK/5bFfxt7OiWsg/Z93RJK+F9BeyNICf9bKN2jErYgtklPqoT/fUhQGtz+x1G6RyX8L6BkpH7U+KFHoC2x/y2xzY3Fltj3ltjmpuCH3P8Pue8S/ldQMlIl/HDY2Bh9aaz64VC6RyX8wCjlpH4ECALRQFGShB4YBEgS+L6L69qAjyyL957n4HkOjmMhy0GhjsRCtMn2keUA17VRFJBlCAKxDdvOoyitdWlBIBSeN0Q8kQjwHZuYoeHZFlFdxrMtJN9DDlw02QfPQQ7EtkJWZqhFpiiinUnI2hSUYY8gcJAkF/AL5+Cj6zKe5yDLIEkevi++V1XwPIcg8PA8u3COHuDjujaGEWortpYhhLpo7SHcriyLa+P7LkHgoaoSqioTBB5BIBpatoXQfAtQlFbNNnENXSIRHd93i9vI5bJIUlA4p4AgEOcUi+lQ6GGmaRKe5+D7DuCRz5vFewkQjYa1ggGet4FeQ4GPHPioUoDku1hmFgUfhaBwn3wk30PyxTVZ+76DuFaeJxr1feezIIlzB1GvKJ5NH1n2C9fMQVEkfN9FUcR5iesYfu8TlpVIkmgWGG6vhK0fJSP1I4Dvi/YejmPRqVMcx3FRVY1IJFJsjJZOi86jlZUJPM+jujpFY2NTsX+NJAnNMxA1aI4TdgUVhqO8PFFoISIYlZomxC031GxNU1VURSGTzuC5LrblIksSvufhuT6+B5qq4RT6/YSDtqIouK6LJEkYhmi3IEkekUgEXdeLNSxffvklX3zxBbmcKN6UZZlMJoPvi8FTkiTyebFtSZKoqEgiSRKqqpHL5dA0jWw2i6ZpOE5Aly5lyLKQ1FE3UMCpKAqKotDS0lI0qI7jkM+LNizAOuUQayMIhKF1XZ9MJkNZWQyjIEicTqfRNK1oKKurOwDiHGRZ7FNRFDIZs2B4ZDIZE03T0DShnl9ZWUE+n6eyMlU4L1EX6Dh+UVWlLXzfR1NVXMdClnwihlHobOtj6DqqouB7Hi3NzQSB6HsWnrfvCyHXeDyKqqooimiJERqQtV/hZ57nkUwmAYl4PArINDc3E4lEyWQyRKPi3kSjEWRZdDRIp9OoqkJZWYwOHZJYloWmaUVWbwlbP0pG6kcAwxCzZl2P8MADcxl55JH069ePwQcN4t777sG2LSorO+D7DnV1TYwZM5qV3zbSobIMpABJBtuxSKWSBIFPPBFj3rxnmDHzMn557TXUr67jrrv+yEEHHcSee/Zhj913Z9asX6JpGrrefkQ5b1nIskQ+n6O8PI5l5dF1DUmCWVf8gptuuhHHsYkX+msJRXjhYWiaGKwcJ+CSSy7hjjvuRlVVcrkcd99zDwcNOoARI45kxJHDGTnySO5/4D6QAjRdRZYlIlEDP/BQVBlZkdB0lXvvfZDhww7npZdfpKwsyW9u/DUD9t2Hvffem/3324+JE8+ivr6OhoYGhDDw+jj55EmMHXsMy79ehus5IPnouoaiyJSVp5AkMHPZdj0K3xfGQlEkli1bxvTpv6C2tpa33lqM49hMn34JBw46gH322ZtTTjmDT//1GZIMeSsHUoDnuyiqjOiPZCPLEnPmPMa4Y45mQP992HmXXRhy6CHsttseTDrpJK666noaGuqLHkh7UBSF1avreeCBPzFyxGj699+X/fYbyO49e3DokEM499xzWLToVTp06AAI5YZQ3BlAVRUymWxBYkxMMCIRMeFZ+wUQi4kWOOE9zmZzeJ5LdXUlZi5DPB7lr39bzJlnnMbgwQcxefLJLFy4gJqaKizLxrJ8Pv74M86rrSUIhLpMCdsG2h9BStimkMmYJJNJ3n77bU45+WTOO/98ZsyYznXXzeaC82r5/PMl1NbWUlVVhaJ6NDU3Yhg6juOiKDKOY6NpKgE+AT5PPvEks2bNKnYFffHlF0mn0xx77LFcPG06f/vb3zjz9NPZddddGTt2LGvXrYV45+2/M3VqLdXV1Xz66adUVFTgeSJslEmnSSSTzJnzGNlslmfnP0+3bt3Qdb3ohYTG68MPPwTE4BaPx7h8xmWce955TJ06lWQyyS233MLUc86mQ4cKjjjiCHK5LI7pEY/HyefzxONxVq+uZ9aVVzBx4kT69u3DvGfncf3sX3LnH//IiCNH8f77H3LGGWfwhz/cxaxZszbgHfq0tDTz8Scfc/TRR3HFFVdw2mmnoKpQV9eEYwqPVNNE2LUQIVsHnufx0UcfMXToULbr0gUjavDSCws5YuSRvPryy9x88800NDRw2WWXYeay3Hbbbei6huPYBEFAIhGnubmZsrIkv/vdLfzhD39g2rRp7LDDDjz++ON88MEHvPXWi/zxrvu46667mD9/PgsWLKAdxw4Ax7EZO/YYGhsauPwXvyCZTFJZWUmHDh3429/+xvz58znppEncfffdDBs+EhDeoKqKdua5XB5dl8hm7aLquOuu34BPeMqg6yDLCrIsk8tl0XWNTFaowsiKzCUXT6O8QwfGjhvLBx98wIRxx/C7227j2PHHUVdXRzKZYsU336BpOqZp0p4mXwlbH0pG6keAeDyK41i8++677Nq9O9On/5x8Ps+ll15C9x678esbbqBHjx4cc4wQ29R1vahlGP7tuR6+7GNZNrfcciu1tedxxhmn8+23qxh55AiGHvpTLrjgQlzXZuDAAVxw0UXcfvvtjB17FO057F26dsXQdZYvX86UKWcSBBKJhAgZzp8/n06dOnHAAfth2x7xRKIYFgoFQtfWVdRUBcuyePPNdxh00EFMnToVTROe1cknn8y//vUvFi9ezBFHHI6uR5AkB8/ziEZiOI7Diy++SP999+XnP/85juPw4IMPck5tLYceeiiSLLHHHrvzxBN/ZuKJk5k1aya2bbcTThIewamnnsr222/PL6+5hkcfeYQxRx3F8OHDqampKQ7gju2iKOv+9EToTmbRokUMHz6cm276DeXl5VxzzVXcf9+9zJs/n9133x3HcejXrx8TJ04s3ptkIoqZcxCdZlWWL1/BjTfeyM0338yRRx6JaZrsu+++3HbbbUycOJE777ibcePGce4553DPPfdw2mmnrWc4AJ6Y+wTLvvqKZ+bNY9ddd0HXI7iui+u6jBs3jvHjx3Pfffdx1hln8tY7A6muribMCYlwnEZd3WomT57Mkn/9i3gyiVeQKGsLVVX5+aWXMGrU6IIx1/F9kdOKx+PMnz+fsvJy5sx5FJBxHJfde/bkZz/7GYYeZcSIkdTV1aMXPG7DEGHOEOufXQlbC0pGapvE2uGkAN8Xba5dN09NTTWyIgyC67qMGX00ESPGSccfT8SIMWLECAhkohHhqRDIEMj4foDnuGTSJv98+z2uvuoaVn6zisrKMo47fiKGoRMxouTyJo5j07lzJxzHQlU1Wsek1uOqru7Mk08/w/HHn8ALz7/M3CefJCRDrPj6GyoqKzm39jzWrGnCiCdwPB9kBdcPQBKEB02LoMigqTIEHp7r0rXr9vgeqBGDxsZGDMNg/LgJPHDfffiegqpImNk80WSEpuYMyWSU+jWNlFdWiRYOnkvezFFT3QlFAlkCT/LZfvudyGTT5PM2qqoUBsC2YTuZWDTB2GPGc+z447j44ouZdv6FXD3rao465hhGjBjBwIEDMQwdEOfq+z6apgIBmUyar774nF69dqdjx0pcz+HAQQfw5FNz+clPdsHzRE+zLjXbsfNOP8HM5olEIjQ25kgk4rS0NBONxvhi6VfUf7OK3Xffo9htOpfLsvPOOzJnzhwsyyISiTL44IN56qmnOPnkk9sxupDJZulUXUOvXr2wbRfTFPvzPIdIRMO2HX7608O45JLpRR1MRVEIc36u61NWVsazzz5Lj912o1OnTsyePbvowabT6WI+TdM0ampq0HW9GDL0fQ9NNSCQ+Ptb77DLLruRSVuUl5djWx5TppxLKlXB5ZdfzqSTJlBftwpZkZBlCCRJhGULuk4B4d0qmautDetPcUvY5hAEARUV5VRX1/Due++wZMkSXM/G8zxc12X48MO58tprueaqq3jppZeQZdF3KwgCmpub0TQdWVaIRGKkUmX8dNgwnn/uBbp0qUZRdE4//XTGjh1LS0sLmqbi+Q5PP/MUlZWVtKcwDWLmnEqVsWDBfH46dChHHHEEjz76KIZh4PmCCZZOm6QqyiGQ1pOQisVieJ4gTLz/wfs89tijrPx2JR9++GEhXJSmoqKMhoYGptbWstMuu+D7PqaZJ5qI43kB0XgMJIXRo0fz3jvv8Oijj5LNmlx//fXMmzePhoYGLCtHQ8MaLrjwfPr3718ISbY/0KmKSiaTKRqT6667jhdffZXLZs7km6+/5qKLLuLggw/m2muvI5PJsDbj0jRNamo6sMuuu/L88wtY+sXnOI7DggXzsW2b999/n0hEJ5vN8Mknn/DJJ5+g6zqeF5BMJnFdj3g8iSzLVFRUUFVTw+uvv46iKEUP7u233yafz5NMxsjlcnz80UdUV1ejKO0PA127dKGpoYG33/4Hqir0Lj3PJZGIkM1micdj3HfvvVR36kRFRUUhnCdCoWGuSXjAOe5/8EGWLlnCypXfsN9+A9h1110ZMGBf+vTpw1577UXPnj2pqKhAlkXrdsdxkCQhWWZZNuPGjePjjz7CMPQii09VVSZPnsjwYYezXdcd+PDD9/FcVxBMglZvLZAAqWivStjKUPKkfgQQdF6Nww8/nO7du3PEsGEMPuQQfv+7W+ncuYxvvmnkwgvPp7GxkRMnTCAajxcHCADPa6VEl5cnmDx5MhdddBFPPf00r732GolEAoDKynL+/Ngcrr76KtasaeC9d//ZbhgJIBpVWbOmmWg0ys8uqGXCccdxzDHHcPfdd7PHHnsUQ0bLly+nU6cubVenqamJeCzG6NGjWbhwPrfffjtfLP0Cx3GZMGECc+fOYenSLxk8aBCu73PooYeiaRpBIOj4riVChzlTeBinnH46p06axMADDiRiGEQiEfbq1YsBBxzI+//8J5Ki8Oy8BZimSXm5GJDbIpfPoygipyJJEtlslt69e9OrVy9OOOEEYrEoTU3NrFpVRywWI2S0aZpKNBrlyy9Ximtwz138dMgQVF2npqaa2tpaxo8bx8mTTyGbzXLHLbcz9cILUVWVIBD7URSFaDRKS0sLe+zRk/Hjx/PzadN4/vnn+MlPfsJbb73Jotde48GHHmHlyjomTTqZL5cu5R/vvUfI0GyLQw45hF69ezN27FgGDRrErrvuSjQaxXVd6uvrmTdvHgQBf7jjDpLJZPEZCXOQhqGTz+epqkqx++67M+H443nooYfZZZef0L17d8Ar5ktBEC/CiYdgA1pFY9ijRw9URWG//fbnggsuYMSIEaiqyqpVq7n11t+yePGbnH322ezdbx/KyspoTqdRtVJOaluAcsUVV1zR9sMSNgOKs7bWH3+AmGG+/PKr7H/AoMI3m3d6JyaN625TVVVyORNZljnttFMpKy+npqaGgQP68803q0mlkmQyJgMG9GfX7t2RZJmjjz4Ky7JIJGLYtoumCYag6/rsvPPODBo0iC5dutC3bx983yeZjJHN5tB0DVmWuHjaxXTrtn1hwAqPp/W4bFsQHUTSPKCiooJDDz2UfD7Pk088wYABA9h3332prOqI6/rFVaXCP/GYge8H9OzZkxNPPIGTTjqJUaNGs0///gwfPpyuXbejpaWFRDLJlVdeSb9+vWlpEd6LTwCS8BYjEYN83qJnz+6MHjOGVDKF5zjk8jm6dunCdt26MfnUU7n00kvp0b0nqiojy+2H+z799FO6du1Kv379CiErmSAQ3oRgJIowV1lZBbIswmKKoiCcjoB4PIaqqowbP5YuXbuy7777ct55tQwfPhzX9Xj5xZcwczlOnnwqp512CtFojFxOGEZBKvELhBeH/fbrz3bdtufTTz/h8yVLqKzswLSLL2bMmDF4bsB7773HlVddwXbbdUOUEqz/HBqGxogRI9h55535fMkSPvvsM75ZsYIvli7F830mTjyOKVPOYf/9B+C4InQZ5tY8z8M0BV08nxde+fDhhzF06OF061ZNOm2iaQpBIGqkgkCw/0LDDaJ2TEAs03/AACKRCNFIhP0P2A/TzNGlSyfWrG7izDPPxLZtzFyewQcfTCwWQZAwpXVu0/pn+Z9BAlYsX8Y3K1ZwyCEHFe/lupdz7Ye3hE2FFLQ3hSrhP0NrABzEkAiAEFWWueyyK7ho2qV4QUCwmZ9coYK+9jbFD6a5uYmqqnKWLV9BTU0n8nkHCYWOHVM0N+fIZDLE43FSqRjZbJ54PEJdXQMdOnQgnc4AErFYDFWVaGnJous6kYhGJmMSj8dYs6aRVCpBc0sTXbtWUV/XjLgIHpoW1uG0HpcsS/i+Q3NzCxUVFTQ0NNChQznl5VFaWnL4vugDJmsqvi+LVYPCFqSAwHWIRqPIkkRTUwO+76OoGmVlCVavbiKRSJDL5SgrK6OxsRFJEr2AgsDD9nyMiMbqNc10rCxjdX0D5eUJctkcgR+QSiaRpEILF1XDcYWRDnyRc3Fdr3Au615n3/dIJGKsWSOum+u66LpKS4voOyTLMpGIQS5n4XmtjTk9z8V1HYLAp6wsRVNzI8lkjMbGFhKJGJlMhmQyRTQao6GhgVg0QUNDAzU1nYGAdFq0jxCEAQNRlAyu55DP56iq6sjq1fVUVFSwZk0j5WUVKIpOS0sL1dVlZDLCU24L3/fwPZdoNIppmlRWlrFixSqqq6uxbZtIRKexsZl4PI5li9o1WW6tk6qsjLB8eQNdu3agsTFfqBETbS9yuXwxbBeJGNi28GzjcQPTFMSUbDZNWVkZ+Xy+4KH5KIqBXaidCwk05WUJ8nmrcK1NOlZVkc5mkRWVMFQcon3N838fcgBvvrGItxa/yaxZlyHJEAR+GyMltxkTStgUlMJ9PwIEQUBZWYJ0Os/223cjl8sRi0WwLZ+Wljye59GxYzn5vEN9fSOxWJTVq5uKyW1V1ZBlUTgry3JxxitmwypNTS0kEnFc1yWZSLJy5WoS8Ti+LyzLhqZBnudTVpbE81w6d64kk7Gor88gQo0Kqqpiuy6KYhAQFH78IpQkchV5CCCVSlJfv5p4PIFp2pSVleF5HoYhCnLLypI4jkckoguDoak4DkSjUSzLpaqqklxODKK6piIh6rdCjwAQA7Aik8vlMIwI7dVKKYpMOp0hEhE5GxBKFaqqIsvC6ObzEATi+F1XFEQrioyu60gSZDJZDMMgn3dIJpP4vlvIObmk02mi0Si5XI6qqkpWr15DIpHC94UHFY1GyeeF8odt28TiURzHxrJEvZlpmqRSKWzbJQhcEokYTU2iQLg9T0pVVb76ejmPPvoon3zyCQMH9mf8+AnkcjkAVq5cxeLFi3nooYf44933IknC4wk9qrq6LMlknLq6NO+++y5vvPEGvu/Tu3dvhgwZQjQaxbZtPM/n5ptvZuDAgey///6AOJ5IJFIMAUajEb755hvmzn2CbFZMksaPP4ZkshzfFyUIjuPw50cf5Yyzzip48CVsCyjdyR8BHMehokIYEZAKs1ZBLw8HFNv28f3WJHwikUDkssSM1XVd4nExCDqOUyBJaASBUGEAIX2jKAqVlZVkzVxhgFmfbgzimJLJKL4PQuJGY211At8X66mqYHlFInrxc98vKGjYDrFYDMuyqaysxCjkMvL5PJqmoigayWQCEOfQ0pIhCAJyOdESPDxuECE8XdfJ522y2Szl5UlisRi+LyjQnifqfmRZtBBvD5GIqA+SZaFwoWmiq2t4/YTXJIgXkiQS/2urI7iui6IoJBJxdF2nrq6uOOiDaMCp6zplZWW4rk8ymcS2RY2U63o4joOmaUiSRCqVKhgscT1UVaW8PFVg+xkkEnEsS9DBN1TMmzNNhg0bxhOPP47v+1x2yXTGHnNM0bh27VrNihUrirVqYdguNHiijEHms88+4/RTT+VPf/oTDz/8MCdOmMBtt92Gokg0NjbiOA4PPPAAq1Z9g6q2kibC62UYBtmsydlnn8PMSy/lscce48pZszj66HHiPC3B+GtoaGDBwoWk02n0Qj61hK0fJU/qRwBN01i9Osvzzz/P1VddgaKq5HM5ZElFVlUCYSlAkpBkmUQiwYsvvkgkYmCaJomESIpnMiZffPEF55xzDnY+L6SUVBXfdQvdTl3wPYxYBNd2mXL2OZx66qltDweAV155hQsvOB8jEiGfyxGJRMiZJkqbwSWQYMHCF6npUlMcBDVNxXEdNF1n4sSJ1Nd9SzwWI5vLo6oanu8TeB6yquI6DrKiMGnSJMaOHYvve2iygR8EZDJZEvE4Dz/8MI889BC+axdm7y6+52BZFtFoDGSZnGnSf8D+XHLJJRhGZJ1jDDHxxMlk0i3kCjVmVj6P0s6MfsTI0Uw47nii0SggwkOOY1NeHufWW+/g6afmEgSio7Rl5ZAUBVlWcG1BJnE9qK6u5tZbb0XTDMIQm6ZpmKbJ559/xvTp0yHwKKsop7GhAaQAz3GIRuM4to+siHqiiSedxJgxY9ococC8efNwbZvHn3iCLl26sHTpUi6eNo2jRo/mj/fcgyA5CMp4eygvL6OlxWTmzJmMP3Y80y7+OZLksXDhi1zxi1/Qt29fhg0bQjotpIwsS7AcU6kEmYxJLBYpFCenWLVqFc3Nzbz93nt07dqVL7/8kht+9St6du/O3CefYLddf1I0cBUV5TS3ZFD1EnFiW0DJSP0IYFkWsViUY489lr+9+X888tBDPPXMMwS+0OOLRqMFFpVQYZAkUUeVyWTo0qWSb79tIh6P4bo+O+20EzfccAOTTz6Zo8eOZezYsUiS0JeLx6PYtoVuaJhmju679SAWEyG1thg0aBB9+/ThtUWLeOSRR4peR9sUqS9Bp05V6LqK6/hICMq2CFtZ/P73v2ffffrRsaqKYcOGEyAVch+Cxed5Hs3NzdTU1CDLMtlsFtXQ8XxIpVIQOBx++OE8NXcuLyx8mSnnnkvEiBCJ6CJsZ5ooqjCcXbt0IxKJIEmibqwtxo0fz4kTjuWgIUPo168fsZgoFm6LHXfaqRgC9H2hcWcYOi0tWYYNO5SHHn6Q1fX1HH/CCUhSaJjDDrDgOsKzKitLFfODiqKwZs0aOnWqZIcddmDMmDFc9LOpDB85giGHHoppZkgmkzQ3p4kYcXRd5Ha6dOmCpmlFb21t1NfXs8uuu7L99tvhOB5VVVX89ne/4+ijj+aX11zDzb/7HY6zfi4rRCKh8NVXq3nj9deZNm0aAJKkcfTRRyPLMhdffDH9+r1ISMoJvUDHETJYlmUV8ogBTz75JH1692bHHXfEsiz22mt3fn/LLYwePZrzzzuPBQsXFHNVa9Y0UFFZRi6/4WMrYetByUj9CGAY4sefy5lcddVVBEHAJRdfzONzn0BRNKLRCK4rmGbCSIgBWJIkstl8IbHtous6qgp9+/Zl5uWX8/Np0xgzZgy9evVCVVVcVxS6up6DIisoimC0yfL6j1kkEuE3N93ICSecyPxnn+WKWbPaLgIIIyVJMvm8TeD7aKpGgExTUxOGrhKLGTz08EMMH34E55xby/jx4zBNwaILQ2FhyDAMdeVsG0UVEkv5nENFeYLrf/1rptp5zKzJzBkzicV0vv22jurOnclbNoZhYGZFAj8IfNrLgg8ZMoRHH3+cGZddxpgxY+jevft6RhcgCCSEokKoMRcgpKcUqqu3456776S29nxkWeb8888jGo2QzeYIxWRDSSXXtVAUBV2XSadzhUmGg2GoHHfccbS0NPOH229l5syZdN9tZ3J5i/LyCtIteRRFJQgCbNtu10ABlJWVsWLFCurr11BRUU4ikSAWi3H//fdz+mmncfnll9O5c+diuLIt6uoydOhQQXlZGS0tTYgQq0FTUxMjRoxg4YIFDDvsMO69/x7i8TiZTIZEIoFpmqiqqCELsdNOO/G3v/6VIBDhz6amLKoq8eijjzLppImcccYZnH766ciSRFlZkkw6v55XXsLWifVjESX851h//AJaP5YACZfNzTTaEDRNJ51OAzKypHLO2bVksnmee+4FKivLkWUxawUJzwuIRIRnpSgKlhWgKFrBCLnk84JBNnr0aA486CCefvrpwmDrkEol8GQR2xkAACAASURBVDwfTTVQFEEMCDZQQel5HhUVlbz00kssfO55bFsosyuKgqKIfJKiqGiyMLCqrEDQ2ipD0wxU1SCTybHnnn347W9/z5133FnMs+RyeUBG142CNyOj6xF8HzpWlKGqClIgCnADVDp3ruHxOU+w+K23qatbTTZr0bVrN0zTQkLBygv2mWU5hOSNdSFycj/96WGMP3YCp59+OooSIMsqoR6d+F8FhHRQmIMSubag4EFoxOMVnHXWOVz3y+v54IOPCAIZVdVRFb3IMJQkGcsSIb6WFpNYLIYkCXadJGkkEknOOmsKXbpuz9NPzcN2AnQ9Sn1dI6oq7g0IEdn2mH0ABxxwIN+uWMG559Ty+edfEI9F0TSdnXbaiV9cMYtbf3cLDz/8iFCFaAeCDCIz5uij+eU1v2TZsmVks2aR2PLL2VdjOQ6nTj6Nr7/+mvLycjIZwYQMC5VlWcX34dhjx/LeP9/nxhtvJpdrKeQIHSKRGFdddTWP/3kOl19+BYHv4zgButF6TFJh3lUgPW4B+OLV7qNeeFba/a6EjUGJgv5fgkjma8iKzGXTZ3DJpZeStwKQ2/+B/7cgy4LBJtSzXeR2cigbhocsK1iWSNh/14DXFr4v5IDELF4kyV3XRbRjsFFVUXgbEhHawvcFqcN1hU5bNmvS0LCGmhqRu5JlQbJob90NIQgCGhoaqKgoL3ieeRKJOO2F9tqD53nouk5zczO5nEmnTtW4riu8S9dDUWSUQi5obS8BxL7FvRC6fp7nsXLlSjp06FC4tqLerO163wVJkqivr0fTVKqqKsjnHYJAGLmNge/7fPjhB9xz9z0cNHgwxx8/nkwmB0ioKrz22hvcfNNNLFu+nMWLF7ddHdsWPbk0TeXCC6bxyiuvcPNvf8s+++yDYajkcjbNzc1cPnMmf/nLX7j45xczadLJhdCfSj5vEY0K3Uld15g/fyHXXn0NQw49lF9cMQPPA8OQyeVcPvron9x04+9oaGjkyaeeateD3RKQ8Pi/11/m72+9yaxZVxT3u7HXuITvR8lI/RdhWRaGYXD++eczffp0VD2B6278ILq5oSgQ2hRJkjYYxmoPvu+TSMSKNUC6LsRON8UouK6oPwqNTWgwFUUw0gRzz0JV1w8XClKD6IUlSUIdI/RMhAcnDJzwOjbunEAY7SAIUFUFw1BpahIFwBsLsa7IN4VyRL4v2H0gSCyO46w3iIXXAlqNXRgOFAWxFiJfs/66G0K4fCIRxzRzCAUIESLcGISGRDSKFLJIvu8Tj0dJpwVV3jTNYg6wLQRbUjAMFSUgkxF091QqRUtLC4ZhIPJQsHz512iaws47d8O2QSjwB9i2YJ+KUoIUiqLQ1NRMIiH6nkUiOrlcjlxO/Lbq6uqoqanBsgQZY4tD8vnH2//H64teY9asWciyyDNuyu+ghO/Gxv/6SviPoaoq2WyWZDIpBlXHRt5AqOS/gQCwbMGs832RwG9vsGkPqqbQkm5G0zViMZ3GRkFJl5WNMwiSJIEkIcm+YAWGfavyOVLRFK4nYTs50fvJXz9noukykuwjFTTaPD9AVsQ6nucJ5pzjIcbjjTunIAjwA+G52Y6D68nohsKmrK/IMr7vQCCOzw8c/MAnFo9gmiaO66EbrS1HQqiShKwIkgS+hx84ojYMHzOXAUQTSBWJsFj3+xEgKwGOa6FqEpadQ5JB3oBWX1s4rkMun6GiogLbtvADB93QaGpuRNM0cvkMiaQoAWjP8NlODlWTSaebSaWSRKISkqTh+RaJpJBX8gMH3/PZcaeumGaerGmSywmWZd4SQrOe51LZsQzTzOFbPvFEhOaWBsrLReFzNGoUt9e5pgpZ8dF0CVne2Ov0nyAgnzOL5y9o9yVW4eZEyUj9l7A2y8u2bV5++WVisSQ52xHOSwDFP/7T9+v8uYFlJJAlmXzeIpGIk86kiUVjiLqmdpZf508JJARFPWsiSaLZnud76+1jQ+8DCgN64CPLCrIkY9sWyVRSzJTjCSwrj+u5qIrI46y9jSCAIPCRFRlVUfH9ANu2iEQiuIWQWa7gPQQEGzyOtd+7rocRMQSJQdUwjAjpTFrQyDewTtv3hhEhl8+hqoI2ns/lMQxdUOZVDd8P8HwPWZYK64ttFIuVEd2BkUQ/J1XVyGaylJWX0dzcRDQSXW+f678Xn8myRC6fIx5PkM1kSaWS5PI5ZEmEDr97GxKqJggnbiEMrOsG6UyaSMQQhdNZEyNikMmkUWRlvW3IsoIf+Liug2FE8D2fZCpJOt1CJpMlmUgQi8Vpam4ikYiTM3Mih+g62LZFWaoMUf9lYzs2iqISjURxXQdZkWlpbkGSZMrKy8jlTCQkjEiEoKCU77rOBs9t096395n4QwbeefttoFXxQ4R4S0Pr5kIp3PdfQhC0VuK/8MILrFy5Es8T9SriqZfWXvo/fN/eZ+u/lySZRx/9M3vu2Yvdd+/Juk9C2+XX/cz3RddZEVYxmDv3cUaPHt0mtNZ2G63vg0AUfdq2aIiXzZosXLiAo446ap28TBAI+aC225AkQVSQJAiCsPDT5eOPP+Hrr5czdOhQBIkgHFXaP45130v4vockwcsvv0Lfvv2K+akNr9P63vcDBGtOqEisWlXHHX+4g8tmXIbj2ICQlrIsC3GZ1r++QQCh4Kssg2XZPPjgnzj00CHU1HRG00Rn23D5tsfQdpuiS61o7T537lyOOmoM6+bY2q6z9j0SYcqQVWjbDvPnP8uECcfS3NxCqyKEy7q1Y2IbIuwlEQQihKmqokFjLBbj8cfncuSRR+D7AZIUXjcx0IswrpBq8jy/GBL2fSGDFIvFcV2HBQsWcswxx2CaGSRJFiUDWRPD0BG5THFP2x7Xv/++vc8CVEXmwAMPZPvtty+cpwj3lrB5UDL3/yVIUmvC+vDDDwfE4/5DIiBg6RdLOOSQQxg8eDAA0no/yvYRECAhPAAJiS++XMLJk0/a6PVBbCOM3/u+T139Sk6adCIgjKAiK8XtbyxeefUV/vKXv3DKqSevc3wbg7XPqampkXHjj6Fr166bvL4fiMnIl19+yfwF8zhp0onFz2VJ3uRj+r+/vs7oMSPps1efTV5XIjQWMkuXfsZJJ01su9h3ou19Xvnt14wddwyK3Jrr25RjAnA9l8+XfsYpp5zcZlLz/QgIIBC/p69XLOP444/d5P1vbqy95/bCniX8ZyiZ+x8x1qHmhv9vJMJli+sUtrEpaLv/8FV8z1r/byz+v71zD4+qSPP/t7vTHUIgkBACQYwQEiDhIkHkKgiOwLCwKCoIzuCAwsCgWVFWxNlFBq+oyAKO7qirMroggfGROwjDLQ6IkasDC4iACgEEQsitL+f2/f1xUtUnTQeDO79nE6nP8+TpPqdP3U/qrbfet6oiynItZboiTUc8NaFKmqzsvBxl+Sl5qlI34rqGXPFs5HVNiMy7454k8vrHcJTnmnGG+wl1oqh7KE3q/5D/u7GfDRHOQ+TnjyHCik/nX02JTN8ZPvJ7TYkM50yjJvxv0o+sE7Bqua74vQZE1u//Jiwcn9fC1crkfKamOMNfSzgnzvDXUieKuofSpBQKhUJRa1Ga1HWNC/Y45aeMacXz4lPEcy0403c7vqPyu3jmWnDGKa5rijNMZDw1IVr4aHm51jijxVETIsNcS1hBZNjIMjl/qynR4qgpzjA/9R1R1CVEKyuuS1j5F/m9JjjDic9rCQ+Ew1T3J565Fv434SPL4oynJjifvVockddXIzKOaw3r/PwpRMYRmR/nbzUlWhw1JVpd/JR4FHUFJaSue35qZxHJT40jsvOLvP9T+N+EdfJT4/lHl+mnhovkHxFPZJl+Cv+IOIB/TByK2o4SUgqFQqGotSghpVAoFIpaixJSCoVCoai1KCGlUCgUilqLElIKhUKhqLUoIaVQKBSKWosSUgqFQqGotSghpVAoFIpaixJSCoVCoai1KCF1nWCaJjRNAwAYhgEACAQCSEpKgmEYcLlcCIVCziBXRcRlWRYqKirkAYPi/o+dpSnSFM8HAvYx9n6/H7quwz7E0Kz2vCFRBsuyD+YT+P1+NGrUCIFAAADCZx5V5kccrBeNQCAgD6f0er3yYMaaouu6zLv4i4uzjzUXdQSE8xQNkjBNE4BdNpGf2NhYhEIhkJR15sSyLFiWBdM0ZZ1YllXlGZG+aZpVfo98ThAIBOByuWRblZbaBx2Ke4Bd31crTzTEoYAulwskr/quWJYFXddlevaBkfa7Icoj6shZX4qfD+pk3usAy7IP4RP/2C6XfRAeEO7sPR4P3G73NZ0oWlZWhgYNGiAQCMDtdiM2NhaAnZ7b7ZbpRYtTPAPYeRCdr9frlZ2Y6ByrO0hOvLqiUxf3QqEQfD77BFtxjDfJKp1atI5VdHAulwsVFRWoV68eYmJioj5bHeXl5YiPj5d5uHz5MhISEmBZVpW4IuMU9SHKJNrINE2UlZUhISEBMTEx0HUdXq9XhhHxirw7y+h2u1FSUoIGDRoAsIWOqBfxO2mffBytjVgpQAzDPg7d7XbD7/cjLi4OgC2UY2JiZB5qgmmaCAaD8r3w+exTdKOFjxQ2pmmf1Ox2uxETE4Py8nKYpomEhARZJoGzvRV1GyWkrhNEhyI6RzHiFteio4vsPGtKKBRCbGxslU5MdJrR4tQ0TXYkotM1DPvI8NjYWJCEruvQNE12spGIzvNqaJoGn88XefuqWJY9ehdCt6aItEQ9ivzpug63241gMIj4+PgqwuRqWJatGXg8HhmXEPyWZUnhHdluYuCh6zri4uJkvgKBgNTshJC4GpFCT9zzeDzyffL7/YiPj3cG+1GCwSAsy0L9+vUjf6qCEJIul62VCpz5EmUSdSyEar16zuPsFXUZJaSuA0Sn6/V6EQwGUa9ePdnpiH9sl8vWtH6s0xeYpgmPx4NQKASv1ys7LcDWyoTQEs9FQoa1FiGsxH0hICIFayRCgxLhRafm8XhkRxZZJpFmtDidGpl4zuMJH5P+Y4g0hUBxDgKcGpCzvE6EUBJh3G43dF0HySr1IASgeEYghJf4LjQPgbPDd7lcVeo3Wn4Ae/Dh8XikoBTvkNCAPB6PrPOaINrd+T0mxtbSInG+l6LORB0J4e/z+aBpmqxvkvB6vTUawCjqBle+GYqfHaLDcrvd0DQNlmVB0zR4PB557XKFp8ZqgsfjQWlpKWJjY2EYBnw+H4qKimRnIwSUrusRIW1Ex+YUkqKz9Pl80j5WnYAoLy+Xnafo5ISQEvGUlpYCCGsWgB1fdXGKPHk8HpimiYqKimqfjYZIR3yKwQEA+Hw++V100pG43W5ZJ6Zp240AW1CIa8MwUFZWhpiYGCkY3O6q9h3RBkIARP4JYSridgqySGJjY6sIIF3X5SDH6/XCNG2NvKYYhiHfu5iYGPh8vqgCCrDzL54X76Yog8vlgs/nw6lTp3D8+HEUFRUBgBwIXMu7rKjdRH87FD8rxPTOBx98gMzMTMyYMUOOUEWnWFFRITUJy7JtIUBVZwLnyHzhwoUYMWIEJkyYgG+//RYrVqxAnz59kJGRgezsbOTm5sLj8Vx1ymz79u246667kJmZiU6dOqFVq1a4+eab0blzZ/ziF7/A4sWLZdpOLMuS01Yk8cknn+C+++5D586dkZ2djdatWyMjIwM9evRAbm4utm3bJuNwxiXC67ouO3TTNGGaJnw+Hxo2bCjTFwLmas4lXq8Xy5Ytw4wZM2TdHjt2DIMGDUKTJk3Qu3dv/OlPf5IdKGk7SYg0xPWhQ4fw4osvYvv27XC73WjYsCGmT5+O9u3bIyMjA08//TS+++472UaAXRbDsG14JHH69Gk8+OCD6NixIzIyMvD888/j1KlTMp+BQACjRo3CwoULqxUSpmni7NmzeOGFFzBz5kwcPXoU+fn5yMnJQXZ2NpKSkjB16lR4vd4q9SqEpXhXhCAUdSy07Pfffx/Z2dkg7Sk6IZSc758YfBw4cABjx45FaWkpTNNEKBTClClT0L17d/Tt2xc9e/bEgw8+iHPnzv2o4FXUMai4bnj77bcJgG3btmVKSgp3795NkjQMgyRpmiYvX77MUChEkvLTMIwqzzzxxBOsX78+n3/+eQ4dOpSpqans1q0b8/LyqGkaz507x8zMTL7wwgv0+/2MhmEYTEtL47PPPsuioiIWFRXx7rvv5sSJE+n3+7lo0SK2bt2aTz31FE3TJGmnbRiG/NR1nd9++y1TU1P58MMP8+DBg9Q0jSQZCAS4c+dOTpgwgQD42Wef0bIsWpZFXdep67rMB0lWVFQwEAjYmasMT5LBYFDeE/Uh8hPJe++9RwAcPHgwTdNkSUkJs7Ky2L17d37xxRd87bXXGBcXx08++YQkaVkWTdOkpmm0LIskefDgQQJgRkYG16xZw1AoxNmzZ7Np06ZcvHgxly5dKuuFJDVNq5Jvy7JYUVHBW265hUOHDuWpU6e4evVqtm7dml26dCEZzn///v05d+5cWReRlJSUsF27dmzRogVvvfVWxsXFsW/fvnz00UdZWlrK48ePMysri4899pgMI+qTtOvru+++Y3p6OtPT09m1a1e2adOGN998M9PS0tiiRQv6fD62bduWbdu25V/+8heSdluQ4foJBoMsKCjgjTfeSJL0+/2cN28e09LSuGnTJtlG9913H1966aUqeVDUfZSQug4QnfN//dd/0e12c8+ePXzxxRfZrl07jho1ikuXLmVxcTENw2AoFGIwGGQoFKoimAzDoGVZvHz5Mps1a8aPP/6YJFlUVMQ77riDU6ZMoaZpNE2Tuq5z0aJF7NixY7Ud+tatW/kv//IvsoM2TZNnz55lWloaN2zYQJLctGkTmzVrxuPHj8v0/X4/TdOU+evduzdnzJhB0s6nZVlVOn2/389JkyZx9uzZDAaDUigYhsFgMEhN07hs2TK2bduWqampTE9PZ6tWrZidnc3U1FR27NiR6enpbN26NUePHs2ysrJqy9SvXz/++7//uxTMGzZsoMfj4eLFi0naAuWuu+7io48+KuuUtIWBruv0+/2cM2cOW7VqxcLCQgaDQZaXlzMxMZFTp06VYfbt28dOnTrJwUMgEJCCxjRNHj58mC6Xi7t27SJJ6rrOs2fPcsiQIRwxYgTPnTtHv9/PQYMG8ZlnnpGCPZJFixYxMzOT33//PSsqKjh+/Hj+8pe/lO2l6zrXrVvHhIQEXr58maRdRjL8zly6dIl/+MMfmJSUxIEDB/I//uM/uHDhQi5YsID33nsvU1JSOHfuXL755pvct28fA4EADcOQ7xJpC74jR44wLS2NwWCQhmGwffv2nDdvHnVdl+/r+fPn2aNHjyoDC0XdJ7qer/hZIewwLpft1ty4cWM8/fTTWLVqFQKBAB588EHcfvvtGDNmDPbs2YOioiLpqmwYtsedsHuUlJSgtLQUKSkpMAwDSUlJyMzMRHZ2tpw61DQNzZo1u+q0S2FhIdq0aQNdt9fAmKaJpk2bori4GKdPn8bFixdx++23w+Px4MSJE9IuIjz/RP4OHz6M7Oxs+P1+OWXm9XrhctmOAQAwdOhQnDt3Tk57apX2OGG7GjlyJKZOnYqzZ8/ilVdewcmTJ3Ho0CGcOXMG+/fvx7Fjx3D8+HF88MEHaNCgQbXTY6WlpXjuueekHevkyZOIiYlBr169ANjtcO+99+Lw4cMgw84G9erVg9vtRlxcHI4cOYKpU6ciOTkZMTEx2Lt3LyoqKtC1a1fZDllZWQiFQrAs27Yk1i4B9nTmqVOnQBItW7ZEKBRCTEwMkpOT8e677+LLL7/E3LlzpQemsFFFo6SkBDfeeKPMy+TJk5GRkYHy8nIZb6tWrVBaWori4mIAtq0SsPNhWRYSExMxa9YsLF68GLt370ZxcTFyc3MxZcoUDB06FAkJCcjNzcVDDz2Ezp07o169etLJRLw7ZuX0nignSVy+fBmNGjWC3+9HbGwsfD4fEhIS4PP5EBsbW22ZFHWP6P9tip8VZNju4vP54PP5YBgGMjIysGrVKmzduhUPPvggYmJiMHLkSHTv3l3aXsxK24qIp3nz5ujXrx+WLFmCkydPYsOGDVizZg02bdokBUX9+vWxbNkyZGZmViuk2rdvj+XLl+PEiRNwu2039Pz8fDRu3BhNmzZFUlIS8vPzUVFRgfT0dAB2Xtxu23U6GAyCJMaMGYM1a9bg5MmTsqM2K+08pmnim2++wcyZM9GxY0fEx8dLN3CxUFV0ppMnT8Yrr7yCd955BxUVFTAM22mBtB0xSNujTKt0nY+GVrnI1uv1QtM05Ofno3379khLS5P1L5xN3O6qnmqAbbvx+/0oKSmR5Txy5AhIolOnTtJrDQgLF2c+AVsQ3nrrrWjatCnWrVsHj8f2tASApKQkbNy4EevWrcNTTz2FsrIyNGzYsFqh27p1a3z11Vc4cuQIvF4vOnTogCeeeEK+QyTx0UcfoXnz5mjatKkM5xTAmqYhGAxi8ODB+OKLL3D+/HkMHDgQf/vb36QgcbvtNXamaS84dzo9WFbY5f3cuXN46623sHLlSgwcOBAHDx5E/fr1YZomSkpK8Pnnn6NRo0YIBoMyvOJnABXXBX6/nx9++CEBsLCwkLquU9M0lpSUkLSnaazKKTLxKWwwoVBIPm9UTpO1atWKcXFxBMB58+bxnnvuYWZmJvv06cPMzEy2aNGCmqbJOCIxDIPdunVj/fr12adPH+bk5DA5OZkDBgwgSb700kts3Lgxf//7318xvSamlCoqKmiaJvv27UsAzMnJYc+ePdm7d2/26tWLHTt2ZFJSEocMGUJN01heXk7LshgIBGQckfaYMWPG8JtvvqFpmgwEAnJqi/xxm1R2djZXrVpFy7JoGAZvvvlm/ulPf2IoFGJxcTFJsnv37pwwYQJJO20Rl6jzRx55hEOGDJG/jR8/nllZWdKOZlkW8/LyeNNNN8l0nJiV02xLliyhy+ViRkYGf/jhB5lOIBDgypUrCYBer5ezZs26Ig6BaZrs2bMnW7RowR07dpAM24v279/P1q1by+ljka7A+b6QdrrCdjZnzhx27dqV48ePZ0ZGhiy7eNZZL2IakbRtTunp6UxOTmbDhg3pcrl46NAhaprGSZMmsUmTJly6dGmVuBR1H+WneR0gRqNpaWnIzc1FbGwsXC7buy8+Ph6aZu/0ANgLLYULuM9nr0HxeGy3bIHH48G2bduwZcsW3HDDDRg4cCCGDx+ONWvW4H/+53+Qk5OD8ePHIxQKVbtg0+VyIS8vD6tWrcLhw4fhcrnw6KOP4te//jUMw0DXrl2xePFiDB48GKTt/SW0C6GF1KtXD4ZhYMWKFVi/fj2OHj2KoqIiGIa9RubGG29Eu3btMGLECOi6vbAVsN3ByfAODaZpb7/kdruxZMkSmcd69erJ0b6oQ3EdjZEjRyI3NxfHjh1DQUGB9KDzeDwoKirC/Pnz8eWXX+Lf/u3fAFR1k3a57C2i7r77bgwePBjTp0/HTTfdhA0bNmDu3LkgbdfylStX4sknn8SoUaNgGLZ7tph6c7vD7vxjxoxBYmIi9u7dC5/PJ9vV5/NhyJAhKCgowJ///GdkZWXJskViGAby8/ORl5eHrKwsObVGEq1bt8agQYMwcuRIdOzY8QptLCbG9pQEwuvHfD57bdW//uu/onfv3pg8ebKsA/EOBhy7YpimiYYNG0qNMy8vDy6XC4WFhSgsLMS+ffuklt2mTRvMmTMH9957LywrvD5N8TPAKbEUP1/ECFjXdRqG7RlHhrWDixcvSu3ij3/8I8vKyqo4T1SHGCE7tQvLsnjgwAFOmzatWqO807htGLYDgHhW/FZYWMh58+axqKhIPuvMvxiBa5omR+0iHmd+xLNObUTX9SreiyKu6ojUuKJRUlLCSZMmMTU1lZmZmdy8eTNJu45atWrFxMREzpo1q2qgSpz1vGjRIubk5LBt27Z89dVXSdplnD59Ot1uN++44w5eunRJtunZs2dl3WmaRl3Xr/BONE1TajtahIZbVlYmv0fi1PQsy5LhrEqNtKaI+o3Ml2HY3prijwzXdbQ2qqiouOKdEnkjr/RQVdR91I4T1wFiJGsY9rogp/ZAEsFgEHv37sXq1auxdOlSNGrUCH//+9+lPUpoGZGIfeGEFvDDDz9g1apV+PTTT1FQUID+/fvjo48+ijpKNyvtRqwc+Qt7T0xMDJYvX44NGzZg69atME0Te/bskY4abrftwOFyVd12SIzIRXxAeE2Urts7WLhctg1KjNI9Hnu3BKGZXQ3TNKVNSNRJJLquw+PxoKKiQm5/ZFn2ZrXLly9Hu3btcPPNN8u0nYh7gUBALpJ1puHz+fDVV1/h7NmzuPPOO+XOIaZpL6YVziKiPEIzcX4X9Q2EF3g7w0ZChvdTFL+L8M73yLJsW2c0zEptyu229/1z1otp2ruBiPfLWWbxvka2kWhf8Zt4B5y/C3tdtHdWUQeh4mePWTlCFa7RYtSp6zqXLl3KnJwcAmBKSgofe+wxqbk4tZtIxMhfjFgnT55Ml8tFr9fLrKwsFhQUVPm9OkpLS0natoe3336bLVq0IABmZWVx3rx5JMNpiXKYpm0v0nVdahOmabtERyLKHAqFaJq2+zlp14EYqWuaVu16LjI8sq+uLgTl5eUkw1qCCFdcXMzy8vIq2kM0nGu1RL2Ja5G/77//npcuXbIDsGpa4nsgEKDf75d1I7CssHu+U9sUn9Xh9/uraJrO+qiuLE4uXLhA0tY0LcteRkDaZRRLH4LBIP1+P0OhUJV8Rmsjobk7y15eXk5dD9uynJq6om6jNKnrAOcI1OVyYfv27di1axc+/PBDlJaWolu3blixYgWOHz+OtLQ0+awYZbNyJOvk/PnzyMvLw8aNG3H48GHcdNNN+PrrrzF58mT8/ve/lyNuoOr+cgLLsj3dtm7dim3btuGTTz5BXFwcBg4ciKNHj2Ljxo1Su/F46TwFEAAAFWhJREFU7G2KxIhbaIRerxf3338/Ll26BNL2KNMr3c7FCByw0584cSLuu+8+WTYgvCFsXl4e/vznP0vvPCciHpLIycnBSy+9VK0mVVZWhnfeeQc7duxAXl4e3G43tm7diunTp6OoqAgJCQkYOnQoZs6cGdVWJzTClStX4oMPPsD999+Pe++9F4ZhYOzYsTh06BBKS0vRvn17vP7662jbti2A8BIDoT0cPnwYjz/+OFwu2w3fWY9C2zJN21Ny0qRJuOuuu6LuDLJ8+XK8+eabqFevntTc9MptkSoqKhAbGwtN09CkSRMsX748MjgMw0AwGMQDDzwgN5UVeXK7w/ZFwH4fHn/8cQwaNKiKJhTZRoFAQHpHinisSk2OJNq1a4f58+crTepnhHKcuA4gbceDgoICTJw4EceOHUNaWhpeeOEFjB49Gvn5+Vi/fj1cLnsaTHRYYupJ/LMHg0F4vV785je/waZNm1BSUoJf/epXWLRoEZKSktC7d2/Ex8fLDlOvXO8SjePHj6Nfv344d+4c7rjjDvzxj3/E8OHDsWvXLsyePbvKdJxl2dND4jomxt6x3TRN/Pd//zcyMjIQHx+PMWPGwOVyIT4+HmVlZSApd8NOSkqq0pE7p8tGjx6Nv/zlL/j0008xY8YMuau3pmmIi4uDx2PvU9i+fXtomhZVwADA+++/j2nTpmHatGmIiYlBUVERfvvb3yIrKwt79uzBhg0bMGzYMGRkZODhhx+Wwi8UCkmnju3bt2PEiBEYOXIkOnToAJfLhd/97nf4/PPP8fXXXyMYDKJXr154/vnnsXjxYpm2pmkwTRNxcXFo164dxo0bhwceeABTpkxBy5Yt5TSkOH7Esuz9G5s1a1ZtZz5s2DC89dZb0tnjwoULaNCggWwT0UbVTfW53W40aNAAf/jDHzB06FAkJibiV7/6FTRNQ2xsrJw+1XUdjRs3RnJysnxfXC77fLOatpHX64Xf70d6ejr8fn+1baSog1Dxs8eyLAaDQc6fP58ej4eTJk3iF198IY3Rmzdvptvt5rlz56oY18XUiZh68fv9PHfuHOvVq8ecnBy+9dZbvHjxogzTu3dvLliwgLpuOycEg8GoU3Ak+eGHH/KGG25gbm4ujx07RtKeBisoKGD//v2lQV2kLXDeF1NEBQUFTEhIkNsyGYbtQGFZYRdtMd1nWbbxX5RN5K+wsJCDBg2SW/wYhr37hiiLQMQRjV69enH+/Pk0DIMlJSVcs2YNfT4f165dK9MdN24cx40bR8uyjf2WY2rLMAzOmjWLffr04YULF2iaJouLi5mYmCi3QTIMg3v37mWHDh3kNJgooyizmCKbO3cuU1NT+f3338vnxHSak8hrgWXZjgoPPPAAly9fXiUt0ww7Yoh7kVhW2H1/yZIlTElJ4Y4dO2gYtuOLM79k2AFGXP//aCNF3UMJqeuE4uJiXrp0ia+99hrbtGnD+Ph4DhgwgH/961+5fft2xsbG8uLFi1XCmKYpbUaio6ioqOChQ4f4T//0T4yJiWFiYiKffPJJnjp1it27d+drr70m1145w0XjmWeeYXp6Ops0acLRo0dz7969zM/P5/Dhw0mGbTzOjlF8io5OfH///fd52223yXU1Iozfb2+jJPIh7Bq6bq/jEc+KDr9Tp04sLCyU9hxh2xCCrboOmSRTUlJIhu1J8+fPJwBeuHBBlmX9+vW8/fbbZQctyiTiHT58OGfPni3z9tlnnxEA8/LyqgiYrKwsklXtQ0KImKZJv99PXdfZpUsXzpkzh0VFRTKsKJMQjiIPkYjnd+7cKff9ixw0/BiiHKS9BmzChAk8e/YsybBQFUJFlMX5eS1tJMp+tTZS1D3UdN91gGmaaNSoEQzDwBNPPIExY8Zgx44d2LlzJyZNmiQ96zZt2oShQ4fK9UEulwsNGzaUHlqWZR9j3rJlS6xduxa7du3CgQMHsGrVKvTv3x8lJSXYv38/zp8/j7i4uKh2G4FhGHjmmWeQm5uLTZs2Yd26dfj1r3+N+Ph4+P1+rFu3DrfddhtYaWti5dQYEJ6+jI21D1n0eDwYN24cBgwYgPr160PTNDmFJewXrJxWc9rYWDllKGw1fr8f69evR7NmzeBy2R5ksbH2se3Cw03YdKKVLTU1Va4vsywLn332Gfr06YNGjRrJOt6/f7+cEgXsaS2rcgoyVDm9FQgEpB3pq6++AgB06dJFlokM7yDijCcmJkZ6QIo1Sdu2bYOmaUhKSqriCadVeu2JsNURCATQtWtXfPrpp1XqSrwTok2Ed6UTZz0FAgEsXLgQFy5cQHJyspwy9HjCZ3+J7846qWkbOaemr9ZGijoIFdcNYlRqVU7jiBH0xx9/zFatWtHn87Fjx4584okn5PMijBhBi1G0uB8IBFhaWsrvvvuOjz76KFu2bEkA/MUvfsGVK1eyOpyjZDI8Gl6wYAFvuOEGAmBmZibfeust6eEm0hb5du6WUVFRITUr0tb4xEj7/PnzUks0DIOlpaUy7chRvGVZPH/+PC3LnoZzcv78eZLVeyx27tyZK1eupKbZU5GZmZlcvHix9FozTZMZGRl85JFHSIanw4LBIC3Lng585ZVXmJOTI70X77nnHt5yyy0yjWAwyNdff51ZWVksKytjMGhvkuvMk2mGp+JM05RaXKRWW1JSwtLS0mrL40Ro1IZhTwWLuEKhEL///nvno5JQyF5nJzQb0wx7ZYo0TdOeur148SJ/+OEH6ro9DUiG37F/ZBsp6h5KSF0HODt30QlYVtheI/758/PzOW/ePA4YMEB2+IGAvTWQiMPZ0Wla2G4l7hcWFvKdd97hQw89xKFDh1516sXZeYmOyDBse84nn3zCxx9/nO3bt+eZM2fkc8586Lrteiw6KnGPDB/VMWPGDGZlZfHNN9+UwoMMu6CLNCPrQtPsqbOioiL+53/+J/v27cuRI0fK8kZj7ty5TE5O5rhx49i9e3d27dqVpB3XqlWr+NBDD7F58+bcsmULyfAiVFGPfr+f+/btY6NGjXjXXXdx7NixbNmyJVeuXEld13nkyBEuXLiQDRo04HPPPedMWgok8SfuifIGg/bu4bquMz8/ny+//DI7dOjABQsWyDqNhpg2JKumcfToUb766qscNGgQW7VqFRHKRjzrFGpkeOq0oqKCK1eu5NSpU5mRkcF3332XpF0v4h2taRstWbKEDz/88I+2kaLuoYSU4grEPnNO28W14K9cV1NcXHxNuxJEG/0Gg8FqNanIzlXYo1atWsUhQ4YQABs1asSHHnqIJ06ckOUiwx2hs2wiHU2ztcY333yTzZs3p8vlYpcuXbhv3z6plUQjFApx2bJl7NatG4cNG8YDBw7QsmwNKTs7m23atOGSJUsig13BmTNn2KdPHw4YMEBqo5Zl8eWXX2bTpk358ssvy7VHosO2LFsri9aZi+uCggK5Js7tdvORRx5hIBCIWu+R6Lqt/Zw4cYITJ05kw4YN6fV62b9/f3kkSDREGwkBKfK0d+9eduzYkQDYrFkzPv7447x48SLLysqo6/aOGdfSRgCYmpr6o22kqHuodVKKKui6DpcrvB4JsNfXeDxX7hoRDdMMn94rbAPR7BXVYVn2mi6r0l5hGPbR9M57psNG5vHYe9ddvHgRW7ZswRtvvIHvvvsOuq5j2rRpGD9+PFJSUmT8bre9vkbYL0R+Rfxbt27F4sWLsXfvXrjd9i4Jy5cvR6dOnUDau3NUd1yHs740Lbybt8vlwhdffIG2bdsiMTExali9co1URUUF6tevL8umaZpsj6KiIlRUVKBly5bwer3S/iXKIWw6gL2jutfrxeHDh7Fs2TKsW7cO5eXluHTpEsaOHYsnn3wSycnJsvzCBd6JYdgn/ZaUlGD9+vVYtmwZdu/eDcC2kc2aNQvdunWTO3pEEqrcfV24vJ84cQKbN2/G0qVLcfLkSQQCAbz99tvo168fEhISpN3JqrRLiXLXpI0WLFiAvn37Ii4u7qptpKiD2LJKoYjOtWhCpD3iFqNnMjyKrym6HrYrCUQc4r741DT7VNrc3Fw5kn755Zep6zoHDRrEgoKCKvk3Tdv+U15eXmX3ApJ844032L17dwJgdnY2N27cyOLiYubk5JC0bTI/VpZBgwZxxYoVV2gypmlW2R8vsnxkWIt86qmn+NJLL9Hv90v7it/vZyAQkLarYNA+vNFZD6Zpyp0oAoEAP//8cw4bNowA2LRpU86dO5cXL15k+/bt5bSaqIOr8cYbbzAtLY0pKSkcP348v/32Wz7//PP87W9/SzJ6WQSiTF9//TVHjRoltSYRz6233spQKMTLly8zELAPOyTD03jX2kZiSlPx86LmQ1zFdYFe6TUmtBe3217RX9NRqfCo0it3fqhpOIHQ2MTo2e0O70ogRtUiDZLo2bMnTNPEggULMHz4cKSmpsLlsr3PLMuqsvCXlRqe0FQMw97/7fXXX8fs2bNx//33Y968eejRowdcLpfU2kzTlItDRfrRytWlSxdMmzYNTz/9NEaPHo3bbrsN/fr1A2CnGQqF4PF4omqWXq+9X1/Hjh0xb948fPTRR+jZsyduu+02DBs2DI0aNZJtIXYiF5qO0FgTExMRCoVw4MAB9O/fH3379kVeXh7uvPNONGzYEF6vF7qug7T35IuNjZVxRNOUFy5ciGeffRajRo3CU089hZtuuklqR2531QXR0cK73W6cOXMGd955J5KTk/H+++9j4MCBso1CoRBM096J36rUoIGwBu7z2eee1aSNRHrA1dtIUQcR0kqhIKvuiC00gWsZneq6vYecaYb3yaspYlRuVdpxhEYm4jLNsOOE0BomTZrExo0bMyEhgb/85S+lXWrAgAHct28fLSu8aNap4Tnz9te//pVdunQhAPbt25fvvfceSXudVo8ePWQ44S3ojMeJiDMvL4/p6el0uVxs1aoVV6xYQdKuR6cjQiR+v1/W9b59+3jPPfcwJSWFbdq04dNPP03Srl/DsB0YRDx6pa1H5O/48ePs06cPk5KS2KFDB06fPp2krdl06dJFls9fuYasuvKsXr2aaWlp9Hq9HD58OAsLC2kYBmfOnMnHHnvsCq05El23PTj79+/PFi1aMDU1VXo2mqbJW265Rdo9xT3nfoPX0kbi3fmxNlLUPZRNSlEnYaWNQozWt23bhk2bNiE/Px+9evXC7t278cYbb2DAgAHSzsFKm4ZzqyYxag8Gg9ixYwc2bdqEVatWITY2Fj169MC2bdvw97//XWpvwr4STXMwTXs/PJHOnj17sHPnTqxevRq6rqNr167o378/Bg4ciPj4+CqaA2DbgITmKMp2/PhxbN++HWvXrsXu3bvRq1cvDBo0CIMGDULz5s2l1is0DoGmaTh58iTWr1+PtWvX4vTp02jXrh127NiBF154ARMmTJDamNfrjVoey7K3Ttq5cyeWLl2KLVu2ICUlBampqahfvz7ee+89qfFEw9lGp06dwtq1a7Fu3TqcOHECLVu2xNdff43PP/8cycnJMh8ul72jvljPBdSsjfbv3y/XwF2tjRR1ECoUdRTLCrsqC44dO8bf/OY3TElJIQAOHDiQW7dupWEY0ruvOjubsIH4/X7u2LGD/fr1o8fjYefOnblkyZIqo/5oCBuZeE6M7g3D4OnTp3n33XfT5XJxypQp0gNSaENCawiFQiwqKpK2OU2z3beFhjVz5kzm5OQwKyuLhmHvwlAdIk7xOXHiRHq9XiYkJHDAgAH88ssvnY9HJRQKyfIUFRXx3XffZevWren1etm2bVtp36oOy7pyR4uKigo++eSTTExMJAAOHz6cp0+fpmVZUhOu7oyr6tqoZcuWnDZt2o+2kaLuoTQpRZ3EcniAWZa92SkrR/XBYBClpaVYsWIFNm/ejM2bN+PZZ5/FpEmTQNo7WAjtRbz+wkYibEZ6pQfgnj17kJeXhw0bNqBLly545513pGdgJEbljg5Wpb0LsOM/deoU1q9fj7/97W/YvXs3cnNz8bvf/U7uTCFsTUIbErtTiLzGxMTghx9+wM6dO7Ft2zZs3LgRWVlZ+Pjjj0Ha9jandkiGz1wyTbOKd+SFCxewefNmrF69GkeOHMHYsWPx2GOPVQnvjCcUCiE2Nha6rkuNzeVyYfPmzVi5ciU2btyIhg0bYu/evZHBZX0AVc8PExrOsWPHsG7dOmzZsgUHDx7Eiy++iJEjR8q6F2Fr0ka7du3Cxx9/jJYtW161jRR1ECoUdZRIW5W4JsM2Cb/fT03TePToUYZC9makTiK1MU0LL/gNBOxTh0Wce/fuvcK2FQ1hF9m3bx9vueUWJiYmMj09XZ6yK2w5phneGUIQeX3mzBk+/PDDjI+PJwA+8MADLC4ulnkwDHsHDSdGpc1KIDRHXbfXH4kyXr58mZs2bbpC04mGSE8866zHt99+W36PRNSvYdjrnYQmJMpO2nEVFxfzm2++cQaV1KSNDMNeh1XTNlLUHZQmpaiTWA5NipWag2XZa4SMSvtGIBCQmpXH40FcXJz0RBNhWDm6d7lsj0DSPqcKCJ+0S9p75fl8PplONHtHUVERduzYIY8+AYAePXpg8ODBGDFiBFwue3894EoPNNO0T6kNBoM4ePAg1q5di82bN+Obb75Bz549MXz4cNx+++1o2bKl1JyE5iXiidQOSdvmJOw7ouxGpe1L1CEQ9qp0IuIRcYRCIbjd9r6Auq5LLc2ybC/KSJxtJCBtz0K3O7xXn9sd3ktQtIMoV03byLJsm6MIV10bKeoeSkgpFP8gcnJysH//ftxwww2YM2cOxowZc00dZTAYxHPPPYcXX3wRKSkpGDp0KF599VU0adKkSiesUFxPKCGlUPyDeOWVV9CuXTvccccd8Pl8iImJqbFQMU0Tuq7j008/xYULF/DP//zPSE5OBmBrOUJLjNRMFIqfO0pIKRQKhaLWotxfFAqFQlFrUUJKoVAoFLUWJaQUCoVCUWtRQkqhUCgUtRYlpBQKhUJRa1FCSqFQKBS1FiWkFAqFQlFrUUJKoVAoFLUWJaQUCoVCUWtRQkqhUCgUtRYlpBQKhUJRa1FCSqFQKBS1FiWkFAqFQlFrUUJKoVAoFLUWJaQUCoVCUWtRQkqhUCgUtRYlpBQKhUJRa1FCSqFQKBS1FiWkFAqFQlFrUUJKoVAoFLUWJaQUCoVCUWtRQkqhUCgUtRYlpBQKhUJRa1FCSqFQKBS1FiWkFAqFQlFrUUJKoVAoFLUWJaQUCoVCUWtRQkqhUCgUtRYlpBQKhUJRa1FCSqFQKBS1FiWkFAqFQlFrUUJKoVAoFLUWJaQUCoVCUWtRQkqhUCgUtZb/B/o3z+UyjBbLAAAAAElFTkSuQmCC;" vertex="1" parent="1">
          <mxGeometry x="210" y="220" width="425" height="422" as="geometry" />
        </mxCell>
        <mxCell id="UEyNzQiGv4uuygEFeglz-2" value="" style="rounded=0;whiteSpace=wrap;html=1;fillColor=#f8cecc;strokeColor=#b85450;opacity=30;strokeWidth=2;" vertex="1" parent="1">
          <mxGeometry x="364" y="230" width="16" height="70" as="geometry" />
        </mxCell>
        <mxCell id="UEyNzQiGv4uuygEFeglz-3" value="" style="rounded=0;whiteSpace=wrap;html=1;fillColor=#f8cecc;strokeColor=#b85450;opacity=30;strokeWidth=2;" vertex="1" parent="1">
          <mxGeometry x="450" y="230" width="16" height="70" as="geometry" />
        </mxCell>
        <mxCell id="UEyNzQiGv4uuygEFeglz-4" value="" style="rounded=0;whiteSpace=wrap;html=1;fillColor=#f8cecc;strokeColor=#b85450;opacity=30;strokeWidth=2;" vertex="1" parent="1">
          <mxGeometry x="470" y="230" width="16" height="70" as="geometry" />
        </mxCell>
        <mxCell id="UEyNzQiGv4uuygEFeglz-6" value="" style="rounded=0;whiteSpace=wrap;html=1;fillColor=#f8cecc;strokeColor=#b85450;opacity=30;strokeWidth=2;" vertex="1" parent="1">
          <mxGeometry x="560" y="330" width="70" height="20" as="geometry" />
        </mxCell>
        <mxCell id="UEyNzQiGv4uuygEFeglz-7" value="" style="rounded=0;whiteSpace=wrap;html=1;fillColor=#f8cecc;strokeColor=#b85450;opacity=30;strokeWidth=2;" vertex="1" parent="1">
          <mxGeometry x="220" y="350" width="70" height="20" as="geometry" />
        </mxCell>
      </root>
    </mxGraphModel>
  </diagram>
</mxfile>
